<?xml version="1.0"?>
<svg xmlns="http://www.w3.org/2000/svg" xmlns:xlink="http://www.w3.org/1999/xlink" xmlns:svgjs="http://svgjs.com/svgjs" version="1.1" width="512" height="512" x="0" y="0" viewBox="0 0 512 512" style="enable-background:new 0 0 512 512" xml:space="preserve" class=""><g><path xmlns="http://www.w3.org/2000/svg" d="m486.113281 42.140625v355.238281h-460.234375v-355.238281c0-23.269531 18.859375-42.140625 42.128906-42.140625h375.976563c23.269531 0 42.128906 18.871094 42.128906 42.140625zm0 0" fill="#ffca28" data-original="#e4f5f7" style="" class=""/><g xmlns="http://www.w3.org/2000/svg" fill="#34393a"><path d="m376.808594 151.765625h-252.410156c-4.328126 0-7.835938-3.511719-7.835938-7.839844s3.507812-7.835937 7.835938-7.835937h252.410156c4.328125 0 7.835937 3.507812 7.835937 7.835937s-3.507812 7.839844-7.835937 7.839844zm0 0" fill="#34393a" data-original="#34393a" style="" class=""/><path d="m376.808594 197.277344h-252.410156c-4.328126 0-7.835938-3.507813-7.835938-7.835938s3.507812-7.835937 7.835938-7.835937h252.410156c4.328125 0 7.835937 3.507812 7.835937 7.835937s-3.507812 7.835938-7.835937 7.835938zm0 0" fill="#34393a" data-original="#34393a" style="" class=""/><path d="m376.808594 106.25h-252.410156c-4.328126 0-7.835938-3.507812-7.835938-7.835938 0-4.328124 3.507812-7.839843 7.835938-7.839843h252.410156c4.328125 0 7.835937 3.511719 7.835937 7.839843 0 4.328126-3.507812 7.835938-7.835937 7.835938zm0 0" fill="#34393a" data-original="#34393a" style="" class=""/></g><path xmlns="http://www.w3.org/2000/svg" d="m486.113281 221.765625v175.613281h-460.234375v-175.613281c2.777344-.710937 5.695313-1.097656 8.691406-1.097656h97.324219c13.667969 0 25.378907 9.757812 27.84375 23.195312l4.015625 21.902344c2.453125 13.4375 14.167969 23.195313 27.835938 23.195313h128.8125c13.667968 0 25.382812-9.757813 27.847656-23.195313l4.011719-21.902344c2.464843-13.4375 14.179687-23.195312 27.847656-23.195312h97.320313c3 0 5.90625.375 8.683593 1.097656zm0 0" fill="#ffc107" data-original="#bfdadd" style="" class=""/><path xmlns="http://www.w3.org/2000/svg" d="m352.261719 266.980469-4.011719 21.894531c-2.464844 13.441406-14.175781 23.203125-27.84375 23.203125h-128.816406c-13.664063 0-25.378906-9.761719-27.839844-23.203125l-4.011719-21.894531c-2.464843-13.441407-14.179687-23.203125-27.84375-23.203125h-97.328125c-19.089844 0-34.566406 15.476562-34.566406 34.566406v147.96875c0 27.144531 22.007812 49.152344 49.15625 49.152344h413.6875c27.148438 0 49.15625-22.007813 49.15625-49.152344v-147.96875c0-19.089844-15.476562-34.566406-34.566406-34.566406h-97.328125c-13.667969 0-25.378907 9.761718-27.84375 23.203125zm0 0" fill="#6d4c41" data-original="#ffd97b" style="" class=""/><path xmlns="http://www.w3.org/2000/svg" d="m39.179688 426.3125v-147.96875c0-19.089844 15.480468-34.566406 34.570312-34.566406h-39.183594c-19.089844 0-34.566406 15.476562-34.566406 34.566406v147.96875c0 27.144531 22.007812 49.152344 49.15625 49.152344h39.179688c-27.148438 0-49.15625-22.007813-49.15625-49.152344zm0 0" fill="#5d4037" data-original="#edc56b" style="" class=""/></g></svg>
