<svg width="240" height="229" viewBox="0 0 240 229" fill="none" xmlns="http://www.w3.org/2000/svg">
<path d="M12.6638 224.111C12.5973 224.112 12.5313 224.099 12.4701 224.073C12.4089 224.046 12.3539 224.008 12.3086 223.959C12.261 223.912 12.2232 223.856 12.1975 223.794C12.1717 223.732 12.1584 223.665 12.1584 223.598C12.1584 223.531 12.1717 223.465 12.1975 223.403C12.2232 223.341 12.261 223.285 12.3086 223.238C15.4855 220.061 16.0641 175.797 16.5817 136.74C16.9877 105.6 17.3734 76.185 19.0177 69.0597C22.7935 52.6877 40.2617 51.4697 40.4342 51.4697C40.5006 51.4627 40.5678 51.4695 40.6315 51.4895C40.6953 51.5096 40.7542 51.5425 40.8046 51.5863C40.8551 51.6301 40.896 51.6838 40.9248 51.744C40.9536 51.8043 40.9698 51.8699 40.9722 51.9366C40.9777 52.0036 40.9696 52.071 40.9484 52.1347C40.9271 52.1985 40.8932 52.2573 40.8486 52.3076C40.804 52.3578 40.7497 52.3986 40.689 52.4273C40.6282 52.456 40.5623 52.4721 40.4951 52.4746C40.3327 52.4746 23.6157 53.6621 20.0124 69.283C18.3884 76.3068 17.9824 105.671 17.5967 136.75C16.9573 185.775 16.2468 220.731 13.0191 223.959C12.9738 224.008 12.9187 224.046 12.8575 224.073C12.7964 224.099 12.7304 224.112 12.6638 224.111V224.111Z" fill="#D1D3D4"/>
<path d="M22.4687 220.853C22.3341 220.874 22.1965 220.842 22.0861 220.762C21.9757 220.682 21.9015 220.561 21.88 220.427C21.8585 220.292 21.8913 220.154 21.9712 220.044C22.0512 219.934 22.1717 219.859 22.3063 219.838C30.4263 217.138 28.8226 132.142 27.8685 81.3513C27.3711 55.2252 26.9753 34.5801 27.7873 30.0024C28.8023 24.2677 30.477 20.9994 32.7912 20.3092C35.1054 19.619 36.7903 21.5475 36.8512 21.6287C36.9222 21.7285 36.9546 21.8505 36.9426 21.9724C36.9306 22.0942 36.875 22.2076 36.786 22.2916C36.697 22.3757 36.5806 22.4247 36.4583 22.4297C36.336 22.4348 36.216 22.3954 36.1204 22.3189C36.1204 22.3189 34.6487 20.8065 33.0754 21.3039C31.7559 21.6997 29.9492 23.5673 28.782 30.1953C28.0004 34.6816 28.3861 55.2759 28.8835 81.3513C30.2436 153.305 30.7917 218.112 22.6311 220.822C22.5793 220.843 22.5242 220.853 22.4687 220.853V220.853Z" fill="#D1D3D4"/>
<path d="M15.7798 220.853C15.6837 220.855 15.589 220.83 15.5058 220.782C15.3929 220.709 15.3134 220.594 15.2849 220.463C15.2564 220.332 15.281 220.195 15.3535 220.082C22.5803 208.673 31.9386 49.8356 31.4616 35.5139C31.3195 31.1697 32.2736 28.3277 34.2934 27.0691C37.0136 25.3741 40.556 27.2417 40.7082 27.3229C40.825 27.3891 40.9114 27.4982 40.9492 27.6269C40.9871 27.7557 40.9735 27.8941 40.9112 28.0131C40.8804 28.0715 40.8382 28.1231 40.7871 28.1651C40.736 28.207 40.6771 28.2383 40.6138 28.2572C40.5505 28.2761 40.484 28.2822 40.4183 28.2751C40.3527 28.2681 40.289 28.248 40.2312 28.2161C40.2312 28.2161 37.0441 26.5515 34.8212 27.9319C33.1363 28.9469 32.3446 31.525 32.4766 35.4835C32.6796 41.5735 30.5582 84.2035 27.3305 128.234C24.4987 166.804 20.2255 214.195 16.1655 220.599C16.1253 220.668 16.0695 220.727 16.0025 220.771C15.9356 220.815 15.8594 220.843 15.7798 220.853V220.853Z" fill="#D1D3D4"/>
<path d="M19.515 220.853H19.4237C19.2949 220.817 19.1853 220.732 19.1188 220.616C19.0523 220.5 19.0342 220.363 19.0685 220.234C21.1695 212.225 21.951 201.273 21.951 179.837C21.951 174.447 21.9511 47.7547 24.3566 38.5893C26.6302 29.8298 40.0282 32.2252 40.5966 32.3369C40.6622 32.3477 40.7248 32.3718 40.7807 32.4077C40.8366 32.4436 40.8846 32.4906 40.9217 32.5458C40.9587 32.6009 40.9842 32.663 40.9963 32.7284C41.0085 32.7937 41.0072 32.8608 40.9925 32.9256C40.9815 32.9914 40.9574 33.0544 40.9216 33.1107C40.8859 33.167 40.8391 33.2156 40.7842 33.2534C40.7293 33.2913 40.6673 33.3178 40.6019 33.3312C40.5366 33.3446 40.4692 33.3448 40.4037 33.3316C40.2718 33.3316 27.361 30.9971 25.331 38.843C22.9864 47.8867 22.9559 178.517 22.9559 179.837C22.9559 201.375 22.1642 212.388 20.0327 220.487C20.0024 220.599 19.9341 220.697 19.8396 220.763C19.7451 220.83 19.6304 220.862 19.515 220.853Z" fill="#D1D3D4"/>
<path d="M6.87828 221.604C4.69167 221.593 2.51424 221.32 0.392426 220.792C0.257829 220.757 0.142648 220.67 0.0722185 220.55C0.00178923 220.43 -0.018122 220.287 0.0168733 220.153C0.0518686 220.018 0.138902 219.903 0.258822 219.832C0.378742 219.762 0.521731 219.742 0.656328 219.777C0.778128 219.777 12.4912 222.903 16.7136 216.306C19.2004 212.439 19.2004 189.916 19.1902 170.052C19.1902 154.756 19.1902 140.313 20.2661 134.872C21.0274 130.975 22.7732 128.214 25.4325 126.651C29.9188 124.042 35.3287 125.768 35.5825 125.849C35.7103 125.891 35.8163 125.982 35.8772 126.101C35.9381 126.221 35.9489 126.36 35.9073 126.488C35.8633 126.615 35.7721 126.719 35.6529 126.779C35.5337 126.84 35.3957 126.852 35.2678 126.813C35.2678 126.813 30.0507 125.149 25.9704 127.534C23.575 128.945 21.9916 131.472 21.2913 135.065C20.2763 140.414 20.2763 154.807 20.2763 170.052C20.2763 191.032 20.2763 212.733 17.6373 216.854C15.1404 220.68 10.6541 221.604 6.87828 221.604Z" fill="#D1D3D4"/>
<path d="M109.167 221.348H38.7621L38.7621 12.4761H109.167L109.167 221.348Z" fill="#FFC100" stroke="black"/>
<path d="M109.657 222.355H38.252C38.1858 222.355 38.1203 222.342 38.0593 222.316C37.9983 222.291 37.943 222.253 37.8967 222.206C37.8503 222.159 37.8139 222.103 37.7895 222.041C37.7651 221.979 37.7533 221.914 37.7546 221.848V11.976C37.7546 11.8431 37.8067 11.7156 37.8997 11.6207C37.9927 11.5258 38.1191 11.4712 38.252 11.4685H109.657C109.792 11.4685 109.921 11.522 110.016 11.6171C110.111 11.7123 110.165 11.8414 110.165 11.976V221.868C110.159 221.999 110.104 222.123 110.009 222.214C109.914 222.304 109.788 222.355 109.657 222.355ZM38.7595 221.34H109.16V12.4835H38.7595V221.34Z" fill="#231F20"/>
<path d="M112.273 42.6263H107.041V20.9106H112.273V42.6263Z" fill="#795548" stroke="black"/>
<path d="M106.582 43.1237V43.1236L106.574 43.1238V20.4107C106.574 20.4087 106.575 20.4068 106.576 20.4054C106.577 20.4046 106.578 20.4041 106.579 20.4037V20.8979V42.6087V43.1087H107.079H112.296H112.796V42.6087V20.8979V20.4032H112.804C112.806 20.4032 112.808 20.404 112.809 20.4054C112.81 20.4068 112.811 20.4087 112.811 20.4107V43.1264L112.811 43.1255L112.812 43.1246L112.813 43.124L112.814 43.1239L112.814 43.1264L112.814 43.1265L112.804 43.6237V43.1237H106.582Z" fill="#FFC100" stroke="black"/>
<path d="M112.273 69.189H107.041V47.4733H112.273V69.189Z" fill="#795548" stroke="black"/>
<path d="M106.582 69.6862V69.6861L106.574 69.6863V46.9732C106.574 46.9712 106.575 46.9693 106.576 46.9679C106.578 46.9665 106.58 46.9657 106.582 46.9657H112.804C112.806 46.9657 112.808 46.9665 112.809 46.9679C112.81 46.9693 112.811 46.9712 112.811 46.9732V69.6889L112.811 69.688L112.812 69.6871L112.813 69.6865L112.814 69.6863L112.814 69.6889L112.814 69.689L112.804 70.1862V69.6862H106.582ZM106.579 69.1712V69.6712H107.079H112.296H112.796V69.1712V47.4807V46.9807H112.296H107.079H106.579V47.4807V69.1712Z" fill="#C4C4C4" stroke="black"/>
<path d="M112.273 95.7515H107.041V74.0358H112.273V95.7515Z" fill="#795548" stroke="black"/>
<path d="M106.579 95.744V96.244H107.079H112.296H112.796V95.744V74.0433V73.5433H112.296H107.079H106.579V74.0433V95.744ZM112.804 96.259H106.582C106.58 96.259 106.578 96.2582 106.576 96.2568C106.575 96.2553 106.574 96.2534 106.574 96.2515V73.5358C106.574 73.5338 106.575 73.5319 106.576 73.5305C106.578 73.529 106.58 73.5283 106.582 73.5283H112.804C112.806 73.5283 112.808 73.529 112.809 73.5305C112.81 73.5319 112.811 73.5338 112.811 73.5358V96.2515C112.811 96.2534 112.81 96.2553 112.809 96.2568C112.808 96.2582 112.806 96.259 112.804 96.259Z" fill="#C4C4C4" stroke="black"/>
<path d="M112.273 122.314H107.041V100.598H112.273V122.314Z" fill="#795548" stroke="black"/>
<path d="M112.805 122.822H112.804H106.582C106.58 122.822 106.578 122.821 106.576 122.819C106.575 122.818 106.574 122.816 106.574 122.814V100.071H106.582H112.804V100.071L112.811 100.07V122.784V122.799L112.812 122.814C112.812 122.815 112.812 122.816 112.812 122.817C112.811 122.818 112.811 122.818 112.81 122.819C112.809 122.82 112.809 122.821 112.808 122.821C112.807 122.821 112.806 122.822 112.805 122.822ZM106.579 122.307V122.807H107.079H112.296H112.796V122.307V100.606V100.106H112.296H107.079H106.579V100.606V122.307Z" fill="#795548" stroke="black"/>
<path d="M112.273 139.488H107.041V130.52H112.273V139.488Z" fill="#795548" stroke="black"/>
<path d="M106.579 139.47V139.97H107.079H112.296H112.796V139.47V130.518V130.018H112.296H107.079H106.579V130.518V139.47ZM112.804 139.985H106.582C106.58 139.985 106.578 139.984 106.576 139.983C106.575 139.982 106.574 139.98 106.574 139.978V130.01C106.574 130.008 106.575 130.006 106.576 130.005C106.578 130.004 106.58 130.003 106.582 130.003H112.804C112.806 130.003 112.808 130.004 112.809 130.005C112.81 130.006 112.811 130.008 112.811 130.01V139.978C112.811 139.98 112.81 139.982 112.809 139.983C112.808 139.984 112.806 139.985 112.804 139.985Z" fill="#C4C4C4" stroke="black"/>
<path d="M112.273 153.475H107.041V144.507H112.273V153.475Z" fill="#795548" stroke="black"/>
<path d="M106.579 153.467V153.967H107.079H112.296H112.796V153.467V144.515V144.015H112.296H107.079H106.579V144.515V153.467ZM112.804 153.982H106.582C106.58 153.982 106.578 153.981 106.576 153.98C106.575 153.978 106.574 153.977 106.574 153.975V144.007C106.574 144.005 106.575 144.003 106.576 144.002C106.578 144.001 106.58 144 106.582 144H112.804C112.806 144 112.808 144.001 112.809 144.002C112.81 144.003 112.811 144.005 112.811 144.007V153.975C112.811 153.977 112.81 153.978 112.809 153.98C112.808 153.981 112.806 153.982 112.804 153.982Z" fill="#C4C4C4" stroke="black"/>
<path d="M106.541 167.971H112.773V158.004H106.541V167.971Z" fill="#795548"/>
<path d="M106.579 167.464V167.964H107.079H112.296H112.796V167.464V158.512V158.012H112.296H107.079H106.579V158.512V167.464ZM112.804 167.979H106.582C106.58 167.979 106.578 167.978 106.576 167.977C106.575 167.975 106.574 167.973 106.574 167.971V158.004C106.574 158.002 106.575 158 106.576 157.999C106.578 157.997 106.58 157.997 106.582 157.997H112.804C112.806 157.997 112.808 157.997 112.809 157.999C112.81 158 112.811 158.002 112.811 158.004V167.971C112.811 167.973 112.81 167.975 112.809 167.977C112.808 167.978 112.806 167.979 112.804 167.979Z" fill="#C4C4C4" stroke="black"/>
<path d="M112.273 181.468H107.041V172.501H112.273V181.468Z" fill="#795548" stroke="black"/>
<path d="M106.579 181.461V181.961H107.079H112.296H112.796V181.461V172.508V172.008H112.296H107.079H106.579V172.508V181.461ZM112.804 181.976H106.582C106.58 181.976 106.578 181.975 106.576 181.974C106.575 181.972 106.574 181.97 106.574 181.968V172.001C106.574 171.999 106.575 171.997 106.576 171.996C106.578 171.994 106.58 171.993 106.582 171.993H112.804C112.806 171.993 112.808 171.994 112.809 171.996C112.81 171.997 112.811 171.999 112.811 172.001V181.968C112.811 181.97 112.81 181.972 112.809 181.974C112.808 181.975 112.806 181.976 112.804 181.976Z" fill="#231F20" stroke="black"/>
<path d="M106.541 195.965H112.773V185.998H106.541V195.965Z" fill="#795548"/>
<path d="M106.579 195.478V195.978H107.079H112.296H112.796V195.478V186.526V186.026H112.296H107.079H106.579V186.526V195.478ZM112.804 195.993H106.582C106.58 195.993 106.578 195.992 106.576 195.991C106.575 195.989 106.574 195.987 106.574 195.985V186.018C106.574 186.016 106.575 186.014 106.576 186.013C106.578 186.011 106.58 186.011 106.582 186.011H112.804C112.806 186.011 112.808 186.011 112.809 186.013C112.81 186.014 112.811 186.016 112.811 186.018V195.985C112.811 195.987 112.81 195.989 112.809 195.991C112.808 195.992 112.806 195.993 112.804 195.993Z" fill="#C4C4C4" stroke="black"/>
<path d="M106.541 209.962H112.773V199.995H106.541V209.962Z" fill="#795548"/>
<path d="M106.579 209.454V209.954H107.079H112.296H112.796V209.454V200.553V200.053H112.296H107.079H106.579V200.553V209.454ZM112.804 209.969H106.582C106.58 209.969 106.578 209.969 106.576 209.967C106.575 209.966 106.574 209.964 106.574 209.962V199.995C106.574 199.993 106.575 199.991 106.576 199.989C106.578 199.988 106.58 199.987 106.582 199.987H112.804C112.806 199.987 112.808 199.988 112.809 199.989C112.81 199.991 112.811 199.993 112.811 199.995V209.962C112.811 209.964 112.81 209.966 112.809 209.967C112.808 209.969 112.806 209.969 112.804 209.969Z" fill="#C4C4C4" stroke="black"/>
<path d="M44.4637 15.2037H34.2325V218.133H44.4637V15.2037Z" fill="#795548"/>
<path d="M34.24 217.615V218.115H34.74H43.9562H44.4562V217.615V15.7011V15.2011H43.9562H34.74H34.24V15.7011V217.615ZM44.4637 218.13H34.2325C34.2317 218.13 34.2309 218.13 34.2301 218.13C34.229 218.129 34.228 218.129 34.2272 218.128C34.2258 218.126 34.225 218.125 34.225 218.123V15.2038C34.225 15.2018 34.2258 15.1999 34.2272 15.1985C34.2286 15.1971 34.2305 15.1963 34.2325 15.1963H44.4637C44.4657 15.1963 44.4676 15.1971 44.469 15.1985C44.4704 15.1999 44.4712 15.2018 44.4712 15.2038V218.123C44.4712 218.123 44.4712 218.123 44.4711 218.124C44.471 218.124 44.4708 218.125 44.4706 218.125C44.4702 218.126 44.4697 218.127 44.469 218.128C44.4683 218.129 44.4675 218.129 44.4666 218.13C44.4657 218.13 44.4647 218.13 44.4637 218.13Z" fill="#795548" stroke="black"/>
<path d="M144.045 66.918C144.045 66.918 158.306 39.0055 169.42 32.1746L175.287 67.8518L144.045 66.918Z" fill="#795548"/>
<path d="M188.238 133.167C187.743 133.097 187.743 133.098 187.743 133.098L187.743 133.1L187.742 133.109L187.737 133.142L187.718 133.275L187.645 133.795C187.581 134.251 187.488 134.921 187.368 135.777C187.128 137.491 186.785 139.95 186.37 142.936C185.54 148.907 184.424 156.983 183.28 165.402C181.037 181.896 178.682 199.732 178.158 205.61C178.112 205.623 178.062 205.637 178.008 205.652C177.7 205.736 177.253 205.851 176.696 205.975C175.581 206.222 174.033 206.502 172.301 206.633C168.889 206.889 164.873 206.557 161.993 204.386L162.008 203.99C162.025 203.563 162.049 202.934 162.08 202.128C162.142 200.514 162.232 198.188 162.339 195.339C162.554 189.641 162.842 181.851 163.135 173.481C163.721 156.746 164.328 137.684 164.409 128.403C164.608 116.253 165.413 104.121 166.82 92.0521H212.794L215.157 106.217L222.64 208.012C222.579 208.07 222.495 208.145 222.386 208.233C222.099 208.464 221.632 208.784 220.941 209.108C219.561 209.756 217.27 210.426 213.695 210.426C210.144 210.426 207.811 209.534 206.378 208.666C205.659 208.231 205.162 207.8 204.848 207.483C204.691 207.324 204.58 207.194 204.51 207.107C204.494 207.088 204.481 207.07 204.469 207.055C204.469 207.055 204.469 207.055 204.468 207.054L188.727 133.063L187.743 133.097L188.238 133.167Z" fill="#EFEFEF" stroke="black"/>
<path d="M209.048 213.076C208.996 210.902 208.823 208.732 208.529 206.577L219.342 208.204C219.586 211.742 220.303 215.233 221.475 218.582L221.478 218.592L221.482 218.603C222.387 220.864 222.778 222.542 222.76 223.815C222.743 225.059 222.336 225.913 221.61 226.573C221.471 226.7 221.222 226.841 220.845 226.976C220.475 227.107 220.013 227.221 219.476 227.311C218.403 227.49 217.067 227.565 215.648 227.509C212.79 227.396 209.702 226.756 207.76 225.461C206.881 224.875 206.492 224.06 206.406 223.076C206.318 222.067 206.552 220.893 206.933 219.661C207.221 218.728 207.582 217.799 207.927 216.909C208.037 216.624 208.146 216.344 208.25 216.069C208.666 214.971 209.034 213.906 209.049 213.097L209.049 213.087L209.048 213.076Z" fill="#795548" stroke="black"/>
<path d="M166.351 200.539L166.383 200.496L176.318 206.27C176.327 206.305 176.337 206.345 176.348 206.388C176.4 206.594 176.474 206.895 176.561 207.272C176.736 208.025 176.962 209.081 177.169 210.286C177.586 212.711 177.918 215.696 177.623 218.061C177.318 220.501 176.984 221.474 176.774 221.832C176.762 221.853 176.75 221.871 176.741 221.886H167.072L166.576 220.382L166.408 219.87L165.91 220.076C162.865 221.336 159.686 222.244 156.435 222.784C154.205 223.081 150.6 223.083 147.589 222.763C146.079 222.602 144.752 222.364 143.833 222.055C143.369 221.9 143.049 221.739 142.862 221.588C142.771 221.515 142.73 221.459 142.713 221.426C142.7 221.4 142.7 221.388 142.702 221.376C142.711 221.318 142.791 221.149 143.118 220.867C143.422 220.605 143.862 220.31 144.417 219.985C145.457 219.376 146.828 218.702 148.31 217.975C148.409 217.926 148.509 217.877 148.609 217.828C150.195 217.049 151.879 216.213 153.35 215.351C154.81 214.495 156.112 213.583 156.895 212.635C158.347 210.877 160.788 207.752 162.862 205.072C163.899 203.731 164.847 202.5 165.534 201.603C165.878 201.155 166.157 200.791 166.351 200.539ZM176.688 221.952C176.688 221.952 176.688 221.951 176.689 221.95C176.688 221.951 176.688 221.952 176.688 221.952Z" fill="#795548" stroke="black"/>
<path d="M169.4 32.1745C169.4 32.1745 199.992 26.7544 210.579 33.6056C219.947 52.2309 219.947 110.999 219.947 110.999L162.447 112.146C162.447 112.146 163.99 37.0465 169.4 32.1745Z" fill="#795548"/>
<path d="M196.896 37.2902L189.04 60.5641L181.276 41.1269L196.896 37.2902Z" fill="#231F20"/>
<path d="M189.03 61.0615C188.93 61.061 188.832 61.0309 188.749 60.9749C188.666 60.9189 188.601 60.8395 188.563 60.7468L180.809 41.3096C180.782 41.2426 180.77 41.1706 180.773 41.0985C180.776 41.0264 180.795 40.9558 180.827 40.8915C180.86 40.8271 180.906 40.7705 180.962 40.7253C181.019 40.6801 181.084 40.6475 181.154 40.6295L196.775 36.803C196.864 36.7811 196.957 36.7838 197.044 36.8106C197.132 36.8374 197.211 36.8874 197.272 36.9552C197.332 37.0214 197.373 37.1025 197.391 37.19C197.409 37.2775 197.403 37.3682 197.374 37.4526L189.517 60.7164C189.486 60.8156 189.423 60.9022 189.34 60.9641C189.256 61.0261 189.155 61.0601 189.051 61.0615H189.03ZM181.925 41.472L188.959 59.1025L196.064 38.0007L181.925 41.472Z" fill="#231F20"/>
<path d="M201.21 70.0848C200.433 69.6065 199.593 69.2408 198.713 68.9988C198.094 68.9988 195.344 70.1863 193.324 68.2172C193.324 68.2172 194.257 69.2322 192.39 69.151C190.522 69.0698 189.01 69.4149 188.025 67.8518C187.618 67.9421 187.193 67.9002 186.812 67.7323C186.43 67.5644 186.112 67.2791 185.904 66.918C185.904 66.918 183.874 67.1312 183.671 65.4158C183.468 63.7005 185.275 60.5337 185.275 60.5337C185.275 60.5337 180.352 61.9851 178.22 62.5637C176.089 63.1422 175.886 61.2949 176.668 60.3307C177.449 59.3664 184.138 57.2146 186.818 56.9C189.497 56.5853 199.525 59.813 201.758 60.96C201.728 60.9498 202.124 67.1312 201.21 70.0848Z" fill="white"/>
<path d="M201.21 70.6329C201.118 70.6298 201.028 70.6055 200.946 70.5618C200.254 70.119 199.502 69.7772 198.713 69.5468C198.559 69.5681 198.407 69.5986 198.256 69.6382C196.799 70.0941 195.223 69.9742 193.851 69.3032C193.645 69.4683 193.407 69.5895 193.152 69.6593C192.898 69.7291 192.631 69.7461 192.369 69.7092H191.497C190.106 69.7092 188.746 69.7092 187.782 68.4506C187.367 68.4869 186.95 68.4185 186.569 68.2518C186.188 68.0851 185.854 67.8254 185.599 67.4965C185.009 67.537 184.426 67.3488 183.97 66.9709C183.515 66.593 183.222 66.0543 183.153 65.4665C183.18 64.0437 183.556 62.6493 184.249 61.4065C182.646 61.8633 179.814 62.6753 178.342 63.0407C176.87 63.4061 176.241 62.7869 175.987 62.4012C175.784 62.015 175.7 61.5769 175.747 61.1429C175.794 60.7089 175.97 60.2988 176.251 59.9652C177.266 58.7371 184.3 56.636 186.726 56.3518C189.619 56.0169 199.759 59.3258 201.951 60.5133C202.031 60.5533 202.098 60.6139 202.146 60.6889C202.195 60.7639 202.222 60.8505 202.225 60.9396C202.225 61.1934 202.641 67.2428 201.687 70.2675C201.661 70.3409 201.619 70.4078 201.565 70.4638C201.511 70.5198 201.445 70.5636 201.373 70.5923C201.321 70.6135 201.266 70.6271 201.21 70.6329V70.6329ZM198.713 68.4912C199.479 68.6315 200.213 68.9138 200.875 69.3235C201.284 66.6714 201.399 63.9824 201.22 61.305C198.52 59.9957 189.172 57.1029 186.848 57.3973C183.975 57.7322 177.642 59.9145 177.073 60.625C176.931 60.7877 176.837 60.9868 176.801 61.2001C176.765 61.4134 176.789 61.6324 176.87 61.8328C177.104 62.1982 177.743 62.1069 178.099 62.0155C180.189 61.508 185.082 60.0667 185.133 60.0566C185.232 60.0272 185.338 60.0278 185.438 60.0585C185.537 60.0892 185.625 60.1486 185.691 60.2291C185.751 60.3156 185.783 60.4183 185.783 60.5235C185.783 60.6286 185.751 60.7313 185.691 60.8178C185.214 61.6603 183.996 64.1064 184.148 65.3752C184.3 66.6439 185.65 66.3902 185.813 66.3902C185.921 66.383 186.029 66.4081 186.123 66.4623C186.217 66.5165 186.292 66.5974 186.34 66.6947C186.726 67.5371 187.843 67.3341 187.883 67.324C187.988 67.3069 188.096 67.3209 188.194 67.3641C188.291 67.4074 188.373 67.4781 188.431 67.5676C189.071 68.5826 189.923 68.6333 191.476 68.5826H192.38C192.565 68.6031 192.752 68.6031 192.938 68.5826C192.86 68.48 192.822 68.3523 192.831 68.2236C192.841 68.095 192.897 67.9743 192.99 67.8843C193.082 67.7943 193.204 67.7414 193.333 67.7354C193.462 67.7294 193.589 67.7708 193.689 67.8518C195.12 69.2423 197.008 68.8668 198.023 68.5927C198.249 68.5323 198.48 68.4915 198.713 68.4709V68.4912Z" fill="#231F20"/>
<path d="M192.857 69.6179C192.743 69.5964 192.639 69.5381 192.562 69.452C192.485 69.3659 192.438 69.2567 192.429 69.1414C192.419 69.026 192.448 68.9108 192.511 68.8135C192.574 68.7162 192.667 68.6422 192.776 68.6029C192.904 68.5954 193.025 68.5403 193.115 68.4484C193.205 68.3564 193.258 68.2342 193.263 68.1055C192.853 68.0011 192.424 68.0011 192.014 68.1055C191.904 68.1229 191.792 68.105 191.693 68.0545C191.593 68.0041 191.513 67.9235 191.462 67.8245C191.412 67.7254 191.393 67.6129 191.411 67.5029C191.428 67.393 191.479 67.2913 191.558 67.2123L193.425 65.4462C193.525 65.3513 193.658 65.2983 193.796 65.2983C193.933 65.2983 194.066 65.3513 194.166 65.4462C194.215 65.4945 194.255 65.5521 194.282 65.6157C194.308 65.6793 194.322 65.7477 194.322 65.8167C194.322 65.8858 194.308 65.9541 194.282 66.0177C194.255 66.0814 194.215 66.139 194.166 66.1872L193.293 67.0195C193.539 67.0642 193.772 67.1649 193.973 67.3138C194.086 67.4102 194.176 67.5302 194.238 67.6652C194.299 67.8002 194.33 67.9471 194.328 68.0954C194.322 68.4754 194.179 68.8404 193.925 69.1236C193.672 69.4069 193.325 69.5895 192.948 69.6382L192.857 69.6179Z" fill="#231F20"/>
<path d="M188.025 68.3796H187.914C187.846 68.3674 187.782 68.3419 187.724 68.3046C187.667 68.2673 187.617 68.2189 187.578 68.1622C187.539 68.1055 187.512 68.0417 187.499 67.9745C187.485 67.9073 187.484 67.838 187.498 67.7706C187.739 66.5375 188.229 65.3666 188.939 64.3297C188.98 64.2747 189.031 64.2283 189.09 64.1933C189.15 64.1583 189.215 64.1354 189.283 64.126C189.351 64.1165 189.42 64.1207 189.487 64.1383C189.553 64.1558 189.615 64.1864 189.67 64.2282C189.726 64.2683 189.773 64.3195 189.809 64.3785C189.845 64.4376 189.868 64.5034 189.878 64.5718C189.887 64.6402 189.883 64.7098 189.864 64.7764C189.846 64.843 189.814 64.9052 189.771 64.9591C189.159 65.8824 188.735 66.917 188.523 68.0041C188.492 68.1122 188.427 68.2073 188.337 68.2751C188.247 68.3428 188.138 68.3795 188.025 68.3796V68.3796Z" fill="#231F20"/>
<path d="M185.884 67.4458C185.763 67.4434 185.647 67.3998 185.555 67.3222C185.462 67.2447 185.399 67.1378 185.376 67.0195C185.276 66.2127 185.381 65.3937 185.681 64.638C185.98 63.8824 186.466 63.2143 187.092 62.6956C187.196 62.6192 187.325 62.584 187.454 62.5967C187.583 62.6094 187.703 62.6691 187.791 62.7644C187.879 62.8597 187.928 62.984 187.93 63.1136C187.932 63.2431 187.887 63.3689 187.802 63.467C187.309 63.8657 186.924 64.3804 186.679 64.9651C186.435 65.5497 186.339 66.1859 186.401 66.8165C186.428 66.9511 186.401 67.0909 186.324 67.2051C186.248 67.3193 186.13 67.3985 185.995 67.4255L185.884 67.4458Z" fill="#231F20"/>
<path d="M161.767 86.2233C161.767 86.2233 139.153 84.305 138.534 77.4537C137.915 70.6025 148.907 62.2287 150.775 61.9445C152.642 61.6603 165.198 69.4149 165.198 69.4149L161.767 86.2233Z" fill="#795548"/>
<path d="M160.113 74.4392C160.113 74.4392 156.631 85.1373 161.767 86.2233C166.903 87.3094 169.248 76.3474 167.37 74.7437C165.492 73.14 160.113 74.4392 160.113 74.4392Z" fill="#231F20"/>
<path d="M184.706 73.3023H196.024V70.0848H184.706V73.3023Z" fill="white"/>
<path d="M196.034 73.8302H184.706C184.637 73.8302 184.569 73.8164 184.506 73.7898C184.442 73.7632 184.385 73.7241 184.337 73.675C184.288 73.6258 184.25 73.5675 184.225 73.5036C184.2 73.4396 184.187 73.3712 184.189 73.3024V70.0848C184.187 70.016 184.2 69.9476 184.225 69.8836C184.25 69.8196 184.288 69.7613 184.337 69.7122C184.385 69.663 184.442 69.624 184.506 69.5974C184.569 69.5707 184.637 69.557 184.706 69.557H196.034C196.102 69.557 196.171 69.5707 196.234 69.5974C196.298 69.624 196.355 69.663 196.403 69.7122C196.452 69.7613 196.489 69.8196 196.515 69.8836C196.54 69.9476 196.553 70.016 196.551 70.0848V73.3024C196.553 73.3712 196.54 73.4396 196.515 73.5036C196.489 73.5675 196.452 73.6258 196.403 73.675C196.355 73.7241 196.298 73.7632 196.234 73.7898C196.171 73.8164 196.102 73.8302 196.034 73.8302V73.8302ZM185.244 72.8152H195.506V70.6329H185.234L185.244 72.8152Z" fill="#231F20"/>
<path d="M184.706 70.0848H142.147V73.3023H184.706V70.0848Z" fill="white"/>
<path d="M184.706 73.8302H142.147C142.079 73.8302 142.01 73.8164 141.947 73.7898C141.883 73.7632 141.826 73.7241 141.778 73.675C141.73 73.6258 141.692 73.5675 141.666 73.5036C141.641 73.4396 141.628 73.3712 141.63 73.3024V70.0848C141.628 70.016 141.641 69.9476 141.666 69.8836C141.692 69.8196 141.73 69.7613 141.778 69.7122C141.826 69.663 141.883 69.624 141.947 69.5974C142.01 69.5707 142.079 69.557 142.147 69.557H184.706C184.846 69.557 184.981 69.6126 185.08 69.7116C185.179 69.8106 185.234 69.9448 185.234 70.0848V73.3024C185.234 73.4423 185.179 73.5766 185.08 73.6756C184.981 73.7745 184.846 73.8302 184.706 73.8302V73.8302ZM142.675 72.8152H184.189V70.6329H142.675V72.8152Z" fill="#231F20"/>
<path d="M184.706 70.0848L168.233 45.6741H124.639L142.147 70.0848H184.706Z" fill="white"/>
<path d="M184.706 70.6329H142.147C142.064 70.6321 141.981 70.6115 141.907 70.5727C141.833 70.5338 141.769 70.4779 141.721 70.4096L124.212 45.9786C124.165 45.8949 124.14 45.8005 124.14 45.7045C124.14 45.6085 124.165 45.5141 124.212 45.4305C124.258 45.3457 124.325 45.2746 124.407 45.2246C124.489 45.1747 124.583 45.1476 124.679 45.1463H168.324C168.411 45.1456 168.496 45.1667 168.572 45.2074C168.648 45.2482 168.713 45.3074 168.761 45.3797L185.234 69.7397C185.283 69.8208 185.309 69.9138 185.309 70.0087C185.309 70.1036 185.283 70.1966 185.234 70.2777C185.195 70.3853 185.123 70.4778 185.028 70.5417C184.933 70.6056 184.821 70.6375 184.706 70.6329V70.6329ZM142.421 69.6179H183.722L167.949 46.2729H125.664L142.421 69.6179Z" fill="#231F20"/>
<path d="M159.281 79.4228C159.281 79.4228 159.179 75.5861 160.113 74.4391C161.047 73.2922 169.248 67.6995 170.07 68.8363C170.892 69.9731 168.04 72.9877 168.04 72.9877C168.04 72.9877 187.447 71.7494 187.132 73.0993C186.818 74.4493 185.681 74.9669 184.229 75.3729C182.778 75.7789 176.109 77.0375 174.475 77.8698C172.841 78.7021 166.893 81.0874 163.99 80.7727C162.348 80.633 160.748 80.1745 159.281 79.4228V79.4228Z" fill="white"/>
<path d="M164.569 81.331C164.363 81.3467 164.156 81.3467 163.95 81.331C162.246 81.184 160.587 80.7047 159.067 79.9201C158.991 79.8749 158.927 79.8113 158.88 79.7352C158.834 79.659 158.808 79.5726 158.804 79.4837C158.804 79.0675 158.732 75.4237 159.758 74.1549C160.59 73.1399 167.553 68.207 169.725 68.207C169.875 68.1997 170.025 68.2292 170.161 68.2929C170.297 68.3565 170.416 68.4525 170.506 68.5724C171.247 69.5874 170.161 71.2926 169.238 72.4294C176.17 72.0133 186.493 71.5768 187.508 72.6629C187.576 72.7432 187.625 72.8379 187.651 72.9398C187.677 73.0418 187.68 73.1483 187.66 73.2516C187.264 74.9669 185.762 75.5252 184.382 75.921C183.915 76.053 182.971 76.2661 181.773 76.53C179.38 76.9748 177.022 77.5921 174.719 78.3773C173.623 78.8645 167.939 81.331 164.569 81.331ZM159.849 79.1081C161.18 79.7217 162.603 80.1093 164.061 80.2551C166.69 80.5291 172.333 78.357 174.211 77.4029C176.587 76.5599 179.028 75.9116 181.509 75.4643C182.636 75.2105 183.61 74.9974 184.057 74.8756C185.346 74.5102 186.178 74.1042 186.513 73.2617C184.869 72.7745 176.079 72.9978 168.04 73.5155C167.934 73.5206 167.83 73.494 167.739 73.4389C167.649 73.3838 167.578 73.303 167.534 73.2067C167.49 73.1105 167.476 73.0033 167.494 72.8991C167.512 72.7949 167.561 72.6984 167.634 72.6223C168.811 71.4043 169.897 69.7295 169.664 69.2017H169.644C168.263 69.2017 161.524 73.5967 160.509 74.7741C159.961 75.444 159.788 77.6668 159.798 79.1081H159.849Z" fill="#231F20"/>
<path d="M210.579 33.6057C210.579 33.6057 242.734 64.2689 238.999 83.7873C235.263 103.306 200.591 72.6629 200.591 72.6629L201.109 59.8232L215.106 64.6343L210.579 33.6057Z" fill="#795548"/>
<path d="M228.199 69.6179C228.142 69.6275 228.084 69.6275 228.026 69.6179L200.956 60.3002C200.892 60.2785 200.832 60.2441 200.78 60.1991C200.729 60.1541 200.687 60.0994 200.657 60.038C200.626 59.9767 200.609 59.91 200.604 59.8417C200.6 59.7735 200.609 59.7051 200.632 59.6404C200.678 59.5088 200.774 59.4007 200.9 59.3398C201.025 59.2789 201.17 59.2703 201.302 59.3156L228.372 68.6029C228.436 68.6246 228.496 68.659 228.548 68.704C228.599 68.749 228.641 68.8037 228.671 68.8651C228.702 68.9264 228.719 68.9931 228.724 69.0614C228.728 69.1296 228.719 69.198 228.696 69.2626C228.661 69.3661 228.593 69.4559 228.504 69.5196C228.415 69.5832 228.309 69.6176 228.199 69.6179V69.6179Z" fill="#231F20"/>
<path d="M215.126 65.162C215 65.1632 214.878 65.1185 214.783 65.0363C214.688 64.9541 214.625 64.84 214.608 64.7154L211.705 44.9534C211.716 44.8353 211.765 44.7241 211.847 44.6377C211.928 44.5514 212.036 44.4949 212.153 44.4773C212.27 44.4597 212.39 44.4821 212.493 44.5408C212.596 44.5996 212.676 44.6913 212.72 44.8011L215.644 64.5429C215.661 64.6799 215.624 64.8183 215.54 64.9284C215.457 65.0385 215.334 65.1114 215.197 65.1316L215.126 65.162Z" fill="#231F20"/>
<path d="M196.095 18.3908C196.582 12.991 196.095 8.38289 193.202 3.59209C192.761 2.73599 192.099 2.0139 191.283 1.50118C190.542 1.10533 190.025 1.32864 189.253 1.37939C188.583 1.43246 187.911 1.28402 187.325 0.953083C185.754 0.448372 184.074 0.392128 182.473 0.790683C180.393 1.21698 178.413 2.05944 176.302 2.41469C175.265 2.65981 174.187 2.67037 173.146 2.44561C172.104 2.22084 171.126 1.76641 170.283 1.11548C170.251 1.99535 170.458 2.8674 170.882 3.63931C171.305 4.41121 171.93 5.05423 172.689 5.50029C171.384 5.48863 170.117 5.05809 169.075 4.27213C168.854 5.14463 168.837 6.05635 169.025 6.9365C169.214 7.81666 169.602 8.64155 170.161 9.34713C170.333 9.53202 170.483 9.73641 170.608 9.95614C170.747 10.2763 170.816 10.6223 170.811 10.9711C170.857 12.3388 171.038 13.6986 171.349 15.0311C171.662 16.3719 172.421 17.567 173.501 18.4212" fill="white"/>
<path d="M196.095 18.9186H196.034C195.966 18.9123 195.899 18.8925 195.839 18.8604C195.779 18.8284 195.725 18.7846 195.682 18.7318C195.638 18.6789 195.606 18.618 195.586 18.5525C195.566 18.487 195.56 18.4183 195.567 18.3502C196.115 12.2602 195.293 8.07844 192.745 3.85604C192.35 3.08668 191.758 2.43542 191.03 1.96814C190.654 1.78523 190.226 1.74204 189.822 1.84634L189.304 1.90724C188.702 1.97036 188.094 1.86494 187.548 1.60274L187.142 1.45049C185.668 0.973238 184.088 0.920477 182.585 1.29824C181.661 1.49109 180.728 1.77529 179.824 2.04934C178.705 2.41858 177.562 2.71357 176.404 2.93239C174.543 3.31153 172.609 3.05415 170.912 2.20159C171.035 2.7902 171.279 3.34684 171.629 3.83612C171.978 4.32539 172.425 4.7366 172.942 5.04359C173.042 5.10178 173.119 5.19077 173.163 5.29704C173.207 5.4033 173.215 5.52102 173.186 5.63229C173.159 5.74587 173.093 5.8468 173.001 5.91867C172.909 5.99054 172.795 6.02912 172.679 6.02814C171.541 6.01919 170.425 5.71491 169.441 5.14509C169.301 6.52039 169.701 7.89612 170.557 8.98179L170.649 9.09344C170.814 9.27713 170.954 9.48192 171.065 9.70244C171.228 10.0671 171.317 10.4603 171.329 10.8595V11.2858C171.373 12.4765 171.537 13.6597 171.816 14.818C172.107 16.0446 172.795 17.1404 173.775 17.9341C173.841 17.97 173.899 18.0197 173.945 18.0798C173.99 18.14 174.022 18.2092 174.039 18.2828C174.055 18.3565 174.056 18.4328 174.04 18.5067C174.025 18.5805 173.994 18.6502 173.949 18.711C173.904 18.7718 173.847 18.8223 173.781 18.8592C173.716 18.896 173.643 18.9183 173.567 18.9245C173.492 18.9307 173.416 18.9207 173.345 18.8952C173.274 18.8696 173.21 18.8292 173.156 18.7765C171.984 17.8437 171.155 16.5475 170.801 15.0921C170.509 13.8666 170.335 12.6157 170.283 11.3569V10.9407C170.278 10.6734 170.226 10.4089 170.131 10.1592C170.047 10.0139 169.949 9.8778 169.837 9.75319L169.745 9.64154C169.152 8.87024 168.743 7.97363 168.55 7.02018C168.356 6.06673 168.383 5.08168 168.629 4.14024C168.652 4.0573 168.694 3.981 168.753 3.91751C168.811 3.85403 168.883 3.80515 168.964 3.77484C169.045 3.74477 169.133 3.73644 169.218 3.75069C169.304 3.76493 169.384 3.80124 169.451 3.85604C169.922 4.21064 170.446 4.48815 171.004 4.67819C170.179 3.66626 169.75 2.38953 169.796 1.08509C169.801 0.984932 169.834 0.888173 169.891 0.80613C169.949 0.724088 170.029 0.660159 170.121 0.621823C170.214 0.583488 170.316 0.572332 170.414 0.589663C170.513 0.606995 170.605 0.652095 170.679 0.719686C171.46 1.32449 172.368 1.74459 173.335 1.94849C174.302 2.1524 175.302 2.13482 176.262 1.89709C177.376 1.68825 178.475 1.40338 179.55 1.04449C180.474 0.770436 181.428 0.476087 182.402 0.273087C184.102 -0.147885 185.885 -0.0810445 187.548 0.465936L187.914 0.597887C188.309 0.805882 188.759 0.887371 189.203 0.831337H189.66C190.279 0.687009 190.93 0.766093 191.497 1.05464C192.401 1.60543 193.135 2.39588 193.618 3.33839C196.267 7.70289 197.15 12.2298 196.592 18.4619C196.576 18.5841 196.517 18.6968 196.426 18.7802C196.335 18.8636 196.218 18.9126 196.095 18.9186V18.9186Z" fill="#231F20"/>
<path d="M180.474 31.9411L181.276 41.1268C181.276 41.1268 183.306 46.8514 189.051 44.6996C190.749 44.0481 192.282 43.0258 193.535 41.7071C194.789 40.3884 195.733 38.8066 196.298 37.077L194.217 20.3295C194.217 20.3295 189.528 18.5126 189.67 8.79907C185.048 11.481 179.788 12.8629 174.445 12.7982C174.445 12.7982 173.003 23.4963 174.272 28.0232C175.541 32.5501 180.474 31.9411 180.474 31.9411Z" fill="white"/>
<path d="M186.584 45.7044C185.767 45.7103 184.959 45.5335 184.219 45.1868C182.648 44.3485 181.435 42.9665 180.809 41.2993C180.803 41.2555 180.803 41.2112 180.809 41.1674L180.047 32.479C178.682 32.564 177.329 32.1823 176.209 31.3966C175.09 30.6108 174.271 29.4678 173.886 28.1551C172.597 23.5876 173.978 13.1737 174.039 12.7372C174.063 12.6133 174.129 12.501 174.224 12.4183C174.32 12.3356 174.44 12.2871 174.566 12.2805H174.719C179.876 12.2847 184.945 10.9337 189.416 8.36259C189.496 8.31153 189.588 8.28294 189.683 8.27983C189.777 8.27671 189.871 8.29918 189.954 8.34487C190.037 8.39057 190.107 8.4578 190.155 8.53951C190.203 8.62121 190.228 8.71437 190.228 8.80919C190.086 17.9442 194.389 19.8219 194.44 19.8422C194.527 19.8778 194.604 19.9361 194.661 20.0111C194.718 20.0861 194.754 20.175 194.765 20.2685L196.856 37.016C196.865 37.0834 196.865 37.1517 196.856 37.219C196.274 39.0309 195.291 40.6883 193.98 42.0678C192.669 43.4473 191.064 44.5134 189.284 45.1868C188.423 45.5229 187.508 45.6983 186.584 45.7044V45.7044ZM181.824 41.005C182.361 42.385 183.367 43.5315 184.666 44.2428C185.33 44.5271 186.044 44.6736 186.767 44.6736C187.489 44.6736 188.204 44.5271 188.868 44.2428C190.471 43.624 191.92 42.6619 193.112 41.424C194.304 40.1861 195.211 38.7024 195.77 37.0769L193.74 20.7151C192.725 20.1467 189.294 17.6701 189.152 9.75314C184.779 12.0947 179.902 13.335 174.942 13.3665C174.688 15.3965 173.724 24.0646 174.81 27.9115C175.937 31.9715 180.22 31.4741 180.392 31.464C180.462 31.4555 180.532 31.4609 180.6 31.4799C180.667 31.4988 180.73 31.5309 180.784 31.5744C180.839 31.6178 180.885 31.6717 180.919 31.7329C180.952 31.7941 180.974 31.8614 180.981 31.9309L181.824 41.005Z" fill="#231F20"/>
<path d="M180.9 36.742C180.9 36.742 183.336 36.9247 185.64 34.0929C187.944 31.261 187.548 29.8197 187.548 29.8197C185.491 31.3156 182.984 32.064 180.443 31.941L180.9 36.742Z" fill="#231F20"/>
<path d="M180.991 37.2495H180.859C180.74 37.2405 180.628 37.1898 180.543 37.1063C180.457 37.0227 180.404 36.9117 180.393 36.7928L179.976 31.9817C179.971 31.9094 179.981 31.8369 180.005 31.7687C180.03 31.7005 180.068 31.6382 180.118 31.5858C180.168 31.5317 180.23 31.4897 180.299 31.4633C180.367 31.4369 180.441 31.4267 180.514 31.4336C182.92 31.5432 185.291 30.8269 187.234 29.4036C187.299 29.3497 187.377 29.3131 187.461 29.2971C187.544 29.2812 187.63 29.2864 187.711 29.3122C187.789 29.339 187.859 29.3844 187.916 29.4446C187.972 29.5047 188.014 29.5777 188.035 29.6573C188.086 29.8299 188.441 31.4336 186.005 34.3872C185.434 35.206 184.688 35.8875 183.82 36.3825C182.953 36.8775 181.987 37.1737 180.991 37.2495V37.2495ZM180.991 32.4689L181.316 36.2142C182.885 35.94 184.284 35.0618 185.214 33.7681C185.974 32.9078 186.554 31.9033 186.919 30.8144C185.176 31.8622 183.187 32.4328 181.154 32.4689H180.991Z" fill="#231F20"/>
<path d="M181.113 17.6194C181.113 17.6194 178.972 23.1613 179.926 23.8312C180.88 24.5011 182.9 23.4658 182.9 23.4658" fill="white"/>
<path d="M180.809 24.562C180.406 24.5784 180.009 24.4684 179.672 24.2473C178.657 23.5064 179.672 20.1873 180.687 17.4367C180.742 17.321 180.839 17.2304 180.958 17.183C181.077 17.1356 181.209 17.135 181.328 17.1812C181.448 17.2274 181.545 17.3171 181.602 17.4323C181.658 17.5474 181.668 17.6795 181.631 17.8021C180.616 20.3802 180.007 23.009 180.281 23.4455C180.788 23.7804 182.138 23.3034 182.707 23.009C182.828 22.9484 182.968 22.9378 183.097 22.9796C183.227 23.0213 183.334 23.1121 183.397 23.2323C183.457 23.3522 183.467 23.491 183.426 23.6184C183.384 23.7458 183.293 23.8515 183.174 23.9124C182.44 24.2923 181.634 24.5136 180.809 24.562V24.562Z" fill="#231F20"/>
<path d="M181.408 27.9115C179.697 27.8165 178.063 27.1722 176.749 26.0743C176.648 25.9845 176.586 25.859 176.577 25.7243C176.567 25.5897 176.611 25.4567 176.698 25.3537C176.744 25.3064 176.8 25.2689 176.861 25.2433C176.922 25.2176 176.987 25.2044 177.053 25.2044C177.119 25.2044 177.185 25.2176 177.246 25.2433C177.307 25.2689 177.362 25.3064 177.408 25.3537C178.735 26.4664 180.442 27.0197 182.169 26.8965C183.025 26.6929 183.826 26.3001 184.511 25.7468C185.196 25.1935 185.748 24.4939 186.127 23.6992C186.157 23.6345 186.199 23.5767 186.252 23.5294C186.305 23.4822 186.367 23.4466 186.435 23.4249C186.503 23.4033 186.574 23.3961 186.645 23.4037C186.715 23.4114 186.783 23.4338 186.845 23.4695C186.906 23.5052 186.959 23.5534 187.001 23.6109C187.043 23.6685 187.072 23.7341 187.086 23.8036C187.101 23.8731 187.101 23.9449 187.086 24.0143C187.071 24.0838 187.042 24.1493 187 24.2067C185.742 26.3585 184.168 27.5968 182.331 27.8912C182.025 27.9256 181.715 27.9324 181.408 27.9115V27.9115Z" fill="#231F20"/>
<path d="M183.101 17.766C183.42 17.7029 183.562 17.0589 183.417 16.3275C183.272 15.5961 182.896 15.0544 182.577 15.1174C182.258 15.1805 182.117 15.8246 182.262 16.556C182.407 17.2874 182.782 17.8291 183.101 17.766Z" fill="#231F20"/>
<path d="M176.276 19.1148C176.595 19.0517 176.737 18.4076 176.592 17.6762C176.447 16.9449 176.071 16.4031 175.752 16.4662C175.433 16.5293 175.292 17.1733 175.437 17.9047C175.582 18.6361 175.957 19.1779 176.276 19.1148Z" fill="#231F20"/>
<path d="M181.753 19.8829C181.635 19.8805 181.521 19.838 181.431 19.7623C181.34 19.6866 181.278 19.5824 181.255 19.4667L180.301 14.2598C180.289 14.1949 180.29 14.1283 180.304 14.0638C180.318 13.9994 180.345 13.9383 180.382 13.8842C180.419 13.8287 180.467 13.7812 180.523 13.7446C180.579 13.708 180.642 13.683 180.707 13.6711L187.812 12.3617C187.878 12.3501 187.946 12.3516 188.011 12.3663C188.077 12.3809 188.139 12.4084 188.193 12.4471C188.248 12.4858 188.295 12.5349 188.33 12.5917C188.366 12.6485 188.39 12.7118 188.401 12.7779L189.365 17.9747C189.386 18.1088 189.357 18.246 189.284 18.3604C189.205 18.4687 189.09 18.5445 188.959 18.5735L181.824 19.8829H181.753ZM181.387 14.5744L182.169 18.7867L188.259 17.66L187.487 13.4579L181.387 14.5744Z" fill="#231F20"/>
<path d="M172.932 21.4764C172.813 21.478 172.698 21.4369 172.606 21.3605C172.515 21.2842 172.454 21.1776 172.435 21.0602L171.481 15.8228C171.466 15.7581 171.466 15.691 171.48 15.6261C171.494 15.5613 171.522 15.5002 171.562 15.4473C171.598 15.391 171.646 15.3429 171.702 15.3062C171.758 15.2694 171.821 15.2449 171.887 15.2341L178.992 13.9349C179.057 13.9218 179.125 13.9219 179.19 13.9353C179.255 13.9488 179.317 13.9752 179.372 14.0131C179.427 14.051 179.474 14.0995 179.51 14.1558C179.546 14.2122 179.57 14.2751 179.581 14.3409L180.535 19.5479C180.549 19.6126 180.549 19.6798 180.535 19.7446C180.521 19.8095 180.493 19.8705 180.453 19.9234C180.377 20.034 180.26 20.1104 180.129 20.1366L173.024 21.4358L172.932 21.4764ZM172.567 16.1679L173.338 20.3802L179.428 19.2535L178.657 15.0514L172.567 16.1679Z" fill="#231F20"/>
<path d="M193.385 16.2999L188.543 15.9243C188.476 15.9192 188.411 15.9009 188.352 15.8706C188.292 15.8402 188.239 15.7984 188.195 15.7474C188.152 15.6965 188.119 15.6375 188.099 15.5738C188.078 15.5101 188.071 15.4429 188.076 15.3762C188.081 15.3095 188.099 15.2445 188.13 15.1848C188.16 15.1252 188.202 15.0722 188.253 15.0288C188.304 14.9854 188.363 14.9525 188.427 14.932C188.49 14.9115 188.558 14.9038 188.624 14.9093L193.456 15.295C193.522 15.2989 193.587 15.3159 193.646 15.3452C193.706 15.3745 193.759 15.4154 193.802 15.4656C193.846 15.5157 193.879 15.574 193.9 15.6371C193.92 15.7002 193.928 15.7668 193.922 15.833C193.912 15.9659 193.85 16.0893 193.749 16.1767C193.649 16.264 193.518 16.3083 193.385 16.2999V16.2999Z" fill="#231F20"/>
<path d="M190.086 18.3706C190.496 17.4183 191.086 16.5535 191.821 15.8229C192.202 15.3942 192.705 15.093 193.263 14.9602C193.724 14.9038 194.191 14.9776 194.613 15.1733C195.243 15.442 195.81 15.8401 196.277 16.3419C196.744 16.8438 197.1 17.4381 197.323 18.0864C197.536 18.6845 197.596 19.3268 197.495 19.954C197.276 20.9325 196.723 21.8044 195.932 22.4204C195.145 23.03 194.286 23.5413 193.374 23.9429" fill="white"/>
<path d="M193.374 24.4301C193.277 24.4289 193.182 24.4008 193.099 24.3488C193.017 24.2969 192.951 24.2231 192.907 24.1358C192.876 24.0746 192.857 24.0077 192.852 23.9392C192.847 23.8707 192.856 23.8018 192.877 23.7367C192.899 23.6715 192.934 23.6113 192.979 23.5595C193.024 23.5078 193.079 23.4656 193.141 23.4354C194.013 23.0448 194.838 22.5543 195.597 21.9738C196.297 21.4418 196.786 20.6797 196.978 19.822C197.056 19.2796 197.004 18.7264 196.825 18.2082C196.629 17.6304 196.312 17.101 195.895 16.6548C195.479 16.2086 194.972 15.8559 194.41 15.6199C194.095 15.4649 193.743 15.4016 193.395 15.4372C192.949 15.5582 192.55 15.8091 192.248 16.1579C191.554 16.8517 191 17.6716 190.614 18.5736C190.594 18.6462 190.559 18.7137 190.511 18.7717C190.463 18.8296 190.403 18.8767 190.335 18.9096C190.268 18.9426 190.194 18.9607 190.119 18.9628C190.044 18.9649 189.969 18.9508 189.899 18.9216C189.83 18.8924 189.768 18.8488 189.717 18.7935C189.666 18.7383 189.627 18.6728 189.603 18.6013C189.58 18.5299 189.571 18.4543 189.579 18.3795C189.587 18.3047 189.611 18.2324 189.649 18.1676C190.09 17.1422 190.72 16.2091 191.507 15.4169C191.96 14.9093 192.559 14.5546 193.222 14.4019C193.783 14.3289 194.353 14.4169 194.866 14.6557C195.573 14.9462 196.209 15.3832 196.734 15.9378C197.259 16.4924 197.66 17.1521 197.911 17.8732C198.148 18.5574 198.215 19.2891 198.104 20.0047C197.862 21.1058 197.245 22.0887 196.358 22.7858C195.537 23.4161 194.645 23.9476 193.699 24.3692C193.602 24.4284 193.486 24.4501 193.374 24.4301V24.4301Z" fill="#231F20"/>
<path d="M117.665 95.4269L117.666 95.4274L117.687 95.4946C118.991 99.6322 120.403 104.116 122.437 107.566C124.485 111.043 127.237 113.59 131.246 113.59C132.496 113.59 133.52 112.875 134.362 111.772C133.442 112.988 132.423 113.605 131.256 113.605C127.382 113.605 124.683 111.31 122.583 107.839C120.475 104.355 119.036 99.7866 117.665 95.4317C116.7 92.3589 115.744 89.3168 114.613 87.0458C114.046 85.9091 113.42 84.9312 112.699 84.2323C111.972 83.5267 111.126 83.0843 110.144 83.0843C110.142 83.0843 110.14 83.0835 110.139 83.0821C110.138 83.0807 110.137 83.0788 110.137 83.0768C110.137 83.0748 110.138 83.0729 110.139 83.0715C110.14 83.0701 110.142 83.0693 110.144 83.0693C111.848 83.0693 113.184 84.3096 114.398 86.5996C115.604 88.8744 116.59 92.0011 117.665 95.4269ZM136.875 106.191C136.436 107.657 135.953 108.951 135.416 110.033C136.04 108.77 136.58 107.227 137.059 105.513C137.944 102.346 138.638 98.5156 139.253 94.6175C138.594 98.8596 137.857 102.909 136.875 106.191ZM144.862 71.941C144.676 72.0472 144.468 72.2031 144.248 72.4303C144.475 72.1901 144.705 72.0094 144.935 71.8834L144.943 71.8791L144.951 71.8745C145.121 71.773 145.311 71.7078 145.508 71.6832C145.671 71.6628 145.836 71.6705 145.996 71.7056L145.963 71.701C145.579 71.6462 145.188 71.7315 144.862 71.941ZM146.057 71.7238L146.023 71.7119C146.037 71.7152 146.051 71.7188 146.064 71.7225C146.064 71.7229 146.063 71.7233 146.063 71.7235C146.061 71.7243 146.059 71.7244 146.057 71.7238Z" stroke="black"/>
<path d="M230.341 91.0445C219.176 91.0445 204.854 76.9969 204.194 76.3473C204.135 76.3013 204.087 76.2433 204.052 76.1771C204.018 76.111 203.997 76.0382 203.993 75.9637C203.988 75.8891 204 75.8145 204.026 75.7446C204.053 75.6748 204.094 75.6113 204.146 75.5585C204.199 75.5057 204.263 75.4647 204.332 75.4382C204.402 75.4117 204.477 75.4004 204.552 75.4049C204.626 75.4094 204.699 75.4297 204.765 75.4644C204.831 75.4992 204.889 75.5475 204.935 75.6064C205.108 75.7688 222.068 92.3742 232.848 89.7047C232.915 89.688 232.985 89.6847 233.054 89.6951C233.122 89.7055 233.188 89.7292 233.247 89.765C233.307 89.8009 233.358 89.848 233.4 89.9039C233.441 89.9597 233.471 90.0231 233.487 90.0904C233.504 90.1571 233.507 90.2264 233.496 90.2943C233.486 90.3622 233.462 90.4273 233.426 90.4859C233.39 90.5445 233.343 90.5953 233.287 90.6354C233.232 90.6756 233.168 90.7042 233.101 90.7197C232.198 90.9406 231.271 91.0497 230.341 91.0445Z" fill="#231F20"/>
</svg>
