<svg width="406" height="306" viewBox="0 0 406 306" fill="none" xmlns="http://www.w3.org/2000/svg">
<path d="M127.89 123.352C127.89 123.352 150.89 122.682 156.158 102.037L139.705 101.022L115.842 119.881L127.89 123.352Z" fill="#795548"/>
<path d="M82.1541 227.775L73.5774 229.967L74.3386 239.011L84.6307 237.874L82.1541 227.775Z" fill="white"/>
<path d="M74.3386 239.519C74.2117 239.522 74.0885 239.476 73.9941 239.391C73.8998 239.306 73.8414 239.188 73.8311 239.062L73.08 230.008C73.0708 229.889 73.1032 229.77 73.1717 229.672C73.2402 229.574 73.3405 229.503 73.4556 229.47L82.0323 227.288C82.0965 227.268 82.1641 227.262 82.2307 227.271C82.2973 227.28 82.3612 227.303 82.418 227.339C82.4766 227.372 82.5276 227.417 82.5678 227.471C82.608 227.526 82.6365 227.588 82.6515 227.653L85.1281 237.752C85.1473 237.821 85.151 237.893 85.1387 237.964C85.1264 238.034 85.0985 238.1 85.057 238.158C85.015 238.218 84.9606 238.268 84.8976 238.305C84.8345 238.342 84.7643 238.364 84.6916 238.372L74.3995 239.519H74.3386ZM74.1153 230.384L74.7954 238.504L83.9913 237.489L81.7786 228.455L74.1153 230.384Z" fill="#231F20"/>
<path d="M318.213 65.3142C318.213 65.3142 315.848 60.97 312.123 54.9713C312.123 54.9713 300.115 63.9338 300.217 63.4364C300.318 62.9391 318.213 65.3142 318.213 65.3142Z" fill="#231F20"/>
<path d="M318.203 65.8217H318.142C311.828 64.9792 301.516 63.7308 300.399 63.883C300.105 64.0048 300.014 63.9439 299.912 63.883C299.823 63.8258 299.752 63.7429 299.711 63.6451C299.669 63.5473 299.658 63.4392 299.679 63.3349C299.679 63.1928 299.74 63.0507 300.064 62.9695C300.765 62.6955 307.616 57.6712 311.778 54.5653C311.833 54.5231 311.898 54.4931 311.966 54.4774C312.034 54.4617 312.105 54.4605 312.173 54.474C312.31 54.5023 312.43 54.5823 312.508 54.6973C316.244 60.6452 318.598 65.03 318.649 65.0706C318.691 65.148 318.713 65.2351 318.711 65.3233C318.71 65.4115 318.685 65.4977 318.64 65.5736C318.595 65.6494 318.531 65.7121 318.454 65.7557C318.378 65.7992 318.291 65.8219 318.203 65.8217V65.8217ZM301.963 62.9391C304.175 63.0609 308.54 63.5379 317.188 64.6849C316.345 63.1725 314.447 59.8535 311.849 55.7123C306.53 59.7723 303.587 61.8733 302.003 62.9391H301.963Z" fill="#231F20"/>
<path d="M159.243 246.339L153.255 236.352L161.537 228.861L159.243 246.339Z" fill="#231F20"/>
<path d="M159.243 246.847C159.156 246.847 159.07 246.825 158.993 246.783C158.917 246.74 158.853 246.678 158.807 246.603L152.818 236.616C152.759 236.515 152.736 236.396 152.752 236.28C152.769 236.164 152.824 236.057 152.91 235.976L161.202 228.486C161.277 228.415 161.373 228.37 161.475 228.358C161.577 228.345 161.681 228.365 161.771 228.414C161.864 228.462 161.941 228.537 161.99 228.63C162.039 228.722 162.058 228.828 162.045 228.932L159.741 246.38C159.731 246.486 159.688 246.586 159.616 246.665C159.545 246.744 159.45 246.797 159.345 246.816L159.243 246.847ZM153.905 236.453L158.98 244.827L160.908 230.16L153.905 236.453Z" fill="#231F20"/>
<path d="M163.131 248.41L259.556 262.143C261.533 262.401 263.537 261.947 265.211 260.863C266.884 259.779 268.118 258.135 268.691 256.226L318.578 69.567C319.593 65.6999 317.127 62.2996 313.036 61.9647L214.723 54.0375C212.779 53.9433 210.859 54.5042 209.271 55.6304C207.682 56.7566 206.518 58.383 205.964 60.2493L158.086 240.737C157.838 241.575 157.775 242.458 157.903 243.323C158.031 244.188 158.346 245.014 158.826 245.745C159.307 246.476 159.941 247.093 160.684 247.553C161.428 248.013 162.263 248.306 163.131 248.41V248.41Z" fill="#231F20"/>
<path d="M260.622 262.762C260.231 262.761 259.841 262.734 259.454 262.681L163.029 248.938C162.099 248.822 161.204 248.507 160.405 248.015C159.607 247.523 158.923 246.865 158.401 246.086C157.878 245.285 157.534 244.381 157.393 243.435C157.251 242.489 157.314 241.524 157.579 240.605L205.446 60.1478C206.032 58.1654 207.265 56.4363 208.948 55.2367C210.632 54.0372 212.668 53.4363 214.733 53.53L313.046 61.4572C314.044 61.5145 315.016 61.7917 315.893 62.269C316.771 62.7464 317.532 63.4119 318.121 64.218C318.667 65.0083 319.029 65.9105 319.182 66.8587C319.335 67.8069 319.274 68.7772 319.004 69.699L269.107 256.357C268.563 258.192 267.445 259.803 265.918 260.956C264.391 262.108 262.535 262.741 260.622 262.762ZM163.182 247.933L259.607 261.676C261.461 261.918 263.342 261.493 264.911 260.476C266.481 259.459 267.637 257.916 268.173 256.124L318.06 69.4757C318.291 68.6973 318.345 67.8776 318.221 67.0755C318.096 66.2734 317.795 65.509 317.34 64.8371C316.831 64.1465 316.174 63.5785 315.417 63.1746C314.66 62.7706 313.822 62.5411 312.965 62.5026L214.652 54.545C212.825 54.449 211.018 54.9732 209.526 56.0325C208.034 57.0919 206.943 58.6243 206.431 60.3813L158.574 240.869C158.351 241.65 158.297 242.469 158.416 243.272C158.535 244.076 158.824 244.845 159.264 245.527C159.711 246.186 160.293 246.741 160.973 247.156C161.652 247.571 162.412 247.836 163.202 247.933H163.182Z" fill="#231F20"/>
<path d="M156.848 238.138L253.273 251.871C255.251 252.133 257.257 251.681 258.931 250.596C260.606 249.512 261.838 247.866 262.408 245.954L312.305 59.2952C313.32 55.428 310.854 52.0278 306.763 51.6928L208.44 43.7657C206.497 43.6738 204.58 44.2358 202.994 45.3618C201.408 46.4878 200.245 48.1129 199.691 49.9775L151.814 230.434C151.56 231.274 151.493 232.159 151.618 233.027C151.742 233.895 152.056 234.725 152.535 235.459C153.015 236.194 153.65 236.814 154.395 237.277C155.14 237.739 155.977 238.033 156.848 238.138V238.138Z" fill="white"/>
<path d="M254.339 252.47C253.952 252.468 253.565 252.441 253.182 252.389L156.757 238.646C155.824 238.531 154.927 238.217 154.127 237.725C153.326 237.233 152.641 236.574 152.118 235.794C151.597 234.992 151.254 234.088 151.113 233.142C150.971 232.197 151.033 231.232 151.296 230.313L199.173 49.8557C199.758 47.876 200.989 46.1496 202.672 44.9534C204.354 43.7571 206.389 43.1602 208.451 43.2582L306.774 51.1854C307.77 51.2441 308.742 51.5219 309.619 51.9991C310.497 52.4763 311.258 53.1411 311.849 53.9462C312.395 54.7364 312.756 55.639 312.907 56.5875C313.058 57.5361 312.995 58.5064 312.721 59.4272L262.885 246.086C262.333 247.925 261.204 249.538 259.665 250.688C258.126 251.837 256.259 252.462 254.339 252.47V252.47ZM207.821 44.2529C206.087 44.2923 204.41 44.8804 203.032 45.9327C201.653 46.985 200.643 48.4473 200.148 50.1095L152.301 230.566C152.078 231.347 152.025 232.167 152.144 232.97C152.263 233.773 152.551 234.542 152.991 235.225C153.436 235.883 154.017 236.439 154.694 236.854C155.372 237.269 156.13 237.534 156.919 237.631V237.631L253.344 251.374C255.198 251.612 257.076 251.185 258.645 250.168C260.214 249.152 261.371 247.611 261.911 245.822L311.788 59.1734C312.019 58.3946 312.074 57.574 311.947 56.7714C311.821 55.9688 311.517 55.2047 311.057 54.5349C310.549 53.8456 309.893 53.2783 309.138 52.8744C308.383 52.4706 307.548 52.2403 306.692 52.2004L208.369 44.2732L207.821 44.2529Z" fill="#231F20"/>
<path d="M302.754 71.5767L202.097 62.8578L163.476 208.47L262.652 221.655L302.754 71.5767Z" fill="#E6E7E8"/>
<path d="M196.697 237.052L215.505 239.701C216.7 239.848 217.909 239.566 218.914 238.904C219.92 238.242 220.658 237.244 220.996 236.088L222.864 229.074C223.02 228.542 223.057 227.983 222.973 227.435C222.889 226.887 222.685 226.364 222.376 225.904C222.067 225.444 221.66 225.057 221.185 224.772C220.709 224.487 220.177 224.309 219.626 224.253L200.777 221.695C199.593 221.566 198.402 221.857 197.411 222.518C196.42 223.178 195.693 224.166 195.357 225.309L193.51 232.261C193.353 232.788 193.314 233.342 193.396 233.885C193.478 234.428 193.677 234.946 193.981 235.403C194.286 235.86 194.686 236.245 195.156 236.53C195.625 236.815 196.151 236.993 196.697 237.052V237.052Z" fill="white"/>
<path d="M216.195 240.29C215.957 240.293 215.72 240.276 215.485 240.239L196.677 237.6C196.059 237.53 195.464 237.326 194.934 237.003C194.404 236.679 193.951 236.243 193.606 235.726C193.262 235.209 193.035 234.622 192.941 234.008C192.848 233.394 192.889 232.766 193.063 232.17L194.921 225.217C195.288 223.956 196.089 222.864 197.183 222.136C198.277 221.408 199.593 221.09 200.899 221.238L219.748 223.786C220.373 223.859 220.975 224.066 221.513 224.394C222.051 224.721 222.512 225.162 222.864 225.684C223.206 226.204 223.432 226.791 223.527 227.406C223.621 228.02 223.582 228.648 223.412 229.247L221.483 236.23C221.151 237.383 220.459 238.399 219.507 239.13C218.555 239.861 217.395 240.267 216.195 240.29V240.29ZM196.819 236.595L215.627 239.234C216.699 239.367 217.784 239.115 218.688 238.522C219.591 237.928 220.255 237.034 220.56 235.997L222.427 228.983C222.562 228.524 222.595 228.041 222.525 227.568C222.455 227.095 222.283 226.643 222.021 226.242C221.745 225.842 221.387 225.506 220.97 225.255C220.554 225.005 220.088 224.847 219.605 224.791L200.767 222.243C199.705 222.121 198.633 222.378 197.742 222.968C196.851 223.559 196.197 224.445 195.895 225.471L194.048 232.434C193.913 232.891 193.88 233.372 193.951 233.844C194.022 234.315 194.196 234.765 194.461 235.162C194.725 235.559 195.073 235.893 195.48 236.141C195.888 236.388 196.345 236.544 196.819 236.595V236.595Z" fill="#231F20"/>
<path d="M272.974 59.0618L244.219 56.6562C244.152 56.6511 244.087 56.6328 244.028 56.6025C243.968 56.5721 243.915 56.5302 243.872 56.4793C243.828 56.4284 243.795 56.3693 243.775 56.3056C243.754 56.2419 243.747 56.1748 243.752 56.1081C243.757 56.0418 243.776 55.9771 243.806 55.918C243.837 55.8589 243.879 55.8065 243.93 55.7639C243.981 55.7213 244.04 55.6894 244.104 55.6701C244.167 55.6507 244.234 55.6444 244.3 55.6514L273.035 58.0468C273.17 58.0468 273.299 58.1002 273.394 58.1954C273.489 58.2906 273.542 58.4197 273.542 58.5543C273.542 58.6889 273.489 58.8179 273.394 58.9131C273.299 59.0083 273.17 59.0618 273.035 59.0618H272.974Z" fill="#E6E7E8"/>
<path d="M240.23 56.3213H240.179L236.373 56.0066C236.306 56.0015 236.241 55.9832 236.182 55.9529C236.122 55.9225 236.069 55.8806 236.026 55.8297C235.982 55.7788 235.949 55.7197 235.929 55.656C235.908 55.5923 235.901 55.5252 235.906 55.4585C235.911 55.3918 235.93 55.3267 235.96 55.2671C235.99 55.2075 236.032 55.1544 236.083 55.111C236.134 55.0676 236.193 55.0348 236.257 55.0143C236.321 54.9938 236.388 54.9861 236.454 54.9916L240.271 55.3164C240.405 55.3164 240.534 55.3699 240.63 55.4651C240.725 55.5602 240.778 55.6893 240.778 55.8239C240.778 55.9585 240.725 56.0876 240.63 56.1828C240.534 56.2779 240.405 56.3314 240.271 56.3314L240.23 56.3213Z" fill="#E6E7E8"/>
<path d="M266.752 141.835C266.669 141.834 266.586 141.814 266.512 141.775C266.438 141.736 266.374 141.68 266.326 141.612L220.783 75.0683C220.707 74.9566 220.68 74.8195 220.705 74.6872C220.731 74.555 220.808 74.4383 220.92 74.3629C221.032 74.2875 221.169 74.2596 221.301 74.2853C221.433 74.311 221.55 74.3882 221.625 74.4999L267.168 140.993C267.243 141.103 267.271 141.239 267.246 141.37C267.221 141.501 267.146 141.617 267.036 141.693C266.959 141.769 266.859 141.819 266.752 141.835Z" fill="white"/>
<path d="M229.755 198.036C229.674 198.035 229.594 198.016 229.522 197.979C229.45 197.942 229.387 197.888 229.339 197.822L201.934 158.44C201.892 158.386 201.861 158.324 201.844 158.257C201.827 158.19 201.823 158.121 201.834 158.053C201.844 157.985 201.868 157.919 201.905 157.861C201.941 157.802 201.989 157.752 202.046 157.713C202.102 157.673 202.166 157.646 202.234 157.632C202.301 157.618 202.371 157.619 202.438 157.632C202.506 157.646 202.569 157.674 202.626 157.713C202.682 157.753 202.73 157.803 202.767 157.862L230.172 197.234C230.211 197.288 230.238 197.35 230.253 197.415C230.268 197.481 230.27 197.548 230.259 197.614C230.247 197.68 230.223 197.744 230.187 197.8C230.151 197.857 230.105 197.906 230.05 197.944C229.963 198.003 229.86 198.035 229.755 198.036V198.036Z" fill="white"/>
<path d="M237.266 160.734C237.183 160.734 237.1 160.713 237.026 160.674C236.952 160.635 236.888 160.579 236.84 160.511L226.132 144.586C226.058 144.472 226.031 144.334 226.058 144.201C226.084 144.069 226.162 143.951 226.274 143.875C226.386 143.802 226.522 143.775 226.653 143.802C226.785 143.829 226.9 143.906 226.974 144.017L237.683 159.943C237.721 159.997 237.748 160.058 237.762 160.123C237.776 160.188 237.777 160.255 237.764 160.321C237.752 160.386 237.727 160.448 237.69 160.503C237.653 160.559 237.606 160.606 237.551 160.643C237.467 160.701 237.368 160.732 237.266 160.734V160.734Z" fill="white"/>
<path d="M234.78 185.165C235.642 182.638 236.485 180.09 237.378 177.604C237.835 176.294 238.393 175.015 238.89 173.736C239.171 172.927 239.722 172.24 240.451 171.791C241.179 171.341 242.041 171.157 242.89 171.27C244.92 171.503 246.95 171.93 248.98 172.285C250.061 172.522 251.162 172.664 252.268 172.711C253.083 172.726 253.879 172.469 254.532 171.98C256.866 169.747 259.109 167.423 261.322 165.068C261.693 164.628 261.95 164.103 262.07 163.541C262.19 162.978 262.17 162.394 262.012 161.841C261.495 159.374 260.896 156.928 260.398 154.462C260.162 153.506 260.07 152.521 260.124 151.538C260.152 151.179 260.25 150.83 260.414 150.509C260.578 150.188 260.804 149.903 261.078 149.671C264.836 147.215 268.942 145.34 273.258 144.109C273.896 143.907 274.583 143.921 275.212 144.148C275.842 144.376 276.378 144.804 276.74 145.367C278.293 147.499 279.937 149.579 281.429 151.772C281.909 152.596 282.618 153.264 283.471 153.693C284.323 154.122 285.282 154.293 286.23 154.188C288.93 153.995 291.64 153.944 294.35 153.822C294.845 153.794 295.326 153.645 295.751 153.388C296.175 153.132 296.531 152.776 296.786 152.35C297.75 150.929 298.664 149.458 299.608 148.027C300.42 146.788 301.211 145.55 302.074 144.352C302.449 143.738 303.025 143.273 303.705 143.038C304.385 142.803 305.125 142.812 305.799 143.063C309.545 144.352 313.28 145.682 316.964 147.123C317.667 147.4 318.253 147.91 318.623 148.568C318.993 149.227 319.124 149.993 318.994 150.737C318.791 152.767 318.324 154.857 317.979 156.918C317.827 157.933 317.675 158.867 317.604 159.851C317.525 160.48 317.598 161.118 317.815 161.712C318.032 162.307 318.388 162.842 318.852 163.272C320.811 165.139 322.811 166.966 324.709 168.895C325.256 169.484 325.953 169.912 326.727 170.132C327.5 170.352 328.318 170.356 329.094 170.143C331.773 169.565 334.422 168.915 337.102 168.337C337.979 168.041 338.936 168.098 339.771 168.496C340.607 168.894 341.255 169.601 341.578 170.468C343.101 173.655 344.569 176.869 345.983 180.111C346.998 182.465 346.643 183.826 344.603 185.439C343.232 186.525 341.751 187.469 340.34 188.484C339.325 189.236 338.31 190.027 337.386 190.849C336.98 191.185 336.656 191.609 336.439 192.09C336.223 192.57 336.12 193.094 336.138 193.62C336.209 196.412 336.249 199.213 336.381 202.014C336.401 202.775 336.618 203.517 337.011 204.169C337.404 204.82 337.96 205.358 338.624 205.729C340.147 206.643 341.669 207.526 343.222 208.46C344.173 209.023 345.091 209.64 345.973 210.307C346.624 210.73 347.105 211.369 347.332 212.111C347.558 212.854 347.516 213.653 347.211 214.367C345.98 217.75 344.724 221.113 343.446 224.456C343.222 224.966 342.943 225.449 342.613 225.897C342.31 226.44 341.844 226.873 341.282 227.137C340.719 227.401 340.088 227.482 339.477 227.369L332.22 226.08L331.672 225.989C330.656 225.715 329.582 225.755 328.589 226.102C327.596 226.45 326.732 227.09 326.109 227.937C324.739 229.551 323.196 230.982 321.725 232.556C321.038 233.226 320.548 234.071 320.309 235C320.069 235.928 320.088 236.905 320.365 237.824C320.963 240.178 321.542 242.533 322.029 244.929C322.516 247.324 322.029 248.522 319.745 249.638C316.457 251.215 313.124 252.714 309.748 254.135C309.001 254.541 308.128 254.648 307.306 254.433C306.483 254.218 305.774 253.697 305.322 252.977C304.023 251.333 302.835 249.608 301.617 247.902C299.009 244.238 298.359 243.903 293.863 244.137L288.615 244.431C287.779 244.442 286.96 244.669 286.238 245.091C285.516 245.513 284.915 246.114 284.494 246.837C283.429 248.603 282.404 250.399 281.287 252.125C280.691 253.023 280.011 253.862 279.257 254.632C278.927 255.025 278.483 255.305 277.986 255.432C277.489 255.56 276.964 255.528 276.486 255.342C272.944 254.023 269.381 252.724 265.879 251.384C265.399 251.173 264.943 250.911 264.519 250.602C263.973 250.302 263.535 249.837 263.268 249.275C263 248.712 262.916 248.079 263.027 247.466C263.413 245.071 263.819 242.675 264.194 240.28C264.306 239.549 264.377 238.808 264.418 238.077C264.486 237.478 264.411 236.871 264.199 236.307C263.987 235.742 263.645 235.236 263.2 234.829C261.271 233.063 259.363 231.267 257.465 229.48C256.922 228.953 256.248 228.58 255.513 228.402C254.777 228.223 254.007 228.245 253.283 228.465C250.928 229.044 248.553 229.561 246.178 230.11C246.091 230.135 246.003 230.155 245.914 230.17C242.819 230.739 241.854 230.333 240.474 227.491C238.982 224.324 237.622 221.096 236.302 217.848C235.5 215.818 235.845 214.732 237.581 213.423C239.317 212.114 241.387 210.591 243.377 209.363C244.343 208.811 245.128 207.989 245.633 206.997C246.138 206.005 246.341 204.887 246.219 203.78C246.046 201.263 245.975 198.705 245.843 196.219C245.839 195.692 245.702 195.175 245.445 194.715C245.188 194.256 244.818 193.869 244.371 193.59C242.281 192.24 240.159 190.931 238.078 189.581C236.708 188.687 235.318 187.804 234.759 186.13L234.78 185.165ZM314.965 199.233C314.962 196.077 314.335 192.952 313.12 190.04C311.904 187.127 310.124 184.483 307.882 182.261C305.641 180.039 302.981 178.283 300.058 177.094C297.134 175.904 294.004 175.305 290.848 175.33C279.815 175.33 267.28 184.962 267.29 199.304C267.343 205.58 269.859 211.584 274.296 216.022C278.732 220.461 284.735 222.979 291.011 223.035C306.378 223.106 315.604 209.84 314.955 199.233H314.965Z" fill="#795548"/>
<path d="M277.389 256.043C277.022 256.039 276.657 255.97 276.313 255.84L273.39 254.754L265.707 251.881C265.261 251.687 264.836 251.449 264.438 251.171L264.255 251.049C263.628 250.693 263.126 250.152 262.819 249.499C262.512 248.847 262.415 248.115 262.54 247.405L263.058 244.208C263.281 242.878 263.494 241.549 263.707 240.219C263.809 239.59 263.87 238.899 263.92 238.067C263.989 237.547 263.932 237.018 263.756 236.524C263.579 236.03 263.288 235.584 262.905 235.225C261.2 233.662 259.505 232.079 257.83 230.495L257.171 229.876C256.694 229.403 256.097 229.069 255.444 228.91C254.791 228.75 254.107 228.772 253.466 228.973C251.811 229.379 250.157 229.754 248.492 230.13L246.361 230.617L246.066 230.688C242.676 231.307 241.499 230.688 240.078 227.714C238.789 224.984 237.5 222 235.906 218.051C235.013 215.859 235.409 214.499 237.348 212.976C239.54 211.302 241.408 209.992 243.174 208.845C244.055 208.345 244.772 207.598 245.235 206.697C245.698 205.795 245.889 204.778 245.782 203.77C245.671 202.207 245.61 200.634 245.539 199.061C245.539 198.107 245.457 197.153 245.407 196.209C245.408 195.762 245.295 195.322 245.078 194.931C244.861 194.54 244.548 194.211 244.168 193.976C243.306 193.417 242.433 192.869 241.56 192.321L237.865 189.966C236.414 189.022 234.962 188.078 234.353 186.241C234.344 186.191 234.344 186.139 234.353 186.089V185.165C234.343 185.112 234.343 185.057 234.353 185.003L235.104 182.8C235.703 181.014 236.312 179.217 236.952 177.431C237.429 176.081 237.967 174.762 238.474 173.544C238.801 172.639 239.427 171.872 240.248 171.37C241.069 170.868 242.036 170.661 242.991 170.783C244.361 170.935 245.721 171.179 247.051 171.412L249.081 171.767L249.893 171.909C250.677 172.081 251.476 172.176 252.278 172.194C252.969 172.205 253.644 171.996 254.207 171.595C256.693 169.23 259.018 166.784 260.967 164.713C261.288 164.335 261.509 163.882 261.608 163.396C261.708 162.909 261.682 162.406 261.535 161.932C261.312 160.846 261.058 159.75 260.814 158.664C260.51 157.293 260.195 155.923 259.921 154.553C259.678 153.557 259.582 152.531 259.637 151.508C259.673 151.071 259.798 150.645 260.004 150.258C260.21 149.871 260.492 149.529 260.835 149.255C264.637 146.769 268.795 144.876 273.167 143.642C273.908 143.399 274.708 143.408 275.443 143.669C276.178 143.93 276.805 144.427 277.227 145.083C277.782 145.848 278.34 146.599 278.902 147.336C279.917 148.686 280.932 150.087 281.947 151.498C282.379 152.25 283.021 152.859 283.795 153.252C284.568 153.645 285.439 153.804 286.301 153.711C288.047 153.579 289.833 153.508 291.559 153.447L294.411 153.335C294.825 153.308 295.227 153.18 295.581 152.963C295.935 152.745 296.23 152.444 296.441 152.087C297.009 151.244 297.557 150.391 298.105 149.539L299.252 147.763L299.658 147.133C300.328 146.118 301.008 145.103 301.739 144.088C302.181 143.389 302.849 142.862 303.632 142.596C304.416 142.33 305.267 142.341 306.043 142.627C310.549 144.18 314 145.428 317.208 146.687C318.014 147 318.687 147.582 319.113 148.335C319.538 149.088 319.69 149.966 319.542 150.818C319.41 152.208 319.157 153.599 318.903 154.949C318.781 155.639 318.649 156.339 318.537 157.03C318.395 157.943 318.243 158.928 318.162 159.922C318.088 160.481 318.149 161.048 318.34 161.578C318.53 162.108 318.845 162.584 319.258 162.967L320.638 164.267C322.131 165.667 323.683 167.119 325.135 168.601C325.622 169.129 326.246 169.512 326.937 169.708C327.629 169.903 328.361 169.903 329.053 169.707C330.352 169.423 331.651 169.128 332.94 168.824C334.229 168.519 335.681 168.195 337 167.9C337.993 167.57 339.075 167.636 340.021 168.084C340.966 168.532 341.702 169.328 342.075 170.306C343.598 173.493 345.12 176.741 346.491 179.969C347.597 182.526 347.191 184.14 344.958 185.896C344.146 186.546 343.273 187.155 342.431 187.743C341.852 188.149 341.263 188.555 340.685 188.982C339.619 189.784 338.655 190.545 337.762 191.316C337.411 191.604 337.132 191.97 336.945 192.383C336.758 192.797 336.67 193.248 336.686 193.702V195.437C336.686 197.619 336.787 199.873 336.889 202.075C336.906 202.757 337.103 203.421 337.46 204.002C337.816 204.583 338.319 205.06 338.919 205.384L340.867 206.531C341.75 207.049 342.644 207.546 343.527 208.115C344.494 208.69 345.429 209.317 346.328 209.992C347.051 210.481 347.584 211.204 347.839 212.039C348.094 212.873 348.055 213.77 347.729 214.58C346.582 217.747 345.344 221.046 343.953 224.73C343.746 225.23 343.48 225.704 343.161 226.141L343.07 226.08C342.711 226.704 342.169 227.201 341.516 227.504C340.864 227.808 340.134 227.902 339.426 227.775C337.772 227.511 336.117 227.227 334.463 226.953L331.966 226.537L331.57 226.476C330.644 226.222 329.662 226.255 328.756 226.573C327.849 226.89 327.061 227.476 326.495 228.252C325.531 229.399 324.465 230.485 323.45 231.531C323.003 231.987 322.557 232.434 322.12 232.891C321.496 233.502 321.051 234.273 320.834 235.119C320.617 235.966 320.638 236.856 320.892 237.692C321.461 239.945 322.059 242.371 322.557 244.797C323.125 247.578 322.496 248.857 319.999 250.064C316.954 251.506 313.716 252.978 309.981 254.571C309.131 255.02 308.144 255.134 307.215 254.892C306.285 254.65 305.479 254.068 304.957 253.262C303.881 251.902 302.876 250.481 301.912 249.09L301.262 248.177C298.745 244.634 298.217 244.401 293.944 244.624L290.96 244.786L288.686 244.918C287.934 244.924 287.196 245.127 286.546 245.506C285.896 245.886 285.357 246.428 284.982 247.08C284.626 247.669 284.271 248.258 283.967 248.846C283.276 250.014 282.556 251.222 281.805 252.379C281.199 253.305 280.502 254.169 279.724 254.957C279.438 255.297 279.08 255.571 278.677 255.759C278.274 255.946 277.834 256.043 277.389 256.043ZM254.592 227.806C255.797 227.805 256.953 228.279 257.81 229.125L258.47 229.744C260.155 231.317 261.84 232.901 263.545 234.464C264.045 234.922 264.431 235.491 264.671 236.126C264.911 236.761 264.998 237.443 264.925 238.118C264.925 238.981 264.803 239.701 264.702 240.361C264.489 241.701 264.265 243.031 264.052 244.36C263.88 245.375 263.697 246.492 263.535 247.557C263.437 248.074 263.508 248.608 263.736 249.081C263.964 249.554 264.339 249.941 264.803 250.186L264.986 250.308C265.317 250.55 265.675 250.755 266.052 250.917C268.61 251.932 271.178 252.835 273.735 253.79L276.659 254.876C277.045 255.025 277.469 255.049 277.87 254.943C278.271 254.837 278.629 254.608 278.892 254.287C279.621 253.543 280.277 252.731 280.85 251.861C281.591 250.714 282.302 249.516 282.982 248.359L284.048 246.583C284.511 245.789 285.17 245.128 285.963 244.664C286.756 244.2 287.656 243.949 288.575 243.934L290.838 243.812L293.832 243.64C298.481 243.406 299.313 243.812 302.023 247.618L302.683 248.542C303.647 249.912 304.652 251.323 305.728 252.653C306.111 253.287 306.725 253.748 307.441 253.937C308.157 254.126 308.919 254.03 309.565 253.668C313.28 252.084 316.548 250.623 319.532 249.171C321.562 248.156 322.009 247.334 321.562 245.03C321.116 242.726 320.476 240.199 319.908 237.925C319.612 236.923 319.594 235.859 319.855 234.848C320.116 233.836 320.646 232.914 321.39 232.18C321.826 231.723 322.283 231.267 322.729 230.81C323.744 229.795 324.81 228.709 325.774 227.592C326.459 226.668 327.406 225.971 328.492 225.593C329.579 225.214 330.754 225.172 331.864 225.471C331.964 225.498 332.066 225.515 332.169 225.522H332.382L334.706 225.907L339.66 226.74C340.176 226.834 340.709 226.763 341.183 226.537C341.656 226.311 342.047 225.942 342.299 225.481L342.38 225.349C342.655 224.977 342.886 224.576 343.07 224.152C344.45 220.518 345.689 217.219 346.836 214.062C347.09 213.454 347.122 212.775 346.925 212.146C346.728 211.517 346.315 210.977 345.76 210.622C344.894 209.966 343.993 209.36 343.06 208.805C342.187 208.267 341.294 207.79 340.411 207.231L338.462 206.085C337.727 205.669 337.111 205.07 336.676 204.346C336.24 203.622 335.999 202.798 335.975 201.953C335.874 199.731 335.823 197.467 335.772 195.285V193.549C335.754 192.948 335.873 192.351 336.119 191.803C336.365 191.254 336.732 190.769 337.193 190.382C338.117 189.591 339.091 188.809 340.177 187.997L341.953 186.739C342.786 186.16 343.638 185.561 344.43 184.932C346.308 183.45 346.592 182.344 345.658 180.202C344.258 176.984 342.776 173.747 341.263 170.57C341.13 170.189 340.923 169.838 340.653 169.538C340.384 169.238 340.057 168.994 339.693 168.822C339.328 168.649 338.933 168.55 338.53 168.531C338.127 168.513 337.724 168.574 337.345 168.712L333.285 169.646C331.986 169.94 330.687 170.245 329.378 170.529C328.519 170.761 327.613 170.754 326.758 170.509C325.903 170.264 325.131 169.79 324.526 169.139C323.074 167.667 321.542 166.236 320.06 164.835L318.669 163.536C318.151 163.051 317.754 162.451 317.511 161.785C317.267 161.118 317.184 160.404 317.269 159.699C317.35 158.684 317.502 157.669 317.654 156.725C317.769 156.048 317.891 155.348 318.02 154.624C318.263 153.294 318.517 151.924 318.649 150.564C318.748 149.94 318.635 149.301 318.328 148.749C318.02 148.196 317.537 147.764 316.954 147.519C313.736 146.281 310.296 145.042 305.789 143.459C305.218 143.247 304.591 143.242 304.016 143.444C303.441 143.646 302.955 144.043 302.643 144.565C301.932 145.58 301.252 146.595 300.613 147.61L300.196 148.24L299.06 150.006C298.512 150.869 297.953 151.731 297.385 152.574C297.082 153.064 296.666 153.474 296.171 153.769C295.677 154.064 295.118 154.236 294.543 154.269L291.681 154.38C289.965 154.441 288.189 154.512 286.453 154.634C285.414 154.748 284.365 154.559 283.43 154.091C282.496 153.623 281.716 152.895 281.185 151.995C280.231 150.594 279.155 149.204 278.191 147.864C277.633 147.113 277.065 146.362 276.516 145.601C276.208 145.129 275.752 144.772 275.219 144.589C274.686 144.405 274.107 144.404 273.573 144.586C269.298 145.798 265.232 147.653 261.515 150.087C261.095 150.475 260.837 151.008 260.794 151.579C260.743 152.511 260.832 153.445 261.058 154.35C261.332 155.71 261.637 157.08 261.951 158.41C262.195 159.506 262.438 160.602 262.672 161.699C262.851 162.331 262.869 162.998 262.726 163.64C262.582 164.281 262.281 164.877 261.85 165.373C259.891 167.464 257.546 169.92 255.049 172.305C254.304 172.884 253.384 173.192 252.441 173.178C251.571 173.162 250.704 173.064 249.852 172.884L249.061 172.742C248.37 172.63 247.67 172.508 246.98 172.376C245.671 172.143 244.321 171.909 242.991 171.757C242.254 171.654 241.503 171.812 240.869 172.203C240.236 172.594 239.758 173.194 239.52 173.899C239.012 175.107 238.505 176.406 238.017 177.736C237.388 179.522 236.779 181.308 236.17 183.095L235.45 185.216V185.967C235.967 187.419 237.195 188.21 238.495 189.012C239.794 189.814 240.981 190.606 242.22 191.387L244.828 193.052C245.346 193.375 245.773 193.823 246.071 194.356C246.37 194.888 246.528 195.487 246.533 196.097C246.584 197.112 246.625 198.015 246.665 198.969C246.736 200.532 246.797 202.096 246.909 203.649C247.049 204.85 246.836 206.066 246.295 207.148C245.754 208.23 244.909 209.13 243.864 209.739C242.108 210.875 240.271 212.175 238.099 213.799C236.536 214.986 236.272 215.889 236.982 217.635C238.576 221.573 239.865 224.537 241.144 227.257C242.423 229.978 243.092 230.191 246.036 229.653L248.411 229.105C250.066 228.729 251.72 228.364 253.364 227.958C253.767 227.864 254.179 227.813 254.592 227.806V227.806ZM291.061 223.583H291.011C284.621 223.49 278.522 220.895 274.024 216.355C269.526 211.815 266.988 205.693 266.955 199.302C266.921 192.911 269.396 186.762 273.846 182.176C278.297 177.589 284.368 174.931 290.757 174.772H290.848C294.075 174.738 297.277 175.346 300.267 176.56C303.257 177.775 305.976 179.571 308.267 181.845C310.557 184.119 312.372 186.825 313.607 189.807C314.842 192.788 315.473 195.986 315.462 199.213C315.542 202.295 315.005 205.361 313.883 208.232C312.76 211.103 311.075 213.72 308.925 215.93C306.636 218.368 303.867 220.306 300.793 221.623C297.719 222.94 294.406 223.607 291.061 223.583V223.583ZM290.757 175.787C284.697 175.963 278.939 178.476 274.689 182.8C272.507 184.949 270.774 187.51 269.591 190.335C268.407 193.159 267.798 196.191 267.798 199.254C267.797 205.422 270.239 211.34 274.588 215.715C278.938 220.089 284.842 222.564 291.011 222.599H291.061C294.264 222.62 297.437 221.983 300.383 220.725C303.329 219.468 305.984 217.618 308.184 215.291C312.447 210.764 314.782 204.785 314.447 199.294C314.461 196.198 313.858 193.131 312.675 190.27C311.492 187.409 309.752 184.812 307.556 182.631C305.36 180.449 302.752 178.725 299.884 177.561C297.015 176.396 293.944 175.814 290.848 175.848L290.757 175.787Z" fill="#231F20"/>
<path d="M256.734 105.589C257.16 104.331 257.577 103.072 258.023 101.814C258.257 101.164 258.51 100.524 258.784 99.885C258.926 99.4757 259.207 99.1289 259.578 98.9046C259.948 98.6803 260.386 98.5927 260.814 98.6569C261.829 98.7685 262.844 98.9817 263.859 99.1542C264.397 99.2701 264.944 99.3414 265.494 99.3674C265.902 99.3725 266.301 99.2442 266.63 99.002C267.798 97.8855 268.914 96.7182 270.02 95.5408C270.21 95.323 270.341 95.0607 270.401 94.7784C270.462 94.4962 270.449 94.2032 270.366 93.927C270.112 92.6988 269.807 91.4707 269.564 90.2425C269.446 89.7648 269.398 89.2725 269.422 88.7809C269.458 88.4208 269.628 88.0875 269.899 87.8471C271.779 86.6224 273.832 85.6851 275.989 85.066C276.308 84.9656 276.652 84.9728 276.968 85.0864C277.283 85.2001 277.552 85.414 277.734 85.6953C278.506 86.7103 279.328 87.8065 280.069 88.8926C280.309 89.3063 280.665 89.6415 281.091 89.8577C281.518 90.0738 281.999 90.1617 282.475 90.1106C283.824 90.0091 285.174 89.9888 286.535 89.9177C286.782 89.905 287.022 89.8317 287.235 89.7042C287.447 89.5768 287.625 89.3992 287.753 89.1869C288.24 88.4764 288.686 87.7456 289.163 87.025C289.64 86.3043 289.965 85.7867 290.402 85.1878C290.587 84.8806 290.875 84.6483 291.214 84.5314C291.554 84.4145 291.924 84.4206 292.259 84.5484C294.127 85.1878 295.994 85.8577 297.842 86.5784C298.192 86.7174 298.485 86.9728 298.67 87.3017C298.854 87.6307 298.92 88.0132 298.857 88.3851C298.755 89.4001 298.522 90.4151 298.349 91.4808C298.278 91.9579 298.197 92.4958 298.166 92.9424C298.129 93.2568 298.165 93.5757 298.273 93.8736C298.38 94.1714 298.556 94.44 298.786 94.6578C299.801 95.5814 300.816 96.4949 301.719 97.4592C301.991 97.7561 302.339 97.972 302.726 98.0831C303.113 98.1941 303.523 98.196 303.911 98.0885C305.241 97.7941 306.571 97.4693 307.91 97.1851C308.348 97.0349 308.827 97.0623 309.245 97.2616C309.662 97.4609 309.985 97.8161 310.143 98.2509C310.905 99.8444 311.646 101.448 312.346 103.062C312.483 103.281 312.574 103.525 312.614 103.78C312.653 104.035 312.64 104.295 312.575 104.545C312.511 104.795 312.396 105.029 312.238 105.233C312.08 105.437 311.882 105.607 311.656 105.731C310.976 106.28 310.235 106.746 309.524 107.274C309.027 107.65 308.509 108.035 308.053 108.452C307.848 108.617 307.686 108.828 307.578 109.068C307.471 109.308 307.421 109.57 307.433 109.832C307.433 111.233 307.484 112.633 307.545 114.034C307.559 114.414 307.67 114.784 307.867 115.109C308.064 115.434 308.341 115.704 308.672 115.892C309.433 116.348 310.204 116.785 310.966 117.252C311.443 117.532 311.904 117.841 312.346 118.175C312.671 118.387 312.911 118.707 313.024 119.078C313.137 119.449 313.116 119.848 312.965 120.205C312.343 121.89 311.713 123.582 311.077 125.28C310.966 125.536 310.827 125.777 310.661 126.001C310.511 126.273 310.279 126.49 309.999 126.623C309.718 126.756 309.403 126.798 309.098 126.742L305.464 126.133H305.19C304.678 125.999 304.138 126.024 303.641 126.206C303.144 126.387 302.714 126.716 302.409 127.148C301.719 127.95 300.948 128.681 300.217 129.452C299.873 129.786 299.628 130.207 299.508 130.671C299.388 131.135 299.398 131.622 299.537 132.081C299.831 133.258 300.125 134.446 300.369 135.633C300.464 135.861 300.51 136.107 300.503 136.354C300.495 136.601 300.435 136.844 300.327 137.066C300.218 137.288 300.063 137.484 299.873 137.641C299.682 137.798 299.46 137.913 299.222 137.978C297.578 138.77 295.913 139.521 294.228 140.231C293.855 140.436 293.418 140.49 293.007 140.382C292.595 140.275 292.241 140.014 292.016 139.653C291.366 138.831 290.767 137.968 290.168 137.125C288.859 135.288 288.534 135.095 286.291 135.237L283.662 135.39C283.25 135.399 282.846 135.515 282.491 135.724C282.136 135.934 281.84 136.231 281.632 136.587C281.104 137.47 280.617 138.364 280.039 139.237C279.74 139.684 279.4 140.102 279.024 140.485C278.858 140.683 278.635 140.823 278.386 140.887C278.136 140.951 277.873 140.934 277.633 140.84L272.335 138.81C272.095 138.706 271.867 138.576 271.655 138.425C271.383 138.272 271.166 138.038 271.033 137.756C270.901 137.474 270.859 137.158 270.914 136.851C271.107 135.654 271.31 134.456 271.492 133.258C271.55 132.895 271.587 132.529 271.604 132.162C271.639 131.862 271.602 131.559 271.496 131.276C271.39 130.994 271.218 130.741 270.995 130.538C270.031 129.655 269.087 128.762 268.133 127.869C267.862 127.603 267.525 127.416 267.158 127.325C266.79 127.234 266.405 127.243 266.042 127.351C264.864 127.645 263.677 127.899 262.499 128.173H262.357C260.814 128.457 260.327 128.254 259.647 126.833C258.896 125.25 258.216 123.636 257.556 122.012C257.45 121.826 257.381 121.62 257.356 121.406C257.33 121.193 257.348 120.977 257.408 120.77C257.467 120.564 257.568 120.372 257.703 120.205C257.838 120.038 258.006 119.9 258.196 119.799C259.14 119.089 260.104 118.388 261.099 117.769C261.582 117.494 261.973 117.083 262.224 116.586C262.475 116.09 262.574 115.53 262.509 114.978C262.428 113.719 262.398 112.461 262.327 111.202C262.327 110.938 262.26 110.679 262.132 110.448C262.004 110.217 261.82 110.023 261.596 109.883C260.581 109.213 259.485 108.553 258.449 107.853C257.711 107.492 257.124 106.881 256.795 106.127L256.734 105.589ZM296.796 112.623C296.8 111.044 296.491 109.479 295.886 108.02C295.281 106.561 294.392 105.237 293.272 104.124C292.151 103.01 290.82 102.131 289.357 101.536C287.894 100.941 286.328 100.642 284.748 100.656C281.623 100.76 278.658 102.062 276.467 104.291C274.275 106.521 273.025 109.507 272.974 112.633C272.979 115.784 274.227 118.806 276.447 121.043C278.666 123.28 281.678 124.551 284.829 124.58C286.406 124.6 287.97 124.305 289.431 123.712C290.891 123.118 292.218 122.238 293.333 121.124C294.448 120.01 295.329 118.684 295.924 117.224C296.519 115.764 296.815 114.2 296.796 112.623V112.623Z" fill="#795548"/>
<path d="M278.029 141.277C277.813 141.275 277.6 141.233 277.399 141.155L276.009 140.637L272.091 139.176C271.851 139.072 271.623 138.943 271.411 138.79L271.32 138.729C270.968 138.53 270.683 138.231 270.502 137.869C270.321 137.508 270.252 137.1 270.305 136.699L270.569 135.126C270.68 134.446 270.792 133.776 270.893 133.096C270.944 132.741 270.975 132.396 270.995 132.081C271.026 131.858 271.003 131.63 270.927 131.418C270.851 131.206 270.724 131.015 270.558 130.863L267.99 128.478L267.686 128.183C267.476 127.978 267.213 127.834 266.927 127.766C266.641 127.698 266.342 127.709 266.062 127.798C265.24 128.001 264.408 128.183 263.585 128.376L262.357 128.65C260.54 128.985 259.84 128.65 259.079 127.026C258.317 125.402 257.526 123.524 256.988 122.185C256.728 121.704 256.666 121.141 256.816 120.615C256.966 120.09 257.315 119.644 257.79 119.373C258.896 118.541 259.82 117.881 260.723 117.343C261.132 117.117 261.463 116.774 261.675 116.358C261.887 115.942 261.969 115.472 261.911 115.009C261.85 114.227 261.819 113.445 261.789 112.664C261.789 112.187 261.789 111.649 261.718 111.223C261.719 111.041 261.674 110.862 261.587 110.702C261.5 110.542 261.374 110.407 261.22 110.309L259.911 109.487L258.064 108.31C257.224 107.874 256.566 107.155 256.206 106.28C256.197 106.226 256.197 106.171 256.206 106.117V105.65C256.196 105.597 256.196 105.542 256.206 105.488L256.582 104.392C256.886 103.498 257.191 102.595 257.505 101.702C257.739 101.042 258.003 100.393 258.277 99.7531C258.458 99.2333 258.814 98.7928 259.285 98.5075C259.755 98.2222 260.311 98.1099 260.855 98.19C261.545 98.2712 262.235 98.393 262.885 98.5148L263.9 98.6874L264.306 98.7584C264.68 98.8382 265.06 98.8857 265.443 98.9005C265.728 98.9101 266.009 98.8283 266.245 98.6671C267.473 97.4897 268.64 96.2717 269.614 95.2364C269.745 95.0772 269.834 94.8881 269.873 94.6861C269.912 94.4841 269.9 94.2755 269.838 94.0793L269.472 92.4451C269.32 91.7549 269.158 91.0749 269.026 90.4151C268.894 89.8879 268.847 89.3433 268.884 88.8013C268.903 88.5452 268.976 88.2961 269.099 88.0704C269.221 87.8447 269.39 87.6476 269.594 87.4919C271.516 86.2343 273.617 85.2761 275.826 84.6499C276.245 84.5227 276.693 84.5339 277.105 84.6821C277.516 84.8302 277.869 85.1073 278.11 85.4721L278.952 86.5987C279.46 87.2889 279.967 87.969 280.465 88.6287C280.65 88.9716 280.934 89.2513 281.279 89.4322C281.625 89.613 282.016 89.6866 282.403 89.6437C283.287 89.5828 284.17 89.5422 285.042 89.5118H286.474C286.643 89.5011 286.807 89.4481 286.951 89.3577C287.094 89.2673 287.213 89.1423 287.296 88.9941C287.58 88.578 287.854 88.1517 288.118 87.7254L288.696 86.8423L288.899 86.5277C289.245 86.01 289.58 85.5127 289.914 84.9849C290.163 84.5877 290.542 84.2889 290.986 84.139C291.43 83.9891 291.912 83.9975 292.35 84.1627C294.563 84.924 296.339 85.5634 297.953 86.1927C298.407 86.3698 298.787 86.6971 299.029 87.12C299.271 87.543 299.36 88.036 299.283 88.5171C299.222 89.2276 299.09 89.9279 298.968 90.5471C298.897 90.8922 298.836 91.2373 298.786 91.5621C298.735 91.8869 298.633 92.506 298.593 92.9831C298.563 93.2211 298.589 93.4628 298.67 93.6886C298.752 93.9144 298.885 94.1178 299.06 94.2823L299.74 94.9217C300.511 95.6424 301.272 96.363 302.003 97.104C302.218 97.3364 302.493 97.505 302.797 97.591C303.102 97.6769 303.424 97.677 303.729 97.5912L305.688 97.1446C306.368 96.9923 307.048 96.8299 307.718 96.6878C308.274 96.4922 308.885 96.5205 309.421 96.7667C309.957 97.0129 310.376 97.4578 310.59 98.0073C311.361 99.6009 312.102 101.235 312.803 102.839C312.962 103.109 313.067 103.407 313.111 103.718C313.155 104.028 313.137 104.344 313.059 104.647C312.981 104.951 312.843 105.236 312.655 105.487C312.466 105.737 312.23 105.948 311.96 106.107C311.554 106.432 311.128 106.736 310.692 107.041C310.255 107.345 310.103 107.447 309.819 107.66C309.301 108.046 308.804 108.431 308.377 108.817C308.227 108.938 308.108 109.094 308.031 109.27C307.953 109.447 307.919 109.64 307.931 109.832V110.705C307.931 111.811 307.931 112.918 308.022 114.014C308.03 114.311 308.114 114.6 308.267 114.855C308.42 115.109 308.636 115.32 308.895 115.465L309.91 116.034L311.24 116.825C311.731 117.116 312.205 117.435 312.661 117.78C313.067 118.056 313.368 118.464 313.512 118.934C313.656 119.405 313.635 119.911 313.452 120.368C312.837 122.053 312.207 123.744 311.564 125.443C311.449 125.711 311.307 125.966 311.138 126.204C310.934 126.571 310.622 126.865 310.244 127.047C309.866 127.229 309.441 127.289 309.027 127.219L305.383 126.61H305.079C304.662 126.495 304.22 126.512 303.813 126.657C303.407 126.802 303.054 127.069 302.805 127.422C302.308 128.001 301.79 128.549 301.252 129.066C301.029 129.3 300.805 129.523 300.592 129.757C300.307 130.027 300.104 130.372 300.005 130.753C299.907 131.133 299.917 131.533 300.034 131.908C300.328 133.045 300.623 134.253 300.876 135.481C300.983 135.765 301.03 136.068 301.016 136.371C301.001 136.674 300.925 136.971 300.792 137.243C300.659 137.516 300.472 137.758 300.242 137.956C300.012 138.154 299.745 138.303 299.455 138.394C297.953 139.115 296.309 139.856 294.441 140.647C293.966 140.897 293.414 140.96 292.895 140.825C292.375 140.69 291.924 140.366 291.63 139.917C291.092 139.237 290.615 138.516 290.087 137.826L289.762 137.369C288.554 135.664 288.392 135.593 286.321 135.694L284.86 135.775L283.703 135.847C283.368 135.848 283.039 135.937 282.749 136.104C282.459 136.272 282.217 136.512 282.048 136.801C281.866 137.095 281.693 137.399 281.52 137.694C281.165 138.283 280.81 138.881 280.444 139.46C280.127 139.935 279.767 140.38 279.369 140.79C279.19 140.957 278.979 141.087 278.749 141.171C278.518 141.255 278.274 141.291 278.029 141.277ZM266.62 126.61C267.292 126.606 267.938 126.869 268.417 127.341L268.721 127.635C269.574 128.427 270.416 129.229 271.279 130.01C271.557 130.265 271.772 130.581 271.906 130.934C272.04 131.286 272.089 131.665 272.05 132.04C272.034 132.424 271.997 132.807 271.939 133.187L271.604 135.217L271.35 136.78C271.315 136.991 271.347 137.207 271.442 137.399C271.536 137.59 271.689 137.747 271.878 137.846L271.969 137.907C272.121 138.017 272.284 138.109 272.456 138.181C273.756 138.678 275.055 139.196 276.364 139.643L277.755 140.16C277.901 140.223 278.064 140.234 278.217 140.191C278.37 140.149 278.504 140.055 278.597 139.927C278.952 139.566 279.271 139.171 279.551 138.749C279.917 138.191 280.262 137.602 280.566 137.024C280.739 136.719 280.922 136.425 281.104 136.121C281.355 135.69 281.713 135.33 282.144 135.078C282.574 134.826 283.062 134.688 283.561 134.679L284.718 134.618L286.189 134.527C288.615 134.405 289.092 134.639 290.503 136.628L290.838 137.085C291.315 137.765 291.853 138.475 292.34 139.115C292.416 139.251 292.518 139.371 292.641 139.466C292.765 139.562 292.906 139.632 293.056 139.672C293.207 139.712 293.364 139.721 293.519 139.698C293.673 139.676 293.821 139.622 293.954 139.541C295.822 138.749 297.446 138.019 298.938 137.298C299.861 136.851 300.004 136.557 299.801 135.512C299.557 134.304 299.252 133.106 298.968 131.99C298.811 131.446 298.803 130.87 298.944 130.322C299.085 129.774 299.37 129.274 299.77 128.873L300.45 128.183C300.958 127.676 301.465 127.168 301.952 126.59C302.325 126.098 302.836 125.727 303.419 125.525C304.003 125.322 304.633 125.297 305.231 125.453H305.353L309.108 126.072C309.318 126.108 309.533 126.078 309.724 125.985C309.916 125.892 310.073 125.741 310.174 125.554C310.313 125.364 310.432 125.16 310.529 124.945C311.165 123.274 311.794 121.582 312.417 119.87C312.524 119.617 312.536 119.333 312.452 119.071C312.369 118.808 312.194 118.584 311.96 118.439C311.524 118.104 311.047 117.81 310.631 117.546L309.321 116.765C308.986 116.582 308.661 116.389 308.306 116.186C307.902 115.959 307.564 115.631 307.324 115.234C307.083 114.838 306.95 114.386 306.936 113.923C306.885 112.806 306.865 111.7 306.845 110.583V109.71C306.831 109.373 306.895 109.038 307.033 108.73C307.17 108.421 307.377 108.149 307.636 107.934C308.103 107.538 308.651 107.132 309.149 106.726C309.443 106.513 309.737 106.3 310.042 106.097C310.346 105.894 310.864 105.518 311.26 105.204C311.435 105.112 311.589 104.985 311.713 104.831C311.836 104.677 311.926 104.498 311.977 104.307C312.028 104.116 312.038 103.917 312.007 103.722C311.976 103.526 311.905 103.34 311.798 103.174C311.108 101.58 310.367 99.9561 309.605 98.3727C309.549 98.21 309.46 98.0603 309.345 97.9324C309.229 97.8045 309.089 97.7011 308.933 97.6283C308.777 97.5554 308.608 97.5146 308.436 97.5082C308.263 97.5018 308.092 97.53 307.931 97.5912C307.251 97.7333 306.581 97.8855 305.901 98.0479L303.932 98.4945C303.461 98.616 302.966 98.6094 302.498 98.4756C302.031 98.3417 301.608 98.0855 301.272 97.7333C300.552 96.9923 299.79 96.2818 299.039 95.5713L298.359 94.9319C298.071 94.6647 297.85 94.3333 297.715 93.9647C297.579 93.5961 297.532 93.2007 297.578 92.8105C297.578 92.303 297.689 91.7955 297.771 91.3083L297.953 90.2426C298.075 89.593 298.197 88.9129 298.268 88.2126C298.316 87.9526 298.274 87.6839 298.149 87.4512C298.023 87.2186 297.822 87.0359 297.578 86.9337C295.984 86.3247 294.208 85.6852 292.016 84.9037C291.782 84.8055 291.521 84.7979 291.283 84.8824C291.044 84.9669 290.846 85.1373 290.726 85.3604C290.371 85.8578 290.046 86.3754 289.711 86.8728L289.508 87.1874C289.316 87.4716 289.123 87.766 288.94 88.0603L288.098 89.3494C287.924 89.6278 287.686 89.86 287.403 90.0262C287.12 90.1923 286.801 90.2875 286.474 90.3035C285.997 90.3035 285.519 90.3035 285.042 90.3644C284.18 90.3644 283.307 90.4253 282.444 90.4963C281.881 90.5469 281.315 90.4398 280.81 90.1871C280.304 89.9343 279.879 89.5459 279.582 89.0652C279.105 88.3648 278.567 87.6848 278.09 87.0352L277.298 86.01C277.177 85.8132 276.992 85.6636 276.774 85.5861C276.556 85.5086 276.319 85.5078 276.1 85.5837C273.987 86.1758 271.977 87.0899 270.142 88.2938C270.002 88.4482 269.917 88.6443 269.899 88.852C269.876 89.2926 269.921 89.7341 270.031 90.1614C270.163 90.8414 270.315 91.5215 270.477 92.1914C270.64 92.8613 270.721 93.2876 270.832 93.8357C270.927 94.1864 270.934 94.555 270.853 94.909C270.771 95.2631 270.604 95.5916 270.366 95.8657C269.351 96.8807 268.204 98.1393 266.945 99.337C266.525 99.6653 266.007 99.8439 265.473 99.8445C265.023 99.83 264.575 99.7791 264.133 99.6922L263.748 99.6212L262.733 99.4385C262.093 99.3268 261.423 99.205 260.764 99.134C260.45 99.0874 260.13 99.1536 259.86 99.3209C259.591 99.4882 259.389 99.7456 259.292 100.047C259.028 100.677 258.774 101.306 258.541 101.956C258.226 102.839 257.922 103.732 257.627 104.625L257.282 105.64V105.924C257.584 106.527 258.076 107.012 258.683 107.305L260.54 108.482L261.85 109.314C262.138 109.5 262.377 109.753 262.545 110.052C262.713 110.351 262.805 110.687 262.814 111.03C262.814 111.517 262.865 112.045 262.885 112.471C262.885 113.253 262.946 114.024 262.997 114.806C263.07 115.448 262.954 116.099 262.661 116.676C262.369 117.253 261.914 117.732 261.352 118.054C260.479 118.612 259.566 119.261 258.49 120.084C257.79 120.611 257.698 120.926 258.013 121.708C258.551 123.027 259.261 124.753 260.043 126.498C260.591 127.676 260.855 127.798 262.205 127.513L262.438 127.98L262.317 127.483L263.403 127.239C264.225 127.057 265.047 126.874 265.859 126.671C266.109 126.617 266.365 126.597 266.62 126.61V126.61ZM284.89 125.006C282.427 125.002 280.02 124.268 277.975 122.896C275.929 121.524 274.336 119.577 273.397 117.299C272.458 115.022 272.215 112.518 272.7 110.103C273.184 107.688 274.374 105.47 276.119 103.732C277.863 101.993 280.084 100.81 282.501 100.334C284.917 99.857 287.421 100.108 289.695 101.054C291.969 102 293.912 103.6 295.277 105.65C296.642 107.7 297.369 110.109 297.365 112.573C297.408 114.147 297.136 115.715 296.564 117.182C295.992 118.65 295.132 119.989 294.035 121.119C292.862 122.374 291.44 123.371 289.86 124.047C288.281 124.724 286.578 125.064 284.86 125.047L284.89 125.006ZM284.738 101.123C281.774 101.21 278.959 102.439 276.882 104.554C275.816 105.604 274.969 106.855 274.39 108.235C273.812 109.615 273.513 111.097 273.512 112.593C273.524 114.878 274.218 117.107 275.507 118.993C276.796 120.88 278.62 122.338 280.744 123.179C282.868 124.021 285.195 124.208 287.427 123.716C289.658 123.224 291.691 122.075 293.264 120.419C294.269 119.388 295.056 118.166 295.579 116.825C296.102 115.484 296.35 114.052 296.309 112.613C296.316 111.1 296.021 109.6 295.443 108.201C294.864 106.802 294.013 105.533 292.939 104.466C291.865 103.4 290.589 102.557 289.187 101.989C287.784 101.42 286.282 101.136 284.768 101.154L284.738 101.123Z" fill="#231F20"/>
<path d="M201.478 66.8062C198.792 65.6744 195.893 65.1425 192.981 65.2477C190.069 65.3529 187.215 66.0926 184.618 67.4152C175.768 71.9319 177.96 81.7774 174.59 83.7364C171.22 85.6953 107.377 110.664 101.033 112.491C94.6894 114.318 88.5791 112.491 81.3117 110.005C74.0443 107.518 69.558 110.116 64.3003 114.582C59.0426 119.048 56.9517 128.792 59.8038 129.635C62.656 130.477 74.43 120.175 76.1149 120.347C76.1149 120.347 81.7177 122.164 83.433 125.27C85.1484 128.376 85.7675 136.222 85.7675 136.222C85.7675 136.222 72.8263 144.707 72.806 145.205C72.7857 145.702 76.5615 149.691 84.4582 147.57C92.3549 145.448 95.5115 140.465 99.267 133.634C103.023 126.803 116.441 122.783 126.499 119.058C136.558 115.333 174.895 100.677 178.376 99.6719C181.858 98.667 185.664 100.514 190.678 102.017C193.563 102.955 196.653 103.063 199.596 102.329C202.54 101.595 205.217 100.048 207.324 97.8652C212.673 92.5567 212.917 86.5885 211.82 82.8127C211.82 82.8127 203.051 88.7302 199.305 89.9177C195.56 91.1053 193.54 89.2377 191.368 86.2536C189.196 83.2695 188.648 78.5294 190.241 76.1036C191.835 73.6777 202.066 69.4147 202.036 68.7651C201.929 68.092 201.742 67.4343 201.478 66.8062Z" fill="#FFC100"/>
<path d="M80.0531 148.696C77.6611 148.797 75.306 148.081 73.3744 146.666C72.9582 146.342 72.2782 145.712 72.2985 145.225C72.2985 144.9 72.2985 144.474 85.2397 135.999C85.1078 134.547 84.448 128.193 82.9864 125.554C81.5248 122.915 76.6731 121.109 76.0235 120.885C75.3841 120.967 72.7146 122.844 70.573 124.367C65.3051 128.082 61.438 130.67 59.6617 130.162C59.2488 130.018 58.8865 129.757 58.6183 129.411C58.35 129.065 58.1872 128.65 58.1494 128.214C57.3983 124.763 59.8241 117.749 63.9653 114.237C69.7813 109.304 74.2879 107.132 81.4741 109.558C88.9851 112.126 94.7807 113.811 100.891 112.045C107.001 110.279 170.926 85.2893 174.336 83.3304C175.433 82.7011 175.879 80.9553 176.437 78.7426C177.392 75.0175 178.691 69.9121 184.385 66.999C187.05 65.633 189.982 64.8702 192.975 64.765C195.968 64.6597 198.947 65.2145 201.701 66.39C201.813 66.4429 201.901 66.5376 201.944 66.6539C202.24 67.3374 202.442 68.0579 202.543 68.7956C202.543 69.3335 202.087 69.6177 198.727 71.3534C195.875 72.8251 191.561 75.0581 190.668 76.4284C189.206 78.6411 189.744 83.1984 191.784 85.9998C194.007 89.0448 195.844 90.5268 199.153 89.4712C202.787 88.3242 211.455 82.4879 211.536 82.427C211.602 82.3817 211.679 82.3533 211.758 82.3444C211.838 82.3356 211.918 82.3465 211.993 82.3763C212.069 82.4011 212.138 82.4448 212.193 82.5034C212.248 82.5619 212.288 82.6334 212.308 82.7112C212.886 84.7412 214.256 91.7346 207.689 98.261C205.516 100.507 202.757 102.099 199.725 102.856C196.693 103.613 193.51 103.505 190.536 102.544C189.45 102.22 188.425 101.874 187.491 101.529C183.938 100.362 181.137 99.4283 178.559 100.179C176.285 100.829 158.614 107.518 144.404 112.897C136.761 115.79 130.194 118.287 126.723 119.556L122.815 120.977C113.507 124.316 102.962 128.082 99.7542 133.898C95.7957 141.084 92.6492 145.946 84.6307 148.108C83.1374 148.505 81.5982 148.703 80.0531 148.696V148.696ZM73.415 145.286C74.1255 146.159 77.5968 148.879 84.3262 147.083C91.9083 145.053 94.9837 140.343 98.8306 133.39C102.211 127.3 112.959 123.403 122.429 119.992C123.769 119.515 125.068 119.048 126.327 118.581C129.758 117.313 136.365 114.816 144.008 111.923C158.969 106.31 175.93 99.8444 178.234 99.205C181.117 98.3727 184.202 99.3877 187.765 100.565C188.78 100.89 189.795 101.225 190.81 101.58C193.612 102.481 196.61 102.578 199.465 101.86C202.319 101.142 204.915 99.6388 206.959 97.5201C212.531 91.9883 212.034 86.1115 211.496 83.6552C209.466 85.0153 202.696 89.3899 199.448 90.4252C195.174 91.7752 192.911 89.2681 190.952 86.5784C188.658 83.4319 188.12 78.4584 189.805 75.8498C190.82 74.2563 194.951 72.1349 198.25 70.4298C199.59 69.7396 201.082 68.9681 201.508 68.6433C201.404 68.1514 201.258 67.6692 201.072 67.202C198.471 66.1581 195.678 65.6789 192.878 65.7961C190.079 65.9133 187.336 66.6244 184.832 67.8821C179.543 70.582 178.356 75.2408 177.402 78.976C176.803 81.3207 176.285 83.3405 174.834 84.1931C171.444 86.1521 107.407 111.202 101.145 113.009C94.8822 114.816 88.8125 113.131 81.129 110.502C74.3995 108.198 70.1264 110.299 64.6048 114.988C60.5448 118.449 58.5148 125.138 59.1136 127.98C59.2151 128.447 59.4384 128.995 59.9155 129.168C61.3669 129.584 66.5434 125.93 69.964 123.514C73.7296 120.855 75.3333 119.779 76.1453 119.86H76.2468C76.4904 119.941 82.0628 121.779 83.8492 125.027C85.6356 128.275 86.2344 135.857 86.2547 136.192C86.2628 136.282 86.2463 136.374 86.2071 136.456C86.1678 136.538 86.1071 136.608 86.0314 136.658C81.6669 139.521 74.704 144.18 73.415 145.286V145.286Z" fill="#231F20"/>
<path d="M153.021 219.005L143.663 229.795L149.875 236.311L159.599 226.293L153.021 219.005Z" fill="white"/>
<path d="M149.885 236.819C149.815 236.819 149.745 236.805 149.68 236.777C149.616 236.749 149.557 236.708 149.51 236.656L143.298 230.14C143.211 230.048 143.163 229.926 143.163 229.8C143.163 229.674 143.211 229.552 143.298 229.46L152.656 218.67C152.755 218.561 152.894 218.495 153.042 218.488C153.113 218.489 153.183 218.504 153.248 218.534C153.313 218.564 153.37 218.607 153.417 218.66L159.994 225.938C160.082 226.033 160.131 226.158 160.131 226.288C160.131 226.418 160.082 226.543 159.994 226.638L150.22 236.666C150.131 236.756 150.012 236.811 149.885 236.819V236.819ZM144.353 229.785L149.885 235.58L158.898 226.283L153.032 219.777L144.353 229.785Z" fill="#231F20"/>
<path d="M140.598 168.915C140.598 168.915 177.706 188.799 181.137 201.395C184.568 213.991 157.396 230.719 157.396 230.719L149.702 221.675C149.702 221.675 159.852 208.043 155.599 203.882C151.347 199.72 131.239 191.469 131.239 191.469C131.239 191.469 129.281 215.93 118.958 227.095C107.874 239.072 82.5296 239.711 82.5296 239.711L80.6316 226.08C80.6316 226.08 97.7749 221.624 104.992 213.9C112.208 206.176 105.154 170.671 105.154 170.671L140.598 168.915Z" fill="white"/>
<path d="M82.5296 240.29C82.4076 240.291 82.2895 240.247 82.1978 240.166C82.1061 240.086 82.0472 239.975 82.0323 239.854L80.185 226.171C80.1663 226.048 80.1945 225.922 80.264 225.819C80.3336 225.716 80.4394 225.642 80.5605 225.613C80.7331 225.613 97.643 221.117 104.697 213.616C111.751 206.115 104.799 171.189 104.697 170.834C104.686 170.761 104.689 170.687 104.706 170.615C104.724 170.544 104.755 170.477 104.799 170.417C104.845 170.361 104.902 170.315 104.966 170.282C105.031 170.249 105.102 170.229 105.174 170.225L140.588 168.408C140.683 168.401 140.778 168.422 140.862 168.469C142.384 169.281 178.193 188.596 181.644 201.233C185.136 214.032 158.807 230.444 157.68 231.135C157.578 231.198 157.456 231.222 157.337 231.203C157.218 231.185 157.109 231.124 157.031 231.033L149.317 222.02C149.245 221.929 149.206 221.816 149.206 221.7C149.206 221.584 149.245 221.472 149.317 221.381C152.067 217.696 158.452 207.414 155.265 204.257C151.539 200.624 135.137 193.661 131.696 192.209C131.29 196.361 128.824 217.249 119.344 227.501C113.528 233.784 103.824 236.92 96.7092 238.453C92.0449 239.456 87.3056 240.07 82.5398 240.29H82.5296ZM81.2 226.476L82.9661 239.214C86.4171 239.052 108.575 237.59 118.582 226.78C128.59 215.971 130.702 191.651 130.762 191.408C130.768 191.328 130.793 191.251 130.835 191.184C130.878 191.116 130.936 191.061 131.006 191.022C131.076 190.985 131.155 190.965 131.234 190.965C131.314 190.965 131.392 190.985 131.463 191.022C132.285 191.357 151.702 199.365 155.995 203.537C160.289 207.708 151.935 219.493 150.382 221.675L157.487 230.079C160.705 228.049 183.715 212.824 180.64 201.547C177.402 189.682 142.831 170.742 140.476 169.473L105.773 171.25C106.687 176.04 112.259 207.018 105.367 214.347C98.6884 221.431 83.9811 225.715 81.2 226.476Z" fill="#231F20"/>
<path d="M159.111 113.851L161.456 110.055C161.456 110.055 161.263 104.26 162.268 103.478C163.273 102.697 163.577 106.909 163.791 106.858C164.004 106.807 166.46 101.235 167.597 102.067C168.734 102.9 169.17 105.985 168.855 107.142C168.541 108.299 163.009 118.581 163.009 118.581L159.111 113.851Z" fill="white"/>
<path d="M163.009 119.089C162.933 119.088 162.858 119.07 162.79 119.037C162.721 119.003 162.661 118.955 162.613 118.896L158.716 114.176C158.656 114.09 158.624 113.987 158.624 113.882C158.624 113.777 158.656 113.674 158.716 113.588L160.979 109.913C160.979 108.34 160.908 103.925 161.994 103.072C162.108 102.977 162.244 102.912 162.39 102.885C162.536 102.859 162.686 102.871 162.826 102.92C163.466 103.163 163.74 104.148 164.014 105.528C165.11 103.498 166.186 101.692 167.171 101.468C167.304 101.437 167.444 101.437 167.578 101.468C167.712 101.5 167.837 101.563 167.942 101.651C169.282 102.666 169.718 106.016 169.373 107.254C169.028 108.492 164.055 117.739 163.486 118.794C163.447 118.869 163.388 118.933 163.317 118.979C163.246 119.025 163.165 119.053 163.08 119.058L163.009 119.089ZM159.731 113.811L162.918 117.668C165.11 113.608 168.155 107.772 168.368 107C168.652 105.985 168.165 103.163 167.282 102.463C166.937 102.534 166.085 103.772 164.785 106.168C164.247 107.183 164.176 107.295 163.902 107.355C163.763 107.383 163.618 107.358 163.496 107.284C163.253 107.122 163.202 106.878 163.05 106.066C162.941 105.355 162.757 104.658 162.502 103.986C162.106 104.615 161.872 107.254 161.964 110.076C161.968 110.177 161.94 110.276 161.882 110.36L159.731 113.811Z" fill="#231F20"/>
<path d="M109.62 110.614C107.635 111.528 105.437 111.879 103.266 111.629C102.286 111.55 101.353 111.171 100.597 110.543C100.227 110.221 99.971 109.787 99.8685 109.308C99.766 108.828 99.8221 108.328 100.028 107.883C99.4945 107.944 98.9539 107.878 98.4509 107.689C97.948 107.5 97.4971 107.194 97.1355 106.797C96.4203 105.986 95.9365 104.997 95.7348 103.935C95.52 103.273 95.479 102.566 95.6159 101.884C95.7528 101.201 96.0628 100.565 96.5163 100.037C95.4303 99.54 94.2326 98.9208 93.8976 97.7738C93.761 97.1931 93.761 96.5885 93.8976 96.0077C94.1325 94.8559 94.4723 93.7279 94.9126 92.6379C95.1461 92.0492 95.5318 91.3997 96.1611 91.3489C95.6942 90.318 95.5238 89.1774 95.6691 88.0551C95.8143 86.9328 96.2693 85.8731 96.9832 84.995C97.675 84.0983 98.6468 83.4588 99.744 83.1782C100.923 83.0741 102.108 83.0741 103.286 83.1782C103.832 82.3908 104.556 81.7433 105.399 81.2883C106.242 80.8333 107.18 80.5836 108.138 80.5594C108.888 80.6351 109.603 80.9105 110.21 81.3568C110.817 81.8031 111.293 82.404 111.589 83.0969C112.898 82.8325 114.248 82.8533 115.548 83.1579C116.208 83.3108 116.825 83.6112 117.352 84.0366C117.879 84.462 118.303 85.0014 118.593 85.6142C118.851 86.2287 118.9 86.911 118.734 87.5564C118.567 88.2018 118.193 88.7746 117.669 89.1869C118.441 89.2746 119.156 89.6381 119.682 90.2106C120.208 90.783 120.509 91.526 120.531 92.303C120.509 93.0816 120.255 93.8358 119.801 94.4688C119.347 95.1018 118.714 95.5847 117.984 95.8555C117.772 95.9133 117.577 96.0212 117.415 96.1702C117.271 96.3963 117.184 96.654 117.161 96.9213C116.979 97.7637 116.228 98.1799 115.903 98.9513C115.523 100.035 115.234 101.149 115.04 102.28C114.758 103.35 114.419 104.404 114.025 105.437C113.719 106.654 113.283 107.835 112.726 108.959C112.127 109.883 111.386 109.974 110.432 110.329C110.117 110.421 109.884 110.522 109.62 110.614Z" fill="white"/>
<path d="M104.657 112.248C104.174 112.248 103.693 112.214 103.215 112.146C102.131 112.065 101.101 111.642 100.272 110.938C99.9333 110.624 99.6733 110.234 99.5128 109.8C99.3524 109.366 99.296 108.901 99.3483 108.442C98.3688 108.34 97.4598 107.885 96.7905 107.163C96.016 106.303 95.4866 105.252 95.2578 104.118C95.0635 103.471 95.0047 102.791 95.0851 102.12C95.1654 101.45 95.3831 100.803 95.7247 100.22C95.203 100.02 94.7292 99.712 94.334 99.3168C93.9389 98.9216 93.6312 98.4478 93.4308 97.9261C93.2649 97.2596 93.2649 96.5626 93.4308 95.8961C93.6626 94.7138 94.0024 93.5552 94.4458 92.435C94.6273 91.8751 94.9829 91.3879 95.4608 91.0444C95.0662 89.9795 94.9523 88.8309 95.1301 87.7093C95.3079 86.5876 95.7713 85.5305 96.4758 84.6398C97.2355 83.6419 98.3075 82.9273 99.5208 82.6098C100.662 82.5143 101.81 82.5143 102.952 82.6098C103.555 81.8153 104.333 81.1697 105.225 80.7228C106.117 80.2759 107.1 80.0394 108.098 80.0317C108.869 80.1099 109.61 80.3767 110.254 80.8086C110.898 81.2405 111.427 81.8242 111.792 82.5083C113.056 82.2844 114.353 82.3293 115.598 82.6402C116.322 82.821 116.996 83.1621 117.571 83.6381C118.145 84.1142 118.605 84.7132 118.917 85.3909C119.15 85.9549 119.237 86.568 119.171 87.1743C119.106 87.7806 118.889 88.3609 118.542 88.8622C119.22 89.1416 119.804 89.6113 120.221 90.2145C120.639 90.8178 120.874 91.529 120.897 92.2624C120.884 93.1501 120.603 94.0131 120.09 94.7378C119.577 95.4625 118.857 96.015 118.024 96.3224C117.893 96.3566 117.769 96.4151 117.659 96.495C117.598 96.6004 117.564 96.7186 117.557 96.8401V97.0228C117.416 97.5484 117.14 98.0278 116.756 98.4133C116.559 98.6231 116.391 98.8587 116.258 99.1137C116.001 99.7994 115.817 100.51 115.71 101.235C115.629 101.621 115.548 101.996 115.456 102.352C115.174 103.434 114.835 104.502 114.441 105.549C114.299 105.934 114.177 106.33 114.066 106.736C113.851 107.594 113.509 108.415 113.051 109.172C112.612 109.836 111.937 110.307 111.163 110.492L110.534 110.735L109.803 111.05C108.182 111.781 106.434 112.188 104.657 112.248V112.248ZM100.049 107.396C100.131 107.395 100.213 107.415 100.286 107.454C100.358 107.493 100.42 107.55 100.465 107.619C100.514 107.7 100.54 107.793 100.54 107.888C100.54 107.983 100.514 108.076 100.465 108.157C100.321 108.502 100.288 108.883 100.372 109.247C100.455 109.612 100.651 109.94 100.932 110.187C101.613 110.742 102.45 111.072 103.327 111.131C105.412 111.354 107.518 111.003 109.417 110.116L110.128 109.822C110.371 109.71 110.605 109.629 110.828 109.548C111.386 109.433 111.877 109.105 112.198 108.634C112.584 107.955 112.871 107.223 113.051 106.462C113.173 106.036 113.294 105.61 113.447 105.204C113.836 104.207 114.175 103.19 114.462 102.159C114.543 101.824 114.614 101.458 114.695 101.144C114.822 100.337 115.04 99.5469 115.345 98.7889C115.516 98.4487 115.735 98.1343 115.994 97.8551C116.266 97.5943 116.468 97.2698 116.583 96.9111V96.7589C116.621 96.4524 116.74 96.1615 116.928 95.9164C117.124 95.7232 117.365 95.5804 117.628 95.5003C118.275 95.2686 118.838 94.8492 119.244 94.296C119.651 93.7427 119.884 93.0806 119.912 92.3944C119.897 91.7448 119.647 91.1228 119.208 90.6433C118.77 90.1638 118.173 89.8592 117.527 89.7858C117.422 89.7755 117.324 89.7337 117.243 89.666C117.163 89.5982 117.106 89.5077 117.078 89.4064C117.051 89.3051 117.054 89.1979 117.089 89.0988C117.124 88.9998 117.188 88.9138 117.273 88.852C117.701 88.5072 118.005 88.0323 118.138 87.4993C118.272 86.9663 118.228 86.4043 118.014 85.8984C117.759 85.3645 117.388 84.8943 116.928 84.5221C116.467 84.1498 115.93 83.8849 115.355 83.7466C114.127 83.4458 112.847 83.425 111.609 83.6857C111.497 83.7055 111.381 83.6861 111.281 83.6307C111.182 83.5752 111.104 83.4871 111.061 83.3812C110.8 82.7714 110.38 82.2433 109.844 81.8521C109.308 81.461 108.677 81.2214 108.016 81.1583C107.151 81.1923 106.306 81.4251 105.545 81.8388C104.785 82.2524 104.13 82.8358 103.632 83.5436V83.5436C103.565 83.6459 103.463 83.7207 103.346 83.7543C103.228 83.7878 103.103 83.7779 102.992 83.7263C101.921 83.66 100.846 83.66 99.7746 83.7263C98.8465 83.984 98.0273 84.5361 97.4401 85.2995C96.79 86.1116 96.3784 87.0882 96.2512 88.1206C96.1239 89.1529 96.286 90.2003 96.7194 91.1459C96.7594 91.2191 96.7803 91.3011 96.7803 91.3844C96.7803 91.4678 96.7594 91.5498 96.7194 91.623C96.6793 91.6966 96.6209 91.7587 96.5497 91.8032C96.4786 91.8476 96.3972 91.873 96.3134 91.8767C95.9582 91.8767 95.6841 92.4147 95.5116 92.8917C95.0691 93.953 94.7292 95.0543 94.4966 96.1803C94.3801 96.6811 94.3801 97.202 94.4966 97.7028C94.7706 98.6366 95.8465 99.1949 96.8412 99.6415C96.9187 99.6759 96.9864 99.7292 97.038 99.7965C97.0896 99.8638 97.1235 99.943 97.1366 100.027C97.1498 100.111 97.1417 100.196 97.1131 100.276C97.0846 100.356 97.0364 100.427 96.9732 100.484C95.9582 101.438 96.1815 103.194 96.3439 103.894C96.5202 104.867 96.9589 105.772 97.6126 106.513C97.9151 106.855 98.2952 107.119 98.7208 107.283C99.1464 107.447 99.6053 107.507 100.059 107.457L100.049 107.396Z" fill="#231F20"/>
<path d="M117.862 96.8604C117.862 96.8604 122.429 99.9054 122.226 100.991C122.023 102.077 119.872 102.351 119.872 102.351" fill="white"/>
<path d="M119.871 102.859C119.737 102.867 119.605 102.821 119.504 102.732C119.403 102.642 119.342 102.517 119.334 102.382C119.325 102.247 119.371 102.115 119.461 102.014C119.55 101.913 119.676 101.852 119.811 101.844C120.531 101.763 121.638 101.408 121.729 100.9C121.82 100.393 119.77 98.728 117.578 97.2867C117.465 97.2127 117.386 97.0967 117.358 96.9645C117.33 96.8322 117.356 96.6943 117.43 96.5813C117.504 96.4682 117.62 96.3892 117.753 96.3616C117.885 96.334 118.023 96.3601 118.136 96.4341C119.953 97.6318 122.957 99.8242 122.734 101.083C122.47 102.534 120.186 102.829 119.932 102.859H119.871Z" fill="#231F20"/>
<path d="M113.051 88.04C113.376 88.0794 113.68 88.2258 113.913 88.4562C114.778 89.247 115.49 90.1896 116.014 91.2373C117.107 93.2594 118.074 95.3476 118.907 97.4897C120.074 100.291 121.181 103.123 122.216 105.965C122.886 107.782 118.319 109.771 117.283 109.588L120.988 116.277C120.988 116.277 119.049 117.82 114.614 117.688C110.178 117.556 109.782 116.673 109.782 116.673L106.636 108.472C106.636 108.472 109.681 107.203 109.924 102.829C109.854 102.062 109.854 101.291 109.924 100.525C110.138 99.7227 110.818 99.2862 110.838 98.3524C110.826 97.9227 110.716 97.5015 110.515 97.1213C110.314 96.7411 110.029 96.4122 109.681 96.16C109.529 96.0382 109.346 95.9063 109.366 95.7134C109.394 95.6063 109.454 95.5104 109.539 95.4394C109.737 95.1971 109.886 94.9176 109.976 94.6174C110.066 94.3171 110.095 94.002 110.062 93.6903C110.029 93.3787 109.934 93.0767 109.783 92.8019C109.633 92.5272 109.429 92.2851 109.184 92.0899C110.341 91.5925 110.615 90.0599 110.726 88.852C110.726 89.2479 112.574 88.1618 112.604 88.1517C112.745 88.0884 112.896 88.0506 113.051 88.04V88.04Z" fill="white"/>
<path d="M115.152 118.216H114.604C110.32 118.084 109.529 117.272 109.326 116.927L106.169 108.695C106.144 108.635 106.132 108.57 106.132 108.504C106.132 108.439 106.146 108.374 106.171 108.313C106.197 108.253 106.234 108.198 106.28 108.152C106.327 108.106 106.382 108.07 106.443 108.046C106.555 108.046 109.194 106.817 109.417 102.849C109.44 102.565 109.44 102.28 109.417 101.996C109.32 101.48 109.32 100.95 109.417 100.433C109.525 100.071 109.689 99.7285 109.904 99.4181C110.133 99.1249 110.273 98.773 110.31 98.4031C110.314 98.049 110.234 97.6991 110.077 97.3817C109.92 97.0642 109.69 96.7883 109.407 96.5761C109.273 96.5178 109.155 96.4265 109.065 96.3109C108.976 96.1952 108.916 96.0588 108.893 95.9143C108.87 95.7697 108.883 95.6216 108.932 95.4837C108.981 95.3457 109.064 95.2222 109.173 95.1247C109.329 94.9371 109.446 94.7206 109.517 94.4877C109.588 94.2548 109.613 94.0101 109.589 93.7676C109.566 93.5252 109.494 93.2898 109.379 93.075C109.265 92.8602 109.108 92.6703 108.92 92.5161C108.846 92.4643 108.787 92.3937 108.75 92.3116C108.712 92.2296 108.697 92.139 108.707 92.0492C108.717 91.9596 108.751 91.8743 108.805 91.8015C108.858 91.7286 108.929 91.6706 109.011 91.6331C109.925 91.2474 110.158 89.9279 110.249 88.8215C110.262 88.6859 110.328 88.5608 110.433 88.4734C110.537 88.386 110.672 88.3433 110.808 88.3546H110.98C111.44 88.1777 111.885 87.9638 112.31 87.7152L112.472 87.634C112.668 87.5659 112.874 87.5282 113.081 87.5223C113.522 87.5587 113.938 87.7449 114.259 88.0501C115.176 88.8767 115.93 89.8683 116.481 90.9733C117.489 92.8125 118.377 94.7144 119.141 96.6675L119.405 97.2866C120.572 100.078 121.688 102.94 122.724 105.782C122.833 106.113 122.847 106.468 122.762 106.806C122.678 107.143 122.499 107.45 122.247 107.69C121.113 108.828 119.687 109.629 118.126 110.005L121.455 116.013C121.516 116.118 121.537 116.242 121.514 116.361C121.492 116.48 121.428 116.587 121.333 116.663C121.221 116.754 119.323 118.216 115.152 118.216ZM110.219 116.46C110.381 116.572 111.234 117.11 114.634 117.211C116.588 117.359 118.547 116.984 120.308 116.125L116.837 109.862C116.787 109.781 116.761 109.688 116.761 109.594C116.761 109.499 116.787 109.406 116.837 109.325C116.895 109.248 116.973 109.189 117.063 109.154C117.152 109.118 117.249 109.107 117.344 109.122C118.878 108.89 120.299 108.18 121.404 107.092C121.531 106.982 121.625 106.84 121.679 106.681C121.732 106.522 121.743 106.352 121.709 106.188C120.694 103.356 119.557 100.514 118.39 97.7231L118.136 97.1141C117.387 95.1994 116.515 93.3347 115.527 91.5316C115.041 90.537 114.373 89.642 113.558 88.8926C113.264 88.6591 113.132 88.5881 113 88.5881C112.912 88.5772 112.824 88.5772 112.736 88.5881C112.234 88.8925 111.704 89.1474 111.153 89.3493C111.107 90.3926 110.685 91.3841 109.965 92.1406C110.283 92.5635 110.48 93.0655 110.534 93.592C110.581 93.9653 110.551 94.3442 110.446 94.7055C110.341 95.0668 110.164 95.4028 109.925 95.6931C110.334 96.0024 110.665 96.403 110.892 96.8629C111.12 97.3227 111.237 97.8293 111.234 98.3422C111.209 98.9123 111.011 99.4612 110.665 99.9155C110.508 100.143 110.384 100.393 110.3 100.656C110.239 101.047 110.239 101.444 110.3 101.834C110.35 102.17 110.37 102.509 110.361 102.849C110.363 104.009 110.075 105.151 109.524 106.172C108.973 107.193 108.175 108.06 107.204 108.695L110.219 116.46Z" fill="#231F20"/>
<path d="M121.262 103.935C120.56 104.417 119.71 104.633 118.863 104.544C118.016 104.455 117.229 104.066 116.644 103.448" fill="white"/>
<path d="M119.283 105.072C118.165 105.051 117.098 104.605 116.299 103.823C116.251 103.776 116.213 103.72 116.188 103.658C116.162 103.596 116.149 103.53 116.149 103.463C116.149 103.396 116.162 103.33 116.188 103.268C116.213 103.206 116.251 103.15 116.299 103.103C116.346 103.055 116.402 103.017 116.464 102.992C116.526 102.966 116.592 102.953 116.659 102.953C116.726 102.953 116.792 102.966 116.854 102.992C116.916 103.017 116.972 103.055 117.019 103.103C117.515 103.644 118.189 103.989 118.918 104.073C119.648 104.157 120.383 103.974 120.988 103.559C121.096 103.477 121.232 103.441 121.366 103.459C121.5 103.477 121.621 103.548 121.704 103.656C121.786 103.763 121.822 103.899 121.804 104.034C121.785 104.168 121.715 104.289 121.607 104.371C120.926 104.846 120.112 105.091 119.283 105.072V105.072Z" fill="#231F20"/>
<path d="M113.274 100.941C112.89 100.272 112.328 99.7241 111.65 99.3572C111.181 98.9977 110.656 98.7166 110.097 98.5249C109.818 98.4307 109.522 98.3982 109.229 98.4297C108.937 98.4613 108.654 98.5561 108.402 98.7076C108.194 98.8662 108.022 99.0664 107.896 99.2954C107.771 99.5243 107.694 99.777 107.671 100.037C107.64 100.56 107.723 101.083 107.915 101.57C108.322 102.644 109.006 103.592 109.897 104.317C110.788 105.043 111.855 105.52 112.99 105.701L112.767 105.599" fill="white"/>
<path d="M112.97 106.208H112.899C111.682 106.001 110.54 105.48 109.586 104.697C108.632 103.913 107.899 102.895 107.458 101.742C107.236 101.185 107.146 100.584 107.194 99.9865C107.218 99.6532 107.313 99.3289 107.475 99.0362C107.636 98.7435 107.859 98.4894 108.128 98.2915C108.442 98.0898 108.799 97.9621 109.17 97.9181C109.541 97.8742 109.917 97.9151 110.27 98.0377C110.872 98.2508 111.44 98.5518 111.955 98.9309C112.704 99.3537 113.322 99.9754 113.741 100.727C113.768 100.789 113.782 100.855 113.784 100.922C113.785 100.989 113.773 101.055 113.748 101.117C113.724 101.18 113.687 101.236 113.641 101.284C113.594 101.333 113.539 101.371 113.477 101.397C113.417 101.426 113.351 101.442 113.284 101.445C113.217 101.447 113.151 101.437 113.088 101.413C113.026 101.389 112.969 101.353 112.92 101.307C112.872 101.261 112.833 101.205 112.807 101.144C112.466 100.567 111.975 100.093 111.386 99.7734C110.958 99.4476 110.482 99.1908 109.975 99.0121C109.769 98.936 109.548 98.9065 109.328 98.9258C109.109 98.9451 108.897 99.0127 108.707 99.1238C108.553 99.246 108.429 99.4001 108.341 99.5754C108.253 99.7506 108.205 99.9429 108.199 100.139C108.17 100.586 108.243 101.033 108.412 101.448C108.758 102.36 109.32 103.175 110.051 103.822C110.781 104.469 111.657 104.929 112.604 105.163C112.716 105.123 112.838 105.123 112.949 105.163L113.173 105.265C113.307 105.291 113.426 105.371 113.502 105.485C113.578 105.599 113.605 105.739 113.579 105.874C113.552 106.008 113.472 106.127 113.358 106.203C113.244 106.279 113.104 106.306 112.97 106.28V106.208Z" fill="#231F20"/>
<path d="M117.283 109.609C115.732 109.755 114.171 109.452 112.787 108.736C112.787 108.736 114.766 112.918 118.877 112.593L117.283 109.609Z" fill="#231F20"/>
<path d="M118.461 113.111C114.401 113.111 112.371 109.122 112.371 108.949C112.326 108.849 112.314 108.737 112.336 108.63C112.358 108.523 112.413 108.425 112.492 108.35C112.579 108.281 112.686 108.243 112.797 108.243C112.908 108.243 113.015 108.281 113.101 108.35C114.389 109.004 115.836 109.279 117.273 109.142C117.372 109.137 117.471 109.159 117.558 109.205C117.646 109.252 117.719 109.321 117.77 109.406L119.415 112.38C119.455 112.455 119.476 112.538 119.476 112.623C119.476 112.708 119.455 112.792 119.415 112.867C119.375 112.942 119.317 113.005 119.246 113.052C119.175 113.098 119.093 113.125 119.009 113.131C118.826 113.136 118.643 113.129 118.461 113.111V113.111ZM114.127 109.852C114.597 110.475 115.19 110.995 115.869 111.379C116.548 111.763 117.299 112.004 118.075 112.085L116.999 110.137C116.033 110.187 115.064 110.092 114.127 109.852V109.852Z" fill="#231F20"/>
<path d="M115.221 96.4177C115.441 96.3333 115.445 95.811 115.23 95.251C115.015 94.691 114.663 94.3054 114.443 94.3897C114.223 94.4741 114.219 94.9964 114.434 95.5564C114.649 96.1164 115.001 96.502 115.221 96.4177Z" fill="#231F20"/>
<path d="M124.5 113.415C123.221 112.613 108.97 109.923 105.479 116.298C101.987 122.672 99.9877 166.723 102.921 176.447L140.598 168.936C140.598 168.936 131.585 117.83 124.5 113.415Z" fill="#795548"/>
<path d="M125.535 132.05C125.535 132.05 135.35 140.333 144.465 137.623C153.58 134.913 165.059 118.683 165.059 118.683L158.969 111.263C158.969 111.263 152.717 122.55 145.145 122.621C137.573 122.692 124.5 113.415 124.5 113.415L125.535 132.05Z" fill="#795548"/>
<path d="M140.821 138.658C131.585 138.658 121.79 131.847 121.252 131.472C121.184 131.387 121.145 131.282 121.141 131.174C121.136 131.065 121.167 130.958 121.229 130.868C121.29 130.778 121.379 130.71 121.482 130.674C121.585 130.639 121.696 130.637 121.8 130.67C121.962 130.792 138.497 142.282 148.332 135.501C158.34 128.61 161.71 122.306 161.74 122.195C161.769 122.135 161.81 122.081 161.861 122.037C161.911 121.993 161.969 121.96 162.033 121.939C162.096 121.918 162.163 121.91 162.23 121.916C162.297 121.921 162.361 121.94 162.42 121.971C162.541 122.034 162.631 122.142 162.673 122.271C162.715 122.4 162.704 122.54 162.644 122.662C162.502 122.926 159.142 129.279 148.911 136.334C146.517 137.921 143.692 138.732 140.821 138.658V138.658Z" fill="#231F20"/>
<path d="M141.268 122.55H141.156C139.126 122.114 128.286 117.363 125.322 114.897C123.975 113.635 122.194 112.941 120.349 112.958C120.214 112.974 120.078 112.936 119.972 112.853C119.865 112.769 119.796 112.646 119.78 112.512C119.764 112.377 119.802 112.242 119.886 112.135C119.969 112.028 120.092 111.959 120.227 111.943C122.352 111.887 124.415 112.667 125.972 114.115C128.834 116.49 139.562 121.22 141.369 121.565C141.435 121.577 141.498 121.603 141.554 121.64C141.61 121.677 141.658 121.725 141.695 121.78C141.732 121.836 141.757 121.899 141.769 121.965C141.781 122.031 141.78 122.099 141.765 122.164C141.738 122.275 141.674 122.374 141.583 122.444C141.493 122.514 141.382 122.551 141.268 122.55Z" fill="#231F20"/>
<path d="M148.109 94.2417C147.947 94.9913 147.835 95.7508 147.774 96.5153C147.738 96.7474 147.738 96.9835 147.774 97.2156C147.892 97.4995 148.09 97.7427 148.344 97.9158C148.599 98.0888 148.898 98.1841 149.205 98.19C150.11 98.248 151.015 98.0622 151.824 97.6521C154.026 96.769 158.188 93.8255 155.143 91.3083C152.829 89.4712 148.647 91.7143 148.109 94.2417Z" fill="white"/>
<path d="M149.57 98.7584H149.093C148.694 98.729 148.313 98.5823 147.996 98.3367C147.68 98.0911 147.444 97.7575 147.317 97.378C147.262 97.0896 147.262 96.7935 147.317 96.5051C147.377 95.7204 147.489 94.9406 147.652 94.1706C147.924 93.3032 148.402 92.5147 149.045 91.8729C149.689 91.2312 150.478 90.7553 151.347 90.4861C152.016 90.203 152.747 90.1 153.468 90.1872C154.189 90.2745 154.875 90.549 155.457 90.9835C155.894 91.2812 156.241 91.6934 156.459 92.175C156.678 92.6566 156.76 93.1889 156.696 93.7138C156.381 95.7438 153.722 97.4998 152.016 98.19C151.245 98.5329 150.414 98.7258 149.57 98.7584V98.7584ZM153.042 91.156C152.564 91.1648 152.091 91.2505 151.641 91.4098C150.94 91.6269 150.299 92.0053 149.77 92.5147C149.241 93.0241 148.839 93.6503 148.596 94.3431V94.3431C148.442 95.0733 148.334 95.8123 148.271 96.5558C148.245 96.7308 148.245 96.9087 148.271 97.0836C148.354 97.2651 148.485 97.4205 148.649 97.5332C148.814 97.6459 149.006 97.7115 149.205 97.7231C150.024 97.7585 150.838 97.5838 151.57 97.2156C153.113 96.5964 155.386 95.0435 155.63 93.5311C155.665 93.1803 155.601 92.8266 155.447 92.5095C155.293 92.1924 155.054 91.9242 154.757 91.7346C154.27 91.3478 153.663 91.1432 153.042 91.156V91.156Z" fill="#231F20"/>
<path d="M143.663 229.795C143.663 229.795 138.233 234.728 138.517 235.367C138.801 236.007 149.733 249.73 151.093 248.298C152.453 246.867 149.885 236.311 149.885 236.311L143.663 229.795Z" fill="#5D4037"/>
<path d="M150.829 248.917H150.626C148.007 248.471 138.375 236.311 138.06 235.601C137.908 235.256 137.624 234.586 143.328 229.44C143.421 229.347 143.547 229.295 143.678 229.295C143.81 229.295 143.935 229.347 144.029 229.44L150.25 235.946C150.311 236.012 150.352 236.092 150.372 236.179C150.991 238.717 152.9 247.131 151.458 248.643C151.378 248.73 151.281 248.799 151.172 248.847C151.064 248.894 150.947 248.918 150.829 248.917ZM139.055 235.276C140.07 236.93 149.032 247.73 150.768 247.902C151.408 246.959 150.585 241.376 149.418 236.565L143.643 230.475C141.966 231.927 140.429 233.534 139.055 235.276Z" fill="#231F20"/>
<path d="M73.5774 229.967C73.5774 229.967 66.5232 230.922 65.9548 232.343C65.3864 233.764 67.4773 249.872 68.9084 249.598C70.3396 249.324 74.3387 239.021 74.3387 239.021L73.5774 229.967Z" fill="#5D4037"/>
<path d="M68.8678 250.105C68.7396 250.099 68.6145 250.064 68.5019 250.003C68.3893 249.941 68.2923 249.855 68.2182 249.75C66.7465 247.994 64.8382 233.784 65.4878 232.16C66.1374 230.536 71.7809 229.693 73.5064 229.46C73.5752 229.451 73.645 229.457 73.7117 229.476C73.7784 229.495 73.8405 229.527 73.8945 229.571C73.9484 229.614 73.9931 229.668 74.0258 229.73C74.0585 229.791 74.0786 229.858 74.0849 229.927L74.8462 238.97C74.856 239.048 74.856 239.126 74.8462 239.204C73.6079 242.371 70.573 249.78 69.0403 250.085L68.8678 250.105ZM73.0801 230.505C69.9539 230.972 66.645 231.845 66.3811 232.535C65.6706 234.454 68.0355 247.517 68.8881 249.009C69.7712 248.268 72.0549 243.365 73.7804 238.94L73.0801 230.505Z" fill="#231F20"/>
</svg>
