<svg width="291" height="220" viewBox="0 0 291 220" fill="none" xmlns="http://www.w3.org/2000/svg">
<path d="M69.89 80.3519C69.89 80.3519 92.8899 79.6819 98.1577 59.0369L81.7046 58.0219L57.8419 76.8806L69.89 80.3519Z" fill="#795548"/>
<path d="M24.1541 184.775L15.5774 186.967L16.3386 196.011L26.6307 194.874L24.1541 184.775Z" fill="white"/>
<path d="M16.3386 196.519C16.2117 196.522 16.0885 196.476 15.9941 196.391C15.8998 196.306 15.8414 196.188 15.8311 196.062L15.08 187.008C15.0708 186.889 15.1032 186.77 15.1717 186.672C15.2402 186.574 15.3405 186.503 15.4556 186.47L24.0323 184.288C24.0965 184.268 24.1641 184.262 24.2307 184.271C24.2973 184.28 24.3612 184.303 24.418 184.339C24.4766 184.372 24.5276 184.417 24.5678 184.471C24.608 184.526 24.6365 184.588 24.6515 184.653L27.1281 194.752C27.1473 194.821 27.151 194.893 27.1387 194.964C27.1264 195.034 27.0985 195.1 27.057 195.158C27.015 195.218 26.9606 195.268 26.8976 195.305C26.8345 195.342 26.7643 195.364 26.6916 195.372L16.3995 196.519H16.3386ZM16.1153 187.384L16.7954 195.504L25.9913 194.489L23.7786 185.455L16.1153 187.384Z" fill="#231F20"/>
<path d="M260.213 22.3142C260.213 22.3142 257.848 17.97 254.123 11.9713C254.123 11.9713 242.115 20.9338 242.217 20.4364C242.318 19.9391 260.213 22.3142 260.213 22.3142Z" fill="#231F20"/>
<path d="M260.203 22.8217H260.142C253.828 21.9792 243.516 20.7308 242.399 20.883C242.105 21.0048 242.014 20.9439 241.912 20.883C241.823 20.8258 241.752 20.7429 241.711 20.6451C241.669 20.5473 241.658 20.4392 241.679 20.3349C241.679 20.1928 241.74 20.0507 242.064 19.9695C242.765 19.6955 249.616 14.6712 253.778 11.5653C253.833 11.5231 253.898 11.4931 253.966 11.4774C254.034 11.4617 254.105 11.4605 254.173 11.474C254.31 11.5023 254.43 11.5823 254.508 11.6973C258.244 17.6452 260.598 22.03 260.649 22.0706C260.691 22.148 260.713 22.2351 260.711 22.3233C260.71 22.4115 260.685 22.4977 260.64 22.5736C260.595 22.6494 260.531 22.7121 260.454 22.7557C260.378 22.7992 260.291 22.8219 260.203 22.8217ZM243.963 19.9391C246.175 20.0609 250.54 20.5379 259.188 21.6849C258.345 20.1725 256.447 16.8535 253.849 12.7123C248.53 16.7723 245.587 18.8733 244.003 19.9391H243.963Z" fill="#231F20"/>
<path d="M101.243 203.339L95.2549 193.352L103.537 185.861L101.243 203.339Z" fill="#231F20"/>
<path d="M101.243 203.847C101.156 203.847 101.07 203.825 100.993 203.783C100.917 203.74 100.853 203.678 100.807 203.603L94.8185 193.616C94.7589 193.515 94.7356 193.396 94.7522 193.28C94.7687 193.164 94.8243 193.057 94.9098 192.976L103.202 185.486C103.277 185.415 103.373 185.37 103.475 185.358C103.577 185.345 103.681 185.365 103.771 185.414C103.864 185.462 103.941 185.537 103.99 185.63C104.039 185.722 104.058 185.828 104.045 185.932L101.741 203.38C101.731 203.486 101.688 203.586 101.616 203.665C101.545 203.744 101.45 203.797 101.345 203.816L101.243 203.847ZM95.9045 193.453L100.98 201.827L102.908 187.16L95.9045 193.453Z" fill="#231F20"/>
<path d="M105.131 205.41L201.556 219.143C203.533 219.401 205.537 218.947 207.211 217.863C208.884 216.779 210.118 215.135 210.691 213.226L260.578 26.567C261.593 22.6999 259.127 19.2996 255.036 18.9647L156.723 11.0375C154.779 10.9433 152.859 11.5042 151.271 12.6304C149.682 13.7566 148.518 15.383 147.964 17.2493L100.086 197.737C99.8377 198.575 99.7752 199.458 99.9031 200.323C100.031 201.188 100.346 202.014 100.826 202.745C101.307 203.476 101.941 204.093 102.684 204.553C103.428 205.013 104.263 205.306 105.131 205.41Z" fill="#231F20"/>
<path d="M202.622 219.762C202.231 219.761 201.841 219.734 201.454 219.681L105.029 205.938C104.099 205.822 103.204 205.507 102.405 205.015C101.607 204.523 100.923 203.865 100.401 203.086C99.8783 202.285 99.5344 201.381 99.3925 200.435C99.2506 199.489 99.3142 198.524 99.5788 197.605L147.446 17.1478C148.032 15.1654 149.265 13.4363 150.948 12.2367C152.632 11.0372 154.668 10.4363 156.733 10.53L255.046 18.4572C256.044 18.5145 257.016 18.7917 257.893 19.269C258.771 19.7464 259.532 20.4119 260.121 21.218C260.667 22.0083 261.029 22.9105 261.182 23.8587C261.335 24.8069 261.274 25.7772 261.004 26.699L211.107 213.357C210.563 215.192 209.445 216.803 207.918 217.956C206.391 219.108 204.535 219.741 202.622 219.762ZM105.182 204.933L201.607 218.676C203.461 218.918 205.342 218.493 206.911 217.476C208.481 216.459 209.637 214.916 210.173 213.124L260.06 26.4757C260.291 25.6973 260.345 24.8776 260.221 24.0755C260.096 23.2734 259.795 22.509 259.34 21.8371C258.831 21.1465 258.174 20.5785 257.417 20.1746C256.66 19.7706 255.822 19.5411 254.965 19.5026L156.652 11.545C154.825 11.449 153.018 11.9732 151.526 13.0325C150.034 14.0919 148.943 15.6243 148.431 17.3813L100.574 197.869C100.351 198.65 100.297 199.469 100.416 200.272C100.535 201.076 100.824 201.845 101.264 202.527C101.711 203.186 102.293 203.741 102.973 204.156C103.652 204.571 104.412 204.836 105.202 204.933H105.182Z" fill="#231F20"/>
<path d="M98.8479 195.138L195.273 208.871C197.251 209.133 199.257 208.681 200.931 207.596C202.606 206.512 203.838 204.866 204.408 202.954L254.305 16.2952C255.32 12.428 252.854 9.02779 248.763 8.69284L150.44 0.765696C148.497 0.673817 146.58 1.23578 144.994 2.36181C143.408 3.48784 142.245 5.11294 141.691 6.97749L93.8135 187.434C93.5598 188.274 93.493 189.159 93.6177 190.027C93.7424 190.895 94.0557 191.725 94.5354 192.459C95.0152 193.194 95.6499 193.814 96.3949 194.277C97.1399 194.739 97.9771 195.033 98.8479 195.138Z" fill="white"/>
<path d="M196.339 209.47C195.952 209.468 195.565 209.441 195.182 209.389L98.7566 195.646C97.824 195.531 96.9271 195.217 96.1267 194.725C95.3263 194.233 94.6413 193.574 94.118 192.794C93.5973 191.992 93.2544 191.088 93.1126 190.142C92.9708 189.197 93.0333 188.232 93.2959 187.313L141.173 6.85571C141.758 4.87597 142.989 3.14965 144.672 1.95339C146.354 0.757124 148.389 0.160178 150.451 0.258207L248.774 8.18535C249.77 8.24405 250.742 8.5219 251.619 8.9991C252.497 9.47631 253.258 10.1411 253.849 10.9462C254.395 11.7364 254.756 12.639 254.907 13.5875C255.058 14.5361 254.995 15.5064 254.721 16.4272L204.885 203.086C204.333 204.925 203.204 206.538 201.665 207.688C200.126 208.837 198.259 209.462 196.339 209.47ZM149.821 1.25291C148.087 1.29227 146.41 1.88036 145.032 2.93266C143.653 3.98495 142.643 5.44728 142.148 7.10946L94.3007 187.566C94.0781 188.347 94.0245 189.167 94.1436 189.97C94.2626 190.773 94.5515 191.542 94.9909 192.225C95.4359 192.883 96.0167 193.439 96.6943 193.854C97.3718 194.269 98.1304 194.534 98.919 194.631L195.344 208.374C197.198 208.612 199.076 208.185 200.645 207.168C202.214 206.152 203.371 204.611 203.911 202.822L253.788 16.1734C254.019 15.3946 254.074 14.574 253.947 13.7714C253.821 12.9688 253.517 12.2047 253.057 11.5349C252.549 10.8456 251.893 10.2783 251.138 9.87443C250.383 9.47057 249.548 9.24028 248.692 9.20035L150.369 1.27321L149.821 1.25291Z" fill="#231F20"/>
<path d="M244.754 28.5767L144.097 19.8578L105.476 165.47L204.652 178.655L244.754 28.5767Z" fill="#E6E7E8"/>
<path d="M138.697 194.052L157.505 196.701C158.7 196.848 159.909 196.566 160.914 195.904C161.92 195.242 162.658 194.244 162.996 193.088L164.864 186.074C165.02 185.542 165.057 184.983 164.973 184.435C164.889 183.887 164.685 183.364 164.376 182.904C164.067 182.444 163.66 182.057 163.185 181.772C162.709 181.487 162.177 181.309 161.626 181.253L142.777 178.695C141.593 178.566 140.402 178.857 139.411 179.518C138.42 180.178 137.693 181.166 137.357 182.309L135.51 189.261C135.353 189.788 135.314 190.342 135.396 190.885C135.478 191.428 135.677 191.946 135.981 192.403C136.286 192.86 136.686 193.245 137.156 193.53C137.625 193.815 138.151 193.993 138.697 194.052Z" fill="white"/>
<path d="M158.195 197.29C157.957 197.293 157.72 197.276 157.485 197.239L138.677 194.6C138.059 194.53 137.464 194.326 136.934 194.003C136.404 193.679 135.951 193.243 135.606 192.726C135.262 192.209 135.035 191.622 134.941 191.008C134.848 190.394 134.889 189.766 135.063 189.17L136.921 182.217C137.288 180.956 138.089 179.864 139.183 179.136C140.277 178.408 141.593 178.09 142.899 178.238L161.747 180.786C162.373 180.859 162.975 181.066 163.513 181.394C164.051 181.721 164.512 182.162 164.864 182.684C165.206 183.204 165.432 183.791 165.527 184.406C165.621 185.02 165.582 185.648 165.412 186.247L163.483 193.23C163.151 194.383 162.459 195.399 161.507 196.13C160.555 196.861 159.395 197.267 158.195 197.29ZM138.819 193.595L157.627 196.234C158.699 196.367 159.784 196.115 160.688 195.522C161.591 194.928 162.255 194.034 162.56 192.997L164.427 185.983C164.562 185.524 164.595 185.041 164.525 184.568C164.455 184.095 164.283 183.643 164.021 183.242C163.745 182.842 163.387 182.506 162.97 182.255C162.554 182.005 162.088 181.847 161.605 181.791L142.767 179.243C141.705 179.121 140.633 179.378 139.742 179.968C138.851 180.559 138.197 181.445 137.895 182.471L136.048 189.434C135.913 189.891 135.88 190.372 135.951 190.844C136.022 191.315 136.196 191.765 136.461 192.162C136.725 192.559 137.073 192.893 137.48 193.141C137.888 193.388 138.345 193.544 138.819 193.595Z" fill="#E6E7E8"/>
<path d="M214.974 16.0618L186.219 13.6562C186.152 13.6511 186.087 13.6328 186.028 13.6025C185.968 13.5721 185.915 13.5302 185.872 13.4793C185.828 13.4284 185.795 13.3693 185.775 13.3056C185.754 13.2419 185.747 13.1748 185.752 13.1081C185.757 13.0418 185.776 12.9771 185.806 12.918C185.837 12.8589 185.879 12.8065 185.93 12.7639C185.981 12.7213 186.04 12.6894 186.104 12.6701C186.167 12.6507 186.234 12.6444 186.3 12.6514L215.035 15.0468C215.17 15.0468 215.299 15.1002 215.394 15.1954C215.489 15.2906 215.542 15.4197 215.542 15.5543C215.542 15.6889 215.489 15.818 215.394 15.9131C215.299 16.0083 215.17 16.0618 215.035 16.0618H214.974Z" fill="#E6E7E8"/>
<path d="M182.23 13.3213H182.179L178.373 13.0066C178.306 13.0015 178.241 12.9832 178.182 12.9529C178.122 12.9225 178.069 12.8806 178.026 12.8297C177.982 12.7788 177.949 12.7197 177.929 12.656C177.908 12.5923 177.901 12.5252 177.906 12.4585C177.911 12.3918 177.93 12.3267 177.96 12.2671C177.99 12.2075 178.032 12.1544 178.083 12.111C178.134 12.0676 178.193 12.0348 178.257 12.0143C178.321 11.9938 178.388 11.9861 178.454 11.9916L182.271 12.3164C182.405 12.3164 182.534 12.3699 182.63 12.4651C182.725 12.5602 182.778 12.6893 182.778 12.8239C182.778 12.9585 182.725 13.0876 182.63 13.1828C182.534 13.2779 182.405 13.3314 182.271 13.3314L182.23 13.3213Z" fill="#E6E7E8"/>
<path d="M208.752 98.835C208.669 98.8343 208.586 98.8136 208.512 98.7748C208.438 98.736 208.374 98.6801 208.326 98.6117L162.783 32.0683C162.707 31.9566 162.68 31.8195 162.705 31.6872C162.731 31.555 162.808 31.4383 162.92 31.3629C163.032 31.2875 163.169 31.2596 163.301 31.2853C163.433 31.311 163.55 31.3882 163.625 31.4999L209.168 97.9926C209.243 98.1032 209.271 98.2388 209.246 98.3698C209.221 98.5009 209.146 98.617 209.036 98.6929C208.959 98.7689 208.859 98.8186 208.752 98.835Z" fill="white"/>
<path d="M171.755 155.036C171.674 155.035 171.594 155.016 171.522 154.979C171.45 154.942 171.387 154.888 171.339 154.822L143.934 115.44C143.892 115.386 143.861 115.324 143.844 115.257C143.827 115.19 143.823 115.121 143.834 115.053C143.844 114.985 143.868 114.919 143.905 114.861C143.941 114.802 143.989 114.752 144.046 114.713C144.102 114.673 144.166 114.646 144.234 114.632C144.301 114.618 144.371 114.619 144.438 114.632C144.506 114.646 144.569 114.674 144.626 114.713C144.682 114.753 144.73 114.803 144.767 114.862L172.172 154.234C172.211 154.288 172.238 154.35 172.253 154.415C172.268 154.481 172.27 154.548 172.259 154.614C172.247 154.68 172.223 154.744 172.187 154.8C172.151 154.857 172.105 154.906 172.05 154.944C171.963 155.003 171.86 155.035 171.755 155.036Z" fill="white"/>
<path d="M179.266 117.734C179.183 117.734 179.1 117.713 179.026 117.674C178.952 117.635 178.888 117.579 178.84 117.511L168.132 101.586C168.058 101.472 168.031 101.334 168.058 101.201C168.084 101.069 168.162 100.951 168.274 100.875C168.386 100.802 168.522 100.775 168.653 100.802C168.785 100.829 168.9 100.906 168.974 101.017L179.683 116.943C179.721 116.997 179.748 117.058 179.762 117.123C179.776 117.188 179.777 117.255 179.764 117.321C179.752 117.386 179.727 117.448 179.69 117.503C179.653 117.559 179.606 117.606 179.551 117.643C179.467 117.701 179.368 117.732 179.266 117.734Z" fill="white"/>
<path d="M176.78 142.165C177.642 139.638 178.485 137.09 179.378 134.604C179.835 133.294 180.393 132.015 180.89 130.736C181.171 129.927 181.722 129.24 182.451 128.791C183.179 128.341 184.041 128.157 184.89 128.27C186.92 128.503 188.95 128.93 190.98 129.285C192.061 129.522 193.162 129.664 194.268 129.711C195.083 129.726 195.879 129.469 196.532 128.98C198.866 126.747 201.109 124.423 203.322 122.068C203.693 121.628 203.95 121.103 204.07 120.541C204.19 119.978 204.17 119.394 204.012 118.841C203.495 116.374 202.896 113.928 202.398 111.462C202.162 110.506 202.07 109.521 202.124 108.538C202.152 108.179 202.25 107.83 202.414 107.509C202.578 107.188 202.804 106.903 203.078 106.671C206.836 104.215 210.942 102.34 215.258 101.109C215.896 100.907 216.583 100.921 217.212 101.148C217.842 101.376 218.378 101.804 218.74 102.367C220.293 104.499 221.937 106.579 223.429 108.772C223.909 109.596 224.618 110.264 225.471 110.693C226.323 111.122 227.282 111.293 228.23 111.188C230.93 110.995 233.64 110.944 236.35 110.822C236.845 110.794 237.326 110.645 237.751 110.388C238.175 110.132 238.531 109.776 238.786 109.35C239.75 107.929 240.664 106.458 241.608 105.027C242.42 103.788 243.211 102.55 244.074 101.352C244.449 100.738 245.025 100.273 245.705 100.038C246.385 99.803 247.125 99.8118 247.799 100.063C251.545 101.352 255.28 102.682 258.964 104.123C259.667 104.4 260.253 104.91 260.623 105.568C260.993 106.227 261.124 106.993 260.994 107.737C260.791 109.767 260.324 111.857 259.979 113.918C259.827 114.933 259.675 115.867 259.604 116.851C259.525 117.48 259.598 118.118 259.815 118.712C260.032 119.307 260.388 119.842 260.852 120.272C262.811 122.139 264.811 123.966 266.709 125.895C267.256 126.484 267.953 126.912 268.727 127.132C269.5 127.352 270.318 127.356 271.094 127.143C273.773 126.565 276.422 125.915 279.102 125.337C279.979 125.041 280.936 125.098 281.771 125.496C282.607 125.894 283.255 126.601 283.578 127.468C285.101 130.655 286.569 133.869 287.983 137.111C288.998 139.465 288.643 140.826 286.603 142.439C285.232 143.525 283.751 144.469 282.34 145.484C281.325 146.236 280.31 147.027 279.386 147.849C278.98 148.185 278.656 148.609 278.439 149.09C278.223 149.57 278.12 150.094 278.138 150.62C278.209 153.412 278.249 156.213 278.381 159.014C278.401 159.775 278.618 160.517 279.011 161.169C279.404 161.82 279.96 162.358 280.624 162.729C282.147 163.643 283.669 164.526 285.222 165.46C286.173 166.023 287.091 166.64 287.973 167.307C288.624 167.73 289.105 168.369 289.332 169.111C289.558 169.854 289.516 170.653 289.211 171.367C287.98 174.75 286.725 178.113 285.446 181.456C285.222 181.966 284.943 182.449 284.613 182.897C284.31 183.44 283.844 183.873 283.282 184.137C282.719 184.401 282.088 184.482 281.477 184.369L274.22 183.08L273.672 182.989C272.656 182.715 271.582 182.755 270.589 183.102C269.596 183.45 268.732 184.09 268.109 184.937C266.739 186.551 265.196 187.982 263.725 189.556C263.038 190.226 262.548 191.071 262.309 192C262.069 192.928 262.088 193.905 262.365 194.824C262.963 197.178 263.542 199.533 264.029 201.929C264.516 204.324 264.029 205.522 261.745 206.638C258.457 208.215 255.124 209.714 251.748 211.135C251.001 211.541 250.128 211.648 249.306 211.433C248.483 211.218 247.774 210.697 247.322 209.978C246.023 208.333 244.835 206.608 243.617 204.902C241.009 201.238 240.359 200.903 235.863 201.137L230.615 201.431C229.779 201.442 228.96 201.669 228.238 202.091C227.516 202.513 226.915 203.114 226.494 203.837C225.429 205.603 224.404 207.399 223.287 209.125C222.691 210.023 222.011 210.862 221.257 211.632C220.927 212.025 220.483 212.305 219.986 212.432C219.489 212.56 218.964 212.528 218.486 212.342C214.944 211.023 211.381 209.724 207.879 208.384C207.399 208.173 206.943 207.911 206.519 207.602C205.973 207.302 205.535 206.837 205.268 206.275C205 205.712 204.916 205.079 205.027 204.466C205.413 202.071 205.819 199.675 206.194 197.28C206.306 196.549 206.377 195.808 206.418 195.077C206.486 194.478 206.411 193.871 206.199 193.307C205.987 192.742 205.645 192.236 205.2 191.829C203.271 190.063 201.363 188.267 199.465 186.48C198.922 185.953 198.248 185.58 197.513 185.402C196.777 185.223 196.007 185.245 195.283 185.465C192.928 186.044 190.553 186.561 188.178 187.11C188.091 187.135 188.003 187.155 187.914 187.17C184.819 187.739 183.854 187.333 182.474 184.491C180.982 181.324 179.622 178.096 178.302 174.848C177.5 172.818 177.845 171.732 179.581 170.423C181.317 169.114 183.387 167.591 185.377 166.363C186.343 165.811 187.128 164.989 187.633 163.997C188.138 163.005 188.341 161.887 188.219 160.78C188.046 158.263 187.975 155.705 187.843 153.219C187.839 152.692 187.702 152.175 187.445 151.715C187.188 151.256 186.818 150.869 186.371 150.59C184.281 149.24 182.159 147.931 180.078 146.581C178.708 145.687 177.318 144.804 176.759 143.13L176.78 142.165ZM256.965 156.233C256.962 153.077 256.335 149.952 255.119 147.04C253.904 144.127 252.124 141.483 249.882 139.261C247.641 137.039 244.981 135.283 242.058 134.094C239.134 132.904 236.004 132.305 232.848 132.33C221.815 132.33 209.28 141.962 209.29 156.304C209.343 162.58 211.859 168.584 216.296 173.022C220.732 177.461 226.735 179.979 233.011 180.035C248.378 180.106 257.604 166.84 256.955 156.233H256.965Z" fill="#795548"/>
<path d="M219.389 213.043C219.022 213.039 218.657 212.97 218.313 212.84L215.39 211.754L207.707 208.881C207.261 208.687 206.836 208.449 206.438 208.171L206.255 208.049C205.628 207.693 205.126 207.152 204.819 206.499C204.512 205.847 204.415 205.115 204.54 204.405L205.058 201.208C205.281 199.878 205.494 198.549 205.707 197.219C205.809 196.59 205.87 195.899 205.92 195.067C205.989 194.547 205.932 194.018 205.756 193.524C205.579 193.03 205.288 192.584 204.905 192.225C203.2 190.662 201.505 189.079 199.83 187.495L199.171 186.876C198.694 186.403 198.097 186.069 197.444 185.91C196.791 185.75 196.107 185.772 195.466 185.973C193.811 186.379 192.157 186.754 190.492 187.13L188.361 187.617L188.066 187.688C184.676 188.307 183.499 187.688 182.078 184.714C180.789 181.984 179.5 179 177.906 175.051C177.013 172.859 177.409 171.499 179.348 169.976C181.54 168.302 183.408 166.992 185.174 165.845C186.055 165.345 186.772 164.598 187.235 163.697C187.698 162.795 187.889 161.778 187.782 160.77C187.671 159.207 187.61 157.634 187.539 156.061C187.539 155.107 187.457 154.153 187.407 153.209C187.408 152.762 187.295 152.322 187.078 151.931C186.861 151.54 186.548 151.211 186.168 150.976C185.306 150.417 184.433 149.869 183.56 149.321L179.865 146.966C178.414 146.022 176.962 145.078 176.353 143.241C176.344 143.191 176.344 143.139 176.353 143.089V142.165C176.343 142.112 176.343 142.057 176.353 142.003L177.104 139.8C177.703 138.014 178.312 136.217 178.952 134.431C179.429 133.081 179.967 131.762 180.474 130.544C180.801 129.639 181.427 128.872 182.248 128.37C183.069 127.868 184.036 127.661 184.991 127.783C186.361 127.935 187.721 128.179 189.051 128.412L191.081 128.767L191.893 128.909C192.677 129.081 193.476 129.176 194.278 129.194C194.969 129.205 195.644 128.996 196.207 128.595C198.693 126.23 201.018 123.784 202.967 121.713C203.288 121.335 203.509 120.882 203.608 120.396C203.708 119.909 203.682 119.406 203.535 118.932C203.312 117.846 203.058 116.75 202.814 115.664C202.51 114.293 202.195 112.923 201.921 111.553C201.678 110.557 201.582 109.531 201.637 108.508C201.673 108.071 201.798 107.645 202.004 107.258C202.21 106.871 202.492 106.529 202.835 106.255C206.637 103.769 210.795 101.876 215.167 100.642C215.908 100.399 216.708 100.408 217.443 100.669C218.178 100.93 218.805 101.427 219.227 102.083C219.782 102.848 220.34 103.599 220.902 104.336C221.917 105.686 222.932 107.087 223.947 108.498C224.379 109.25 225.021 109.859 225.795 110.252C226.568 110.645 227.439 110.804 228.301 110.711C230.047 110.579 231.833 110.508 233.559 110.447L236.411 110.335C236.825 110.308 237.227 110.18 237.581 109.963C237.935 109.745 238.23 109.444 238.441 109.087C239.009 108.244 239.557 107.391 240.105 106.539L241.252 104.763L241.658 104.133C242.328 103.118 243.008 102.103 243.739 101.088C244.181 100.389 244.849 99.8622 245.632 99.5962C246.416 99.3302 247.267 99.3409 248.043 99.6267C252.549 101.18 256 102.428 259.208 103.687C260.014 104 260.687 104.582 261.113 105.335C261.538 106.088 261.69 106.966 261.542 107.818C261.41 109.208 261.157 110.599 260.903 111.949C260.781 112.639 260.649 113.339 260.537 114.03C260.395 114.943 260.243 115.928 260.162 116.922C260.088 117.481 260.149 118.048 260.34 118.578C260.53 119.108 260.845 119.584 261.258 119.967L262.638 121.267C264.131 122.667 265.683 124.119 267.135 125.601C267.622 126.129 268.246 126.512 268.937 126.708C269.629 126.903 270.361 126.903 271.053 126.707C272.352 126.423 273.651 126.128 274.94 125.824C276.229 125.519 277.681 125.195 279 124.9C279.993 124.57 281.075 124.636 282.021 125.084C282.966 125.532 283.702 126.328 284.075 127.306C285.598 130.493 287.12 133.741 288.491 136.969C289.597 139.526 289.191 141.14 286.958 142.896C286.146 143.546 285.273 144.155 284.431 144.743C283.852 145.149 283.263 145.555 282.685 145.982C281.619 146.784 280.655 147.545 279.762 148.316C279.411 148.604 279.132 148.97 278.945 149.383C278.758 149.797 278.67 150.248 278.686 150.702V152.437C278.686 154.619 278.787 156.873 278.889 159.075C278.906 159.757 279.103 160.421 279.46 161.002C279.816 161.583 280.319 162.06 280.919 162.384L282.867 163.531C283.75 164.049 284.644 164.546 285.527 165.115C286.494 165.69 287.429 166.317 288.328 166.992C289.051 167.481 289.584 168.204 289.839 169.039C290.094 169.873 290.055 170.77 289.729 171.58C288.582 174.747 287.344 178.046 285.953 181.73C285.746 182.23 285.48 182.704 285.161 183.141L285.07 183.08C284.711 183.704 284.169 184.201 283.516 184.504C282.864 184.808 282.134 184.902 281.426 184.775C279.772 184.511 278.117 184.227 276.463 183.953L273.966 183.537L273.57 183.476C272.644 183.222 271.662 183.255 270.756 183.573C269.849 183.89 269.061 184.476 268.495 185.252C267.531 186.399 266.465 187.485 265.45 188.531C265.003 188.987 264.557 189.434 264.12 189.891C263.496 190.502 263.051 191.273 262.834 192.119C262.617 192.966 262.638 193.856 262.892 194.692C263.461 196.945 264.059 199.371 264.557 201.797C265.125 204.578 264.496 205.857 261.999 207.064C258.954 208.506 255.716 209.978 251.981 211.571C251.131 212.02 250.144 212.134 249.215 211.892C248.285 211.65 247.479 211.068 246.957 210.262C245.881 208.902 244.876 207.481 243.912 206.09L243.262 205.177C240.745 201.634 240.217 201.401 235.944 201.624L232.96 201.786L230.686 201.918C229.934 201.924 229.196 202.127 228.546 202.506C227.896 202.886 227.357 203.428 226.982 204.08C226.626 204.669 226.271 205.258 225.967 205.846C225.276 207.014 224.556 208.222 223.805 209.379C223.199 210.305 222.502 211.169 221.724 211.957C221.438 212.297 221.08 212.571 220.677 212.759C220.274 212.946 219.834 213.043 219.389 213.043ZM196.592 184.806C197.797 184.805 198.953 185.279 199.81 186.125L200.47 186.744C202.155 188.317 203.84 189.901 205.545 191.464C206.045 191.922 206.431 192.491 206.671 193.126C206.911 193.761 206.998 194.443 206.925 195.118C206.925 195.981 206.803 196.701 206.702 197.361C206.489 198.701 206.265 200.031 206.052 201.36C205.88 202.375 205.697 203.492 205.535 204.557C205.437 205.074 205.508 205.608 205.736 206.081C205.964 206.554 206.339 206.941 206.803 207.186L206.986 207.308C207.317 207.55 207.675 207.755 208.052 207.917C210.61 208.932 213.178 209.835 215.735 210.79L218.659 211.876C219.045 212.025 219.469 212.049 219.87 211.943C220.271 211.837 220.629 211.608 220.892 211.287C221.621 210.543 222.277 209.731 222.85 208.861C223.591 207.714 224.302 206.516 224.982 205.359L226.048 203.583C226.511 202.789 227.17 202.128 227.963 201.664C228.756 201.2 229.656 200.949 230.575 200.934L232.838 200.812L235.832 200.64C240.481 200.406 241.313 200.812 244.023 204.618L244.683 205.542C245.647 206.912 246.652 208.323 247.728 209.653C248.111 210.287 248.725 210.748 249.441 210.937C250.157 211.126 250.919 211.03 251.565 210.668C255.28 209.084 258.548 207.623 261.532 206.171C263.562 205.156 264.009 204.334 263.562 202.03C263.116 199.726 262.476 197.199 261.908 194.925C261.612 193.923 261.594 192.859 261.855 191.848C262.116 190.836 262.646 189.914 263.39 189.18C263.826 188.723 264.283 188.267 264.729 187.81C265.744 186.795 266.81 185.709 267.774 184.592C268.459 183.668 269.406 182.971 270.492 182.593C271.579 182.214 272.754 182.172 273.864 182.471C273.964 182.498 274.066 182.515 274.169 182.522H274.382L276.706 182.907L281.66 183.74C282.176 183.834 282.709 183.763 283.183 183.537C283.656 183.311 284.047 182.942 284.299 182.481L284.38 182.349C284.655 181.977 284.886 181.576 285.07 181.152C286.45 177.518 287.689 174.219 288.836 171.062C289.09 170.454 289.122 169.775 288.925 169.146C288.728 168.517 288.315 167.977 287.76 167.622C286.894 166.966 285.993 166.36 285.06 165.805C284.187 165.267 283.294 164.79 282.411 164.231L280.462 163.085C279.727 162.669 279.111 162.07 278.676 161.346C278.24 160.622 277.999 159.798 277.975 158.953C277.874 156.731 277.823 154.467 277.772 152.285V150.549C277.754 149.948 277.873 149.351 278.119 148.803C278.365 148.254 278.732 147.769 279.193 147.382C280.117 146.591 281.091 145.809 282.177 144.997L283.953 143.739C284.786 143.16 285.638 142.561 286.43 141.932C288.308 140.45 288.592 139.344 287.658 137.202C286.258 133.984 284.776 130.747 283.263 127.57C283.13 127.189 282.923 126.838 282.653 126.538C282.384 126.238 282.057 125.994 281.693 125.822C281.328 125.649 280.933 125.55 280.53 125.531C280.127 125.513 279.724 125.574 279.345 125.712L275.285 126.646C273.986 126.94 272.687 127.245 271.378 127.529C270.519 127.761 269.613 127.754 268.758 127.509C267.903 127.264 267.131 126.79 266.526 126.139C265.074 124.667 263.542 123.236 262.06 121.835L260.669 120.536C260.151 120.051 259.754 119.451 259.511 118.785C259.267 118.118 259.184 117.404 259.269 116.699C259.35 115.684 259.502 114.669 259.654 113.725C259.769 113.048 259.891 112.348 260.02 111.624C260.263 110.294 260.517 108.924 260.649 107.564C260.748 106.94 260.635 106.301 260.328 105.749C260.02 105.196 259.537 104.764 258.954 104.519C255.736 103.281 252.296 102.042 247.789 100.459C247.218 100.247 246.591 100.242 246.016 100.444C245.441 100.646 244.955 101.043 244.643 101.565C243.932 102.58 243.252 103.595 242.613 104.61L242.196 105.24L241.06 107.006C240.511 107.869 239.953 108.731 239.385 109.574C239.082 110.064 238.666 110.474 238.171 110.769C237.677 111.064 237.118 111.236 236.543 111.269L233.681 111.38C231.965 111.441 230.189 111.512 228.453 111.634C227.414 111.748 226.365 111.559 225.43 111.091C224.496 110.623 223.716 109.895 223.185 108.995C222.231 107.594 221.155 106.204 220.191 104.864C219.633 104.113 219.065 103.362 218.516 102.601C218.208 102.129 217.752 101.772 217.219 101.589C216.686 101.405 216.107 101.404 215.573 101.586C211.298 102.798 207.232 104.653 203.515 107.087C203.095 107.475 202.837 108.008 202.794 108.579C202.743 109.511 202.832 110.445 203.058 111.35C203.332 112.71 203.637 114.08 203.951 115.41C204.195 116.506 204.438 117.602 204.672 118.699C204.851 119.331 204.869 119.998 204.726 120.64C204.582 121.281 204.281 121.877 203.85 122.373C201.891 124.464 199.546 126.92 197.049 129.305C196.304 129.884 195.384 130.192 194.441 130.178C193.571 130.162 192.704 130.064 191.852 129.884L191.061 129.742C190.37 129.63 189.67 129.508 188.98 129.376C187.671 129.143 186.321 128.909 184.991 128.757C184.254 128.654 183.503 128.812 182.869 129.203C182.236 129.594 181.758 130.194 181.52 130.899C181.012 132.107 180.505 133.406 180.017 134.736C179.388 136.522 178.779 138.308 178.17 140.095L177.45 142.216V142.967C177.967 144.419 179.195 145.21 180.495 146.012C181.794 146.814 182.981 147.606 184.22 148.387L186.828 150.052C187.346 150.375 187.773 150.823 188.071 151.356C188.37 151.888 188.528 152.487 188.533 153.097C188.584 154.112 188.625 155.015 188.665 155.969C188.736 157.532 188.797 159.096 188.909 160.649C189.049 161.85 188.836 163.066 188.295 164.148C187.754 165.23 186.909 166.13 185.864 166.739C184.108 167.875 182.271 169.175 180.099 170.799C178.536 171.986 178.272 172.889 178.982 174.635C180.576 178.573 181.865 181.537 183.144 184.257C184.423 186.978 185.092 187.191 188.036 186.653L190.411 186.105C192.066 185.729 193.72 185.364 195.364 184.958C195.767 184.864 196.179 184.813 196.592 184.806ZM233.061 180.583H233.011C226.621 180.49 220.522 177.895 216.024 173.355C211.526 168.815 208.988 162.693 208.955 156.302C208.921 149.911 211.396 143.762 215.846 139.176C220.297 134.589 226.368 131.931 232.757 131.772H232.848C236.075 131.738 239.277 132.346 242.267 133.56C245.257 134.775 247.976 136.571 250.267 138.845C252.557 141.119 254.372 143.825 255.607 146.807C256.842 149.788 257.473 152.986 257.462 156.213C257.542 159.295 257.005 162.361 255.883 165.232C254.76 168.103 253.075 170.72 250.925 172.93C248.636 175.368 245.867 177.306 242.793 178.623C239.719 179.94 236.406 180.607 233.061 180.583ZM232.757 132.787C226.697 132.963 220.939 135.476 216.689 139.8C214.507 141.949 212.774 144.51 211.591 147.335C210.407 150.159 209.798 153.191 209.798 156.254C209.797 162.422 212.239 168.34 216.588 172.715C220.938 177.089 226.842 179.564 233.011 179.599H233.061C236.264 179.62 239.437 178.983 242.383 177.725C245.329 176.468 247.984 174.618 250.184 172.291C254.447 167.764 256.782 161.785 256.447 156.294C256.461 153.198 255.858 150.131 254.675 147.27C253.492 144.409 251.752 141.812 249.556 139.631C247.36 137.449 244.752 135.725 241.884 134.561C239.015 133.396 235.944 132.814 232.848 132.848L232.757 132.787Z" fill="#231F20"/>
<path d="M198.734 62.5893C199.16 61.3307 199.577 60.0721 200.023 58.8135C200.257 58.1639 200.51 57.5245 200.784 56.885C200.926 56.4757 201.207 56.1289 201.578 55.9046C201.948 55.6803 202.386 55.5927 202.814 55.6569C203.829 55.7685 204.844 55.9817 205.859 56.1542C206.397 56.2701 206.944 56.3414 207.494 56.3674C207.902 56.3725 208.301 56.2442 208.63 56.002C209.798 54.8855 210.914 53.7182 212.02 52.5408C212.21 52.323 212.341 52.0607 212.401 51.7784C212.462 51.4962 212.449 51.2032 212.366 50.927C212.112 49.6988 211.807 48.4707 211.564 47.2425C211.446 46.7648 211.398 46.2725 211.422 45.7809C211.458 45.4208 211.628 45.0875 211.899 44.8471C213.779 43.6224 215.832 42.6851 217.989 42.066C218.308 41.9656 218.652 41.9728 218.968 42.0864C219.283 42.2001 219.552 42.414 219.734 42.6953C220.506 43.7103 221.328 44.8065 222.069 45.8926C222.309 46.3063 222.665 46.6415 223.091 46.8577C223.518 47.0738 223.999 47.1617 224.475 47.1106C225.824 47.0091 227.174 46.9888 228.535 46.9177C228.782 46.905 229.022 46.8317 229.235 46.7042C229.447 46.5768 229.625 46.3992 229.753 46.1869C230.24 45.4764 230.686 44.7456 231.163 44.025C231.64 43.3043 231.965 42.7867 232.402 42.1878C232.587 41.8806 232.875 41.6483 233.214 41.5314C233.554 41.4145 233.924 41.4206 234.259 41.5484C236.127 42.1878 237.994 42.8577 239.842 43.5784C240.192 43.7174 240.485 43.9728 240.67 44.3017C240.854 44.6307 240.92 45.0132 240.857 45.3851C240.755 46.4001 240.522 47.4151 240.349 48.4808C240.278 48.9579 240.197 49.4958 240.166 49.9424C240.129 50.2568 240.165 50.5757 240.273 50.8736C240.38 51.1714 240.556 51.44 240.786 51.6578C241.801 52.5814 242.816 53.4949 243.719 54.4592C243.991 54.7561 244.339 54.972 244.726 55.0831C245.113 55.1941 245.523 55.196 245.911 55.0885C247.241 54.7941 248.571 54.4693 249.91 54.1851C250.348 54.0349 250.827 54.0623 251.245 54.2616C251.662 54.4609 251.985 54.8161 252.143 55.2509C252.905 56.8444 253.646 58.4481 254.346 60.062C254.483 60.2807 254.574 60.525 254.614 60.78C254.653 61.035 254.64 61.2954 254.575 61.5453C254.511 61.7951 254.396 62.0292 254.238 62.2331C254.08 62.4371 253.882 62.6066 253.656 62.7314C252.976 63.2795 252.235 63.7464 251.524 64.2742C251.027 64.6498 250.509 65.0355 250.053 65.4516C249.848 65.617 249.686 65.8281 249.578 66.0679C249.471 66.3078 249.421 66.5695 249.433 66.832C249.433 68.2327 249.484 69.6334 249.545 71.0341C249.559 71.4141 249.67 71.7841 249.867 72.1091C250.064 72.4342 250.341 72.7035 250.672 72.8916C251.433 73.3483 252.204 73.7848 252.966 74.2517C253.443 74.5324 253.904 74.8408 254.346 75.1754C254.671 75.3874 254.911 75.7069 255.024 76.078C255.137 76.449 255.116 76.8481 254.965 77.2053C254.343 78.8902 253.713 80.5819 253.077 82.2803C252.966 82.5355 252.827 82.7773 252.661 83.001C252.511 83.2726 252.279 83.4903 251.999 83.6232C251.718 83.7561 251.403 83.7977 251.098 83.7419L247.464 83.1329H247.19C246.678 82.9989 246.138 83.0243 245.641 83.2056C245.144 83.387 244.714 83.7158 244.409 84.1479C243.719 84.9498 242.948 85.6806 242.217 86.452C241.873 86.7855 241.628 87.2072 241.508 87.671C241.388 88.1347 241.398 88.6225 241.537 89.0808C241.831 90.2582 242.125 91.4458 242.369 92.6333C242.464 92.8613 242.51 93.107 242.503 93.354C242.495 93.601 242.435 93.8436 242.327 94.0656C242.218 94.2875 242.063 94.4837 241.873 94.6411C241.682 94.7984 241.46 94.9133 241.222 94.978C239.578 95.7697 237.913 96.5208 236.228 97.2313C235.855 97.4358 235.418 97.4898 235.007 97.3822C234.595 97.2746 234.241 97.0136 234.016 96.6528C233.366 95.8306 232.767 94.9678 232.168 94.1254C230.859 92.2882 230.534 92.0954 228.291 92.2375L225.662 92.3897C225.25 92.3994 224.846 92.5145 224.491 92.7242C224.136 92.9339 223.84 93.2311 223.632 93.5874C223.104 94.4705 222.617 95.3637 222.039 96.2366C221.74 96.6838 221.4 97.1018 221.024 97.485C220.858 97.6826 220.635 97.8232 220.386 97.8869C220.136 97.9507 219.873 97.9344 219.633 97.8403L214.335 95.8103C214.095 95.7056 213.867 95.5763 213.655 95.4246C213.383 95.2716 213.166 95.038 213.033 94.7561C212.901 94.4742 212.859 94.158 212.914 93.8513C213.107 92.6536 213.31 91.4559 213.492 90.2582C213.55 89.8952 213.587 89.5292 213.604 89.162C213.639 88.8624 213.602 88.5588 213.496 88.2764C213.39 87.994 213.218 87.7409 212.995 87.538C212.031 86.655 211.087 85.7618 210.133 84.8686C209.862 84.6035 209.525 84.4157 209.158 84.3246C208.79 84.2336 208.405 84.2427 208.042 84.3509C206.864 84.6453 205.677 84.899 204.499 85.1731H204.357C202.814 85.4573 202.327 85.2543 201.647 83.8333C200.896 82.2499 200.216 80.636 199.556 79.012C199.45 78.8256 199.381 78.6196 199.356 78.4063C199.33 78.193 199.348 77.9767 199.408 77.7703C199.467 77.5639 199.568 77.3716 199.703 77.2048C199.838 77.038 200.006 76.9001 200.196 76.7993C201.14 76.0888 202.104 75.3885 203.099 74.7693C203.582 74.4941 203.973 74.0825 204.224 73.5862C204.475 73.0898 204.574 72.5305 204.509 71.9781C204.428 70.7195 204.398 69.4609 204.327 68.2023C204.327 67.9384 204.26 67.6787 204.132 67.4479C204.004 67.217 203.82 67.0225 203.596 66.8828C202.581 66.2129 201.485 65.5531 200.449 64.8528C199.711 64.4924 199.124 63.8807 198.795 63.1273L198.734 62.5893ZM238.796 69.6233C238.8 68.0438 238.491 66.4792 237.886 65.0201C237.281 63.5611 236.392 62.2366 235.272 61.1235C234.151 60.0104 232.82 59.1308 231.357 58.5357C229.894 57.9405 228.328 57.6417 226.748 57.6564C223.623 57.7603 220.658 59.0616 218.467 61.2911C216.275 63.5206 215.025 66.5075 214.974 69.6334C214.979 72.7845 216.227 75.8063 218.447 78.043C220.666 80.2796 223.678 81.5506 226.829 81.58C228.406 81.6004 229.97 81.3052 231.431 80.7117C232.891 80.1182 234.218 79.2384 235.333 78.1241C236.448 77.0099 237.329 75.6837 237.924 74.2238C238.519 72.7638 238.815 71.1996 238.796 69.6233Z" fill="#795548"/>
<path d="M220.029 98.2768C219.813 98.2747 219.6 98.2334 219.399 98.155L218.009 97.6373L214.091 96.1757C213.851 96.0721 213.623 95.9428 213.411 95.79L213.32 95.7291C212.968 95.5303 212.683 95.2309 212.502 94.8692C212.321 94.5075 212.252 94.1001 212.305 93.6991L212.569 92.1259C212.68 91.4458 212.792 90.7759 212.893 90.0959C212.944 89.7406 212.975 89.3955 212.995 89.0809C213.026 88.8577 213.003 88.6302 212.927 88.418C212.851 88.2058 212.724 88.0153 212.558 87.8629L209.99 85.4776L209.686 85.1833C209.476 84.978 209.213 84.8337 208.927 84.7658C208.641 84.6979 208.342 84.7089 208.062 84.7976C207.24 85.0006 206.408 85.1833 205.585 85.3761L204.357 85.6502C202.54 85.9851 201.84 85.6502 201.079 84.0262C200.317 82.4022 199.526 80.5244 198.988 79.1846C198.728 78.7041 198.666 78.1409 198.816 77.6154C198.966 77.0899 199.315 76.644 199.79 76.3731C200.896 75.5408 201.82 74.881 202.723 74.3431C203.132 74.1173 203.463 73.7742 203.675 73.3581C203.887 72.9419 203.969 72.4718 203.911 72.0086C203.85 71.227 203.819 70.4455 203.789 69.6639C203.789 69.1869 203.789 68.6489 203.718 68.2226C203.719 68.0407 203.674 67.8615 203.587 67.7018C203.5 67.542 203.374 67.4069 203.22 67.3091L201.911 66.487L200.064 65.3096C199.224 64.8739 198.566 64.1546 198.206 63.2796C198.197 63.2258 198.197 63.1709 198.206 63.1172V62.6503C198.196 62.5966 198.196 62.5415 198.206 62.4879L198.582 61.3917C198.886 60.4985 199.191 59.5951 199.505 58.7019C199.739 58.0422 200.003 57.3926 200.277 56.7531C200.458 56.2333 200.814 55.7928 201.285 55.5075C201.755 55.2222 202.311 55.1099 202.855 55.19C203.545 55.2712 204.235 55.393 204.885 55.5148L205.9 55.6874L206.306 55.7584C206.68 55.8382 207.06 55.8857 207.443 55.9005C207.728 55.9101 208.009 55.8283 208.245 55.6671C209.473 54.4897 210.64 53.2717 211.614 52.2364C211.745 52.0772 211.834 51.8881 211.873 51.6861C211.912 51.4841 211.9 51.2755 211.838 51.0793L211.472 49.4451C211.32 48.7549 211.158 48.0749 211.026 47.4151C210.894 46.8879 210.847 46.3433 210.884 45.8013C210.903 45.5452 210.976 45.2961 211.099 45.0704C211.221 44.8447 211.39 44.6476 211.594 44.4919C213.516 43.2343 215.617 42.2761 217.826 41.6499C218.245 41.5227 218.693 41.5339 219.105 41.6821C219.516 41.8302 219.869 42.1073 220.11 42.4721L220.952 43.5987C221.46 44.2889 221.967 44.969 222.465 45.6287C222.65 45.9716 222.934 46.2513 223.279 46.4322C223.625 46.613 224.016 46.6866 224.403 46.6437C225.287 46.5828 226.17 46.5422 227.042 46.5118H228.474C228.643 46.5011 228.807 46.4481 228.951 46.3577C229.094 46.2673 229.213 46.1423 229.296 45.9941C229.58 45.578 229.854 45.1517 230.118 44.7254L230.696 43.8423L230.899 43.5277C231.245 43.01 231.58 42.5127 231.914 41.9849C232.163 41.5877 232.542 41.2889 232.986 41.139C233.43 40.9891 233.912 40.9975 234.35 41.1627C236.563 41.924 238.339 42.5634 239.953 43.1927C240.407 43.3698 240.787 43.6971 241.029 44.12C241.271 44.543 241.36 45.036 241.283 45.5171C241.222 46.2276 241.09 46.9279 240.968 47.5471C240.897 47.8922 240.836 48.2373 240.786 48.5621C240.735 48.8869 240.633 49.506 240.593 49.9831C240.563 50.2211 240.589 50.4628 240.67 50.6886C240.752 50.9144 240.885 51.1178 241.06 51.2823L241.74 51.9217C242.511 52.6424 243.272 53.363 244.003 54.104C244.218 54.3364 244.493 54.505 244.797 54.591C245.102 54.6769 245.424 54.677 245.729 54.5912L247.688 54.1446C248.368 53.9923 249.048 53.8299 249.718 53.6878C250.274 53.4922 250.885 53.5205 251.421 53.7667C251.957 54.0129 252.376 54.4578 252.59 55.0073C253.361 56.6009 254.102 58.235 254.803 59.8387C254.962 60.1086 255.067 60.4072 255.111 60.7176C255.155 61.028 255.137 61.344 255.059 61.6475C254.981 61.951 254.843 62.2362 254.655 62.4866C254.466 62.737 254.23 62.9479 253.96 63.107C253.554 63.4318 253.128 63.7363 252.692 64.0408C252.255 64.3453 252.103 64.4468 251.819 64.66C251.301 65.0457 250.804 65.4314 250.377 65.8171C250.227 65.9383 250.108 66.0937 250.031 66.2703C249.953 66.4469 249.919 66.6395 249.931 66.8321V67.705C249.931 68.8113 249.931 69.9177 250.022 71.0139C250.03 71.3107 250.114 71.6004 250.267 71.8548C250.42 72.1093 250.636 72.3196 250.895 72.4653L251.91 73.0337L253.24 73.8254C253.731 74.1164 254.205 74.4349 254.661 74.7795C255.067 75.0564 255.368 75.4638 255.512 75.9344C255.656 76.405 255.635 76.9107 255.452 77.3678C254.837 79.0527 254.207 80.7443 253.564 82.4428C253.449 82.7108 253.307 82.966 253.138 83.204C252.934 83.5706 252.622 83.865 252.244 84.0468C251.866 84.2285 251.441 84.2887 251.027 84.219L247.383 83.61H247.079C246.662 83.4952 246.22 83.5116 245.813 83.6569C245.407 83.8022 245.054 84.0693 244.805 84.422C244.308 85.0006 243.79 85.5487 243.252 86.0663C243.029 86.2998 242.805 86.5231 242.592 86.7565C242.307 87.0271 242.104 87.3722 242.005 87.7525C241.907 88.1329 241.917 88.5333 242.034 88.9083C242.328 90.0451 242.623 91.253 242.876 92.4811C242.983 92.7651 243.03 93.0679 243.016 93.3708C243.001 93.6737 242.925 93.9705 242.792 94.2431C242.659 94.5157 242.472 94.7583 242.242 94.9562C242.012 95.1541 241.745 95.3031 241.455 95.3942C239.953 96.1148 238.309 96.8558 236.441 97.6475C235.966 97.8966 235.414 97.9597 234.895 97.8246C234.375 97.6896 233.924 97.3659 233.63 96.9167C233.092 96.2366 232.615 95.516 232.087 94.8258L231.762 94.369C230.554 92.6638 230.392 92.5928 228.321 92.6943L226.86 92.7755L225.703 92.8465C225.368 92.8482 225.039 92.9371 224.749 93.1044C224.459 93.2717 224.217 93.5116 224.048 93.8006C223.866 94.095 223.693 94.3995 223.52 94.6938C223.165 95.2825 222.81 95.8814 222.444 96.4599C222.127 96.935 221.767 97.3801 221.369 97.7896C221.19 97.9574 220.979 98.0872 220.749 98.1709C220.518 98.2547 220.274 98.2907 220.029 98.2768ZM208.62 83.61C209.292 83.6061 209.938 83.8689 210.417 84.3408L210.721 84.6352C211.574 85.4269 212.416 86.2287 213.279 87.0103C213.557 87.2649 213.772 87.5812 213.906 87.9337C214.04 88.2862 214.089 88.6652 214.05 89.0403C214.034 89.4243 213.997 89.8072 213.939 90.1872L213.604 92.2172L213.35 93.7803C213.315 93.9909 213.347 94.2072 213.442 94.3986C213.536 94.5899 213.689 94.7465 213.878 94.8461L213.969 94.907C214.121 95.0169 214.284 95.1088 214.456 95.181C215.756 95.6784 217.055 96.196 218.364 96.6426L219.755 97.1603C219.901 97.2227 220.064 97.2335 220.217 97.1911C220.37 97.1487 220.504 97.0555 220.597 96.9268C220.952 96.5656 221.271 96.1713 221.551 95.7494C221.917 95.1912 222.262 94.6025 222.566 94.0239C222.739 93.7194 222.922 93.4251 223.104 93.1206C223.355 92.6895 223.713 92.3305 224.144 92.078C224.574 91.8255 225.062 91.6882 225.561 91.6793L226.718 91.6184L228.189 91.527C230.615 91.4052 231.092 91.6387 232.503 93.6281L232.838 94.0848C233.315 94.7649 233.853 95.4754 234.34 96.1148C234.416 96.2511 234.518 96.3707 234.641 96.4664C234.765 96.5621 234.906 96.632 235.056 96.6718C235.207 96.7116 235.364 96.7206 235.519 96.6981C235.673 96.6757 235.821 96.6223 235.954 96.5411C237.822 95.7494 239.446 95.0186 240.938 94.298C241.861 93.8514 242.004 93.557 241.801 92.5116C241.557 91.3037 241.252 90.106 240.968 88.9895C240.811 88.4459 240.803 87.8701 240.944 87.3221C241.085 86.7741 241.37 86.2739 241.77 85.8735L242.45 85.1833C242.958 84.6758 243.465 84.1683 243.952 83.5897C244.325 83.0976 244.836 82.727 245.419 82.5247C246.003 82.3224 246.633 82.2974 247.231 82.4529H247.353L251.108 83.0721C251.318 83.1083 251.533 83.0778 251.724 82.9849C251.916 82.892 252.073 82.7414 252.174 82.5544C252.313 82.3639 252.432 82.1599 252.529 81.9454C253.165 80.2741 253.794 78.5824 254.417 76.8704C254.524 76.6165 254.536 76.333 254.452 76.0706C254.369 75.8083 254.194 75.5845 253.96 75.4393C253.524 75.1043 253.047 74.81 252.631 74.5461L251.321 73.7645C250.986 73.5818 250.661 73.389 250.306 73.186C249.902 72.9588 249.564 72.631 249.324 72.2344C249.083 71.8378 248.95 71.3859 248.936 70.9225C248.885 69.806 248.865 68.6997 248.845 67.5832V66.7103C248.831 66.3732 248.895 66.0376 249.033 65.7296C249.17 65.4215 249.377 65.1492 249.636 64.934C250.103 64.5382 250.651 64.1322 251.149 63.7262C251.443 63.513 251.737 63.2999 252.042 63.0969C252.346 62.8939 252.864 62.5183 253.26 62.2037C253.435 62.1124 253.589 61.9855 253.713 61.8312C253.836 61.6768 253.926 61.4985 253.977 61.3074C254.028 61.1164 254.038 60.9169 254.007 60.7216C253.976 60.5264 253.905 60.3398 253.798 60.1737C253.108 58.5801 252.367 56.9561 251.605 55.3727C251.549 55.21 251.46 55.0603 251.345 54.9324C251.229 54.8045 251.089 54.7011 250.933 54.6283C250.777 54.5554 250.608 54.5146 250.436 54.5082C250.263 54.5018 250.092 54.53 249.931 54.5912C249.251 54.7333 248.581 54.8855 247.901 55.0479L245.932 55.4945C245.461 55.616 244.966 55.6094 244.498 55.4756C244.031 55.3417 243.608 55.0855 243.272 54.7333C242.552 53.9923 241.79 53.2818 241.039 52.5713L240.359 51.9319C240.071 51.6647 239.85 51.3333 239.715 50.9647C239.579 50.5961 239.532 50.2007 239.578 49.8105C239.578 49.303 239.689 48.7955 239.771 48.3083L239.953 47.2426C240.075 46.593 240.197 45.9129 240.268 45.2126C240.316 44.9526 240.274 44.6839 240.149 44.4512C240.023 44.2186 239.822 44.0359 239.578 43.9337C237.984 43.3247 236.208 42.6852 234.016 41.9037C233.782 41.8055 233.521 41.7979 233.283 41.8824C233.044 41.9669 232.846 42.1373 232.726 42.3604C232.371 42.8578 232.046 43.3754 231.711 43.8728L231.508 44.1874C231.316 44.4716 231.123 44.766 230.94 45.0603L230.098 46.3494C229.924 46.6278 229.686 46.86 229.403 47.0262C229.12 47.1923 228.801 47.2875 228.474 47.3035C227.997 47.3035 227.519 47.3035 227.042 47.3644C226.18 47.3644 225.307 47.4253 224.444 47.4963C223.881 47.5469 223.315 47.4398 222.81 47.1871C222.304 46.9343 221.879 46.5459 221.582 46.0652C221.105 45.3648 220.567 44.6848 220.09 44.0352L219.298 43.01C219.177 42.8132 218.992 42.6636 218.774 42.5861C218.556 42.5086 218.319 42.5078 218.1 42.5837C215.987 43.1758 213.977 44.0899 212.142 45.2938C212.002 45.4482 211.917 45.6443 211.899 45.852C211.876 46.2926 211.921 46.7341 212.031 47.1614C212.163 47.8414 212.315 48.5215 212.477 49.1914C212.64 49.8613 212.721 50.2876 212.832 50.8357C212.927 51.1864 212.934 51.555 212.853 51.909C212.771 52.2631 212.604 52.5916 212.366 52.8657C211.351 53.8807 210.204 55.1393 208.945 56.337C208.525 56.6653 208.007 56.8439 207.473 56.8445C207.023 56.83 206.575 56.7791 206.133 56.6922L205.748 56.6212L204.733 56.4385C204.093 56.3268 203.423 56.205 202.764 56.134C202.45 56.0874 202.13 56.1536 201.86 56.3209C201.591 56.4882 201.389 56.7456 201.292 57.0475C201.028 57.6768 200.774 58.3061 200.541 58.9557C200.226 59.8387 199.922 60.7319 199.627 61.6251L199.282 62.6401V62.9243C199.584 63.5267 200.076 64.0122 200.683 64.3047L202.54 65.4821L203.85 66.3144C204.138 66.4999 204.377 66.7532 204.545 67.0522C204.713 67.3512 204.805 67.6869 204.814 68.0298C204.814 68.517 204.865 69.0448 204.885 69.4711C204.885 70.2526 204.946 71.024 204.997 71.8056C205.07 72.4484 204.954 73.0987 204.661 73.676C204.369 74.2533 203.914 74.7322 203.352 75.0536C202.479 75.6118 201.566 76.2614 200.49 77.0836C199.79 77.6114 199.698 77.926 200.013 78.7076C200.551 80.0271 201.261 81.7526 202.043 83.4984C202.591 84.6758 202.855 84.7976 204.205 84.5134L204.438 84.9803L204.317 84.4829L205.403 84.2393C206.225 84.0566 207.047 83.8739 207.859 83.6709C208.109 83.6173 208.365 83.5968 208.62 83.61ZM226.89 82.0063C224.427 82.0023 222.02 81.268 219.975 79.8962C217.929 78.5243 216.336 76.5767 215.397 74.2995C214.458 72.0223 214.215 69.5178 214.7 67.1027C215.184 64.6876 216.374 62.4705 218.119 60.7316C219.863 58.9927 222.084 57.8102 224.501 57.3336C226.917 56.857 229.421 57.1077 231.695 58.054C233.969 59.0003 235.912 60.5998 237.277 62.6501C238.642 64.7003 239.369 67.1094 239.365 69.5726C239.408 71.1472 239.136 72.7145 238.564 74.1823C237.992 75.65 237.132 76.9885 236.035 78.1189C234.862 79.3739 233.44 80.3712 231.86 81.0474C230.281 81.7237 228.578 82.064 226.86 82.0469L226.89 82.0063ZM226.738 58.1234C223.774 58.2096 220.959 59.439 218.882 61.5541C217.816 62.6041 216.969 63.8554 216.39 65.2354C215.812 66.6154 215.513 68.0965 215.512 69.5929C215.524 71.8776 216.218 74.1067 217.507 75.9933C218.796 77.8799 220.62 79.3378 222.744 80.1794C224.868 81.021 227.195 81.2078 229.427 80.7158C231.658 80.2238 233.691 79.0754 235.264 77.4185C236.269 76.3879 237.056 75.1659 237.579 73.8251C238.102 72.4842 238.35 71.0519 238.309 69.6132C238.316 68.0995 238.021 66.5997 237.443 65.201C236.864 63.8022 236.013 62.5327 234.939 61.4661C233.865 60.3996 232.589 59.5575 231.187 58.9888C229.784 58.4201 228.282 58.1363 226.768 58.1538L226.738 58.1234Z" fill="#231F20"/>
<path d="M143.478 23.8062C140.792 22.6744 137.893 22.1425 134.981 22.2477C132.069 22.3529 129.215 23.0926 126.618 24.4152C117.768 28.9319 119.96 38.7774 116.59 40.7364C113.22 42.6953 49.3769 67.6643 43.0331 69.4913C36.6894 71.3183 30.5791 69.4913 23.3117 67.0046C16.0443 64.5178 11.558 67.1162 6.30028 71.5822C1.04258 76.0482 -1.04832 85.7922 1.80383 86.6347C4.65598 87.4771 16.43 77.1749 18.1149 77.3474C18.1149 77.3474 23.7177 79.1643 25.433 82.2702C27.1484 85.3761 27.7675 93.222 27.7675 93.222C27.7675 93.222 14.8263 101.707 14.806 102.205C14.7857 102.702 18.5615 106.691 26.4582 104.57C34.3549 102.448 37.5115 97.4647 41.267 90.6338C45.0225 83.8028 58.4408 79.7834 68.4995 76.0584C78.5581 72.3333 116.895 57.6767 120.376 56.6719C123.858 55.667 127.664 57.5143 132.678 59.0165C135.563 59.9547 138.653 60.0629 141.596 59.3289C144.54 58.5948 147.217 57.0481 149.324 54.8652C154.673 49.5567 154.917 43.5885 153.82 39.8127C153.82 39.8127 145.051 45.7302 141.305 46.9177C137.56 48.1053 135.54 46.2377 133.368 43.2536C131.196 40.2695 130.648 35.5294 132.241 33.1036C133.835 30.6777 144.066 26.4147 144.036 25.7651C143.929 25.092 143.742 24.4343 143.478 23.8062Z" fill="#EFF0F0"/>
<path d="M22.0531 105.696C19.6611 105.797 17.306 105.081 15.3744 103.666C14.9582 103.342 14.2782 102.712 14.2985 102.225C14.2985 101.9 14.2985 101.474 27.2397 92.9987C27.1078 91.5473 26.448 85.1934 24.9864 82.5544C23.5248 79.9154 18.6731 78.1087 18.0235 77.8854C17.3841 77.9666 14.7146 79.8443 12.573 81.3668C7.30512 85.0817 3.43797 87.67 1.66172 87.1625C1.24884 87.0176 0.886536 86.7567 0.618277 86.411C0.350019 86.0654 0.187204 85.6496 0.149373 85.2137C-0.601727 81.7627 1.82412 74.749 5.96532 71.2371C11.7813 66.3042 16.2879 64.1321 23.4741 66.558C30.9851 69.1259 36.7807 70.8108 42.891 69.0448C49.0013 67.2786 112.926 42.2893 116.336 40.3304C117.433 39.7011 117.879 37.9553 118.437 35.7426C119.392 32.0175 120.691 26.9121 126.385 23.999C129.05 22.633 131.982 21.8702 134.975 21.765C137.968 21.6597 140.947 22.2145 143.701 23.39C143.813 23.4429 143.901 23.5376 143.944 23.6539C144.24 24.3374 144.442 25.0579 144.543 25.7956C144.543 26.3335 144.087 26.6177 140.727 28.3534C137.875 29.8251 133.561 32.0581 132.668 33.4284C131.206 35.6411 131.744 40.1984 133.784 42.9998C136.007 46.0448 137.844 47.5268 141.153 46.4712C144.787 45.3242 153.455 39.4879 153.536 39.427C153.602 39.3817 153.679 39.3533 153.758 39.3444C153.838 39.3356 153.918 39.3465 153.993 39.3763C154.069 39.4011 154.138 39.4448 154.193 39.5034C154.248 39.5619 154.288 39.6334 154.308 39.7112C154.886 41.7412 156.256 48.7346 149.689 55.261C147.516 57.507 144.757 59.0989 141.725 59.856C138.693 60.6131 135.51 60.5051 132.536 59.5443C131.45 59.2195 130.425 58.8745 129.491 58.5294C125.938 57.3621 123.137 56.4283 120.559 57.1794C118.285 57.829 100.614 64.5178 86.4041 69.8973C78.7611 72.7901 72.1941 75.287 68.7228 76.5558L64.815 77.9767C55.5075 81.3161 44.9616 85.0817 41.7542 90.8977C37.7957 98.0839 34.6492 102.946 26.6307 105.108C25.1374 105.505 23.5982 105.703 22.0531 105.696ZM15.415 102.286C16.1255 103.159 19.5968 105.879 26.3262 104.083C33.9083 102.053 36.9837 97.3429 40.8306 90.3902C44.2105 84.3002 54.9594 80.4026 64.4293 76.9922C65.7691 76.5152 67.0683 76.0482 68.3269 75.5813C71.7576 74.3126 78.3653 71.8157 86.0082 68.9229C100.969 63.31 117.93 56.8444 120.234 56.205C123.117 55.3727 126.202 56.3877 129.765 57.5651C130.78 57.8899 131.795 58.2248 132.81 58.5801C135.612 59.4806 138.61 59.5775 141.465 58.8599C144.319 58.1423 146.915 56.6388 148.959 54.5201C154.531 48.9883 154.034 43.1115 153.496 40.6552C151.466 42.0153 144.696 46.3899 141.448 47.4252C137.174 48.7752 134.911 46.2681 132.952 43.5784C130.658 40.4319 130.12 35.4584 131.805 32.8498C132.82 31.2563 136.951 29.135 140.25 27.4297C141.59 26.7396 143.082 25.9681 143.508 25.6433C143.404 25.1514 143.258 24.6692 143.072 24.202C140.471 23.1581 137.678 22.6789 134.878 22.7961C132.079 22.9133 129.336 23.6244 126.832 24.8821C121.543 27.582 120.356 32.2408 119.402 35.976C118.803 38.3207 118.285 40.3405 116.834 41.1931C113.444 43.1521 49.4073 68.2023 43.1448 70.009C36.8822 71.8157 30.8125 70.1308 23.129 67.5019C16.3995 65.1979 12.1264 67.299 6.60477 71.9883C2.54477 75.4494 0.514773 82.1382 1.11362 84.9802C1.21512 85.4471 1.43842 85.9952 1.91547 86.1678C3.36692 86.5839 8.54342 82.9299 11.964 80.5142C15.7296 77.8549 17.3333 76.779 18.1453 76.8602H18.2468C18.4904 76.9414 24.0628 78.7786 25.8492 82.0266C27.6356 85.2746 28.2344 92.8567 28.2547 93.1916C28.2628 93.2823 28.2463 93.3735 28.2071 93.4557C28.1678 93.5378 28.1071 93.6079 28.0314 93.6585C23.6669 96.5208 16.704 101.18 15.415 102.286Z" fill="#231F20"/>
<path d="M95.0214 176.005L85.6631 186.795L91.8749 193.311L101.599 183.293L95.0214 176.005Z" fill="white"/>
<path d="M91.8851 193.819C91.8146 193.819 91.7449 193.805 91.6802 193.777C91.6155 193.749 91.5574 193.708 91.5095 193.656L85.2977 187.14C85.2114 187.048 85.1633 186.926 85.1633 186.8C85.1633 186.674 85.2114 186.552 85.2977 186.46L94.656 175.67C94.7553 175.561 94.894 175.495 95.0417 175.488C95.1129 175.489 95.1832 175.504 95.2479 175.534C95.3126 175.564 95.3703 175.607 95.4173 175.66L101.994 182.938C102.082 183.033 102.131 183.158 102.131 183.288C102.131 183.418 102.082 183.543 101.994 183.638L92.22 193.666C92.1308 193.756 92.0116 193.811 91.8851 193.819ZM86.3533 186.785L91.8851 192.58L100.898 183.283L95.0316 176.777L86.3533 186.785Z" fill="#231F20"/>
<path d="M82.5978 125.915C82.5978 125.915 119.706 145.799 123.137 158.395C126.568 170.991 99.396 187.719 99.396 187.719L91.7023 178.675C91.7023 178.675 101.852 165.043 97.5995 160.882C93.3466 156.72 73.2395 148.469 73.2395 148.469C73.2395 148.469 71.2805 172.93 60.958 184.095C49.8742 196.072 24.5296 196.711 24.5296 196.711L22.6316 183.08C22.6316 183.08 39.7749 178.624 46.9916 170.9C54.2082 163.176 47.154 127.671 47.154 127.671L82.5978 125.915Z" fill="#EFF0F0"/>
<path d="M24.5296 197.29C24.4076 197.291 24.2895 197.247 24.1978 197.166C24.1061 197.086 24.0472 196.975 24.0323 196.854L22.185 183.171C22.1663 183.048 22.1945 182.922 22.264 182.819C22.3336 182.716 22.4394 182.642 22.5605 182.613C22.7331 182.613 39.643 178.117 46.6972 170.616C53.7515 163.115 46.7987 128.189 46.6972 127.834C46.6859 127.761 46.689 127.687 46.7065 127.615C46.7239 127.544 46.7552 127.477 46.7987 127.417C46.8447 127.361 46.9017 127.315 46.9664 127.282C47.031 127.249 47.1018 127.229 47.1743 127.225L82.5876 125.408C82.6829 125.401 82.778 125.422 82.8617 125.469C84.3842 126.281 120.193 145.596 123.644 158.233C127.136 171.032 100.807 187.444 99.6802 188.135C99.5775 188.198 99.4557 188.222 99.3367 188.203C99.2177 188.185 99.1092 188.124 99.0306 188.033L91.3166 179.02C91.245 178.929 91.2061 178.816 91.2061 178.7C91.2061 178.584 91.245 178.472 91.3166 178.381C94.0673 174.696 100.452 164.414 97.2645 161.257C93.5395 157.624 77.1371 150.661 73.6962 149.209C73.2902 153.361 70.8238 174.249 61.3437 184.501C55.5277 190.784 45.8243 193.92 38.7092 195.453C34.0449 196.456 29.3056 197.07 24.5398 197.29H24.5296ZM23.2 183.476L24.9661 196.214C28.4171 196.052 50.5745 194.59 60.5824 183.78C70.5903 172.971 72.7015 148.651 72.7624 148.408C72.7676 148.328 72.7926 148.251 72.8351 148.184C72.8777 148.116 72.9364 148.061 73.006 148.022C73.0764 147.985 73.1548 147.965 73.2344 147.965C73.314 147.965 73.3924 147.985 73.4628 148.022C74.2849 148.357 93.7019 156.365 97.9953 160.537C102.289 164.708 93.9353 176.493 92.3824 178.675L99.4874 187.079C102.705 185.049 125.715 169.824 122.64 158.547C119.402 146.682 84.8308 127.742 82.476 126.473L47.7731 128.25C48.6866 133.04 54.259 164.018 47.3671 171.347C40.6884 178.431 25.9811 182.715 23.2 183.476Z" fill="#231F20"/>
<path d="M101.111 70.8514L103.456 67.0553C103.456 67.0553 103.263 61.2597 104.268 60.4781C105.273 59.6966 105.577 63.9088 105.791 63.8581C106.004 63.8073 108.46 58.235 109.597 59.0673C110.734 59.8996 111.17 62.9852 110.855 64.1423C110.541 65.2994 105.009 75.5813 105.009 75.5813L101.111 70.8514Z" fill="white"/>
<path d="M105.009 76.0888C104.933 76.0878 104.858 76.0699 104.79 76.0366C104.721 76.0033 104.661 75.9552 104.613 75.896L100.716 71.1762C100.656 71.0897 100.624 70.987 100.624 70.8819C100.624 70.7767 100.656 70.674 100.716 70.5875L102.979 66.9132C102.979 65.34 102.908 60.9247 103.994 60.0721C104.108 59.9765 104.244 59.9122 104.39 59.8855C104.536 59.8588 104.686 59.8706 104.826 59.9199C105.466 60.1635 105.74 61.148 106.014 62.5284C107.11 60.4984 108.186 58.6917 109.171 58.4684C109.304 58.4367 109.444 58.4366 109.578 58.4684C109.712 58.5001 109.837 58.5627 109.942 58.6511C111.282 59.6661 111.718 63.0156 111.373 64.2539C111.028 65.4922 106.055 74.7389 105.486 75.7945C105.447 75.8694 105.388 75.933 105.317 75.9792C105.246 76.0254 105.165 76.0526 105.08 76.0584L105.009 76.0888ZM101.731 70.8108L104.918 74.6678C107.11 70.6078 110.155 64.7716 110.368 64.0002C110.652 62.9852 110.165 60.1635 109.282 59.4631C108.937 59.5342 108.085 60.7725 106.785 63.1679C106.247 64.1829 106.176 64.2945 105.902 64.3554C105.763 64.3834 105.618 64.358 105.496 64.2844C105.253 64.122 105.202 63.8784 105.05 63.0664C104.941 62.3553 104.757 61.6578 104.502 60.9856C104.106 61.6149 103.872 64.2539 103.964 67.0756C103.968 67.1767 103.94 67.2764 103.882 67.3598L101.731 70.8108Z" fill="#231F20"/>
<path d="M51.62 67.6136C49.6351 68.5282 47.437 68.8793 45.2661 68.6286C44.2856 68.5504 43.3532 68.1711 42.5966 67.5425C42.2266 67.2207 41.971 66.7874 41.8685 66.3078C41.766 65.8282 41.8221 65.3283 42.0282 64.8833C41.4945 64.9444 40.9539 64.8778 40.4509 64.689C39.948 64.5001 39.4971 64.1945 39.1355 63.7972C38.4203 62.986 37.9365 61.9974 37.7348 60.9349C37.52 60.2727 37.479 59.5665 37.6159 58.8839C37.7528 58.2014 38.0628 57.5655 38.5163 57.0373C37.4303 56.54 36.2326 55.9208 35.8976 54.7738C35.761 54.1931 35.761 53.5885 35.8976 53.0077C36.1325 51.8559 36.4723 50.7279 36.9126 49.6379C37.1461 49.0492 37.5318 48.3997 38.1611 48.3489C37.6942 47.318 37.5238 46.1774 37.6691 45.0551C37.8143 43.9328 38.2693 42.8731 38.9832 41.995C39.675 41.0983 40.6468 40.4588 41.744 40.1782C42.9225 40.0741 44.1079 40.0741 45.2864 40.1782C45.8321 39.3908 46.5559 38.7433 47.3989 38.2883C48.2419 37.8333 49.1804 37.5836 50.1381 37.5594C50.8876 37.6351 51.6032 37.9105 52.2102 38.3568C52.8172 38.8031 53.2933 39.404 53.5891 40.0969C54.8976 39.8325 56.2478 39.8533 57.5476 40.1579C58.2076 40.3108 58.8245 40.6112 59.3519 41.0366C59.8793 41.462 60.3034 42.0014 60.5926 42.6142C60.8509 43.2287 60.9005 43.911 60.7336 44.5564C60.5668 45.2018 60.1927 45.7746 59.6689 46.1869C60.4413 46.2746 61.156 46.6381 61.6819 47.2106C62.2077 47.783 62.5093 48.526 62.5312 49.303C62.509 50.0816 62.2546 50.8358 61.8006 51.4688C61.3467 52.1018 60.7139 52.5847 59.9836 52.8555C59.7716 52.9133 59.5767 53.0212 59.4152 53.1702C59.271 53.3963 59.1839 53.654 59.1614 53.9213C58.9787 54.7637 58.2276 55.1799 57.9028 55.9513C57.5227 57.0349 57.2341 58.1486 57.0401 59.2804C56.7583 60.35 56.4194 61.4037 56.0251 62.4371C55.7186 63.654 55.283 64.8347 54.7259 65.9592C54.127 66.8828 53.3861 66.9741 52.432 67.3294C52.1173 67.4207 51.8839 67.5222 51.62 67.6136Z" fill="white"/>
<path d="M46.6567 69.2478C46.1745 69.2482 45.6928 69.2143 45.2154 69.1463C44.1313 69.0647 43.1009 68.6419 42.2719 67.9384C41.9333 67.6236 41.6733 67.2336 41.5128 66.7999C41.3524 66.3663 41.296 65.901 41.3483 65.4415C40.3688 65.3395 39.4598 64.885 38.7905 64.1626C38.016 63.3033 37.4866 62.2516 37.2578 61.1176C37.0635 60.4708 37.0047 59.7908 37.0851 59.1202C37.1654 58.4495 37.3831 57.8027 37.7247 57.22C37.203 57.0197 36.7292 56.712 36.334 56.3168C35.9389 55.9216 35.6312 55.4478 35.4308 54.9261C35.2649 54.2596 35.2649 53.5626 35.4308 52.8961C35.6626 51.7138 36.0024 50.5552 36.4458 49.435C36.6273 48.8751 36.9829 48.3879 37.4608 48.0444C37.0662 46.9795 36.9523 45.8309 37.1301 44.7093C37.3079 43.5876 37.7713 42.5305 38.4758 41.6398C39.2355 40.6419 40.3075 39.9273 41.5208 39.6098C42.6624 39.5143 43.8099 39.5143 44.9515 39.6098C45.5551 38.8153 46.3329 38.1697 47.225 37.7228C48.1171 37.2759 49.0998 37.0394 50.0976 37.0317C50.8693 37.1099 51.6099 37.3767 52.2541 37.8086C52.8984 38.2405 53.4266 38.8242 53.7922 39.5083C55.0561 39.2844 56.353 39.3293 57.5984 39.6402C58.3223 39.821 58.9963 40.1621 59.5707 40.6381C60.1452 41.1142 60.6054 41.7132 60.9175 42.3909C61.1495 42.9549 61.2367 43.568 61.1711 44.1743C61.1055 44.7806 60.8892 45.3609 60.5419 45.8622C61.2204 46.1416 61.8037 46.6113 62.2215 47.2145C62.6392 47.8178 62.8737 48.529 62.8967 49.2624C62.884 50.1501 62.6028 51.0131 62.09 51.7378C61.5773 52.4625 60.8571 53.015 60.0243 53.3224C59.8927 53.3566 59.7688 53.4151 59.6589 53.495C59.5983 53.6004 59.5635 53.7186 59.5574 53.8401V54.0228C59.4161 54.5484 59.1397 55.0278 58.7555 55.4133C58.5587 55.6231 58.3914 55.8587 58.2582 56.1137C58.0009 56.7994 57.8171 57.5105 57.7101 58.235C57.6289 58.6207 57.5477 58.9963 57.4563 59.3515C57.1741 60.4343 56.8353 61.5015 56.4413 62.5488C56.2992 62.9345 56.1774 63.3303 56.0658 63.7363C55.8508 64.5944 55.5087 65.4155 55.0508 66.1723C54.6116 66.8357 53.9367 67.3074 53.1629 67.4918L52.5336 67.7354L51.8028 68.0501C50.1819 68.7809 48.4337 69.1877 46.6567 69.2478ZM42.0486 64.3961C42.1312 64.395 42.2128 64.4149 42.2856 64.4539C42.3584 64.493 42.42 64.5499 42.4648 64.6194C42.5141 64.7004 42.5401 64.7935 42.5401 64.8884C42.5401 64.9832 42.5141 65.0763 42.4648 65.1573C42.3205 65.502 42.288 65.8833 42.3717 66.2474C42.4555 66.6116 42.6513 66.9403 42.9317 67.1873C43.6134 67.7419 44.4503 68.0717 45.3271 68.1313C47.4116 68.3544 49.5175 68.0034 51.4171 67.1163L52.1276 66.8219C52.3712 66.7103 52.6046 66.6291 52.8279 66.5479C53.386 66.433 53.8775 66.1054 54.1982 65.6344C54.5843 64.9546 54.8714 64.2232 55.0508 63.4623C55.1726 63.036 55.2944 62.6097 55.4466 62.2037C55.8363 61.2065 56.1751 60.1902 56.4616 59.1587C56.5428 58.8237 56.6139 58.4583 56.6951 58.1437C56.8224 57.3368 57.0404 56.5469 57.3447 55.7889C57.5163 55.4487 57.735 55.1343 57.9943 54.8551C58.266 54.5943 58.4683 54.2698 58.583 53.9111V53.7589C58.621 53.4524 58.7401 53.1615 58.9281 52.9164C59.1245 52.7232 59.3648 52.5804 59.6284 52.5003C60.2749 52.2686 60.8376 51.8492 61.2444 51.296C61.6513 50.7427 61.8838 50.0806 61.9122 49.3944C61.8967 48.7448 61.6466 48.1228 61.2082 47.6433C60.7697 47.1638 60.1725 46.8592 59.5269 46.7858C59.4225 46.7755 59.3236 46.7337 59.2434 46.666C59.1633 46.5982 59.1056 46.5077 59.0781 46.4064C59.0506 46.3051 59.0545 46.1979 59.0893 46.0988C59.1242 45.9998 59.1883 45.9138 59.2732 45.852C59.701 45.5072 60.0047 45.0323 60.1384 44.4993C60.2721 43.9663 60.2285 43.4043 60.0141 42.8984C59.7588 42.3645 59.3876 41.8943 58.9275 41.5221C58.4675 41.1498 57.9302 40.8849 57.3548 40.7466C56.1267 40.4458 54.8467 40.425 53.6095 40.6857C53.497 40.7055 53.3812 40.6861 53.2814 40.6307C53.1816 40.5752 53.1039 40.4871 53.0614 40.3812C52.8001 39.7714 52.3795 39.2433 51.8437 38.8521C51.3079 38.461 50.6767 38.2214 50.0164 38.1583C49.1514 38.1923 48.3058 38.4251 47.5454 38.8388C46.7849 39.2524 46.13 39.8358 45.6316 40.5436C45.5648 40.6459 45.4634 40.7207 45.3459 40.7543C45.2285 40.7878 45.1028 40.7779 44.9921 40.7263C43.9206 40.66 42.8461 40.66 41.7746 40.7263C40.8465 40.984 40.0273 41.5361 39.4401 42.2995C38.79 43.1116 38.3784 44.0882 38.2512 45.1206C38.1239 46.1529 38.286 47.2003 38.7194 48.1459C38.7594 48.2191 38.7803 48.3011 38.7803 48.3844C38.7803 48.4678 38.7594 48.5498 38.7194 48.623C38.6793 48.6966 38.6209 48.7587 38.5497 48.8032C38.4786 48.8476 38.3972 48.873 38.3134 48.8767C37.9582 48.8767 37.6841 49.4147 37.5116 49.8917C37.0691 50.953 36.7292 52.0543 36.4966 53.1803C36.3801 53.6811 36.3801 54.202 36.4966 54.7028C36.7706 55.6366 37.8465 56.1949 38.8412 56.6415C38.9187 56.6759 38.9864 56.7292 39.038 56.7965C39.0896 56.8638 39.1235 56.943 39.1366 57.0268C39.1498 57.1106 39.1417 57.1963 39.1131 57.2762C39.0846 57.356 39.0364 57.4275 38.9732 57.4839C37.9582 58.438 38.1815 60.194 38.3439 60.8943C38.5202 61.8666 38.9589 62.7721 39.6126 63.513C39.9151 63.8545 40.2952 64.1185 40.7208 64.2828C41.1464 64.447 41.6053 64.5067 42.0588 64.457L42.0486 64.3961Z" fill="#231F20"/>
<path d="M59.8618 53.8604C59.8618 53.8604 64.4293 56.9054 64.2263 57.9914C64.0233 59.0775 61.8715 59.3515 61.8715 59.3515" fill="white"/>
<path d="M61.8715 59.859C61.7369 59.8671 61.6046 59.8214 61.5037 59.7319C61.4028 59.6425 61.3416 59.5166 61.3335 59.382C61.3255 59.2474 61.3712 59.1151 61.4607 59.0142C61.5501 58.9133 61.676 58.8521 61.8106 58.844C62.5312 58.7628 63.6376 58.4076 63.7289 57.9001C63.8203 57.3926 61.77 55.728 59.5776 54.2867C59.4645 54.2127 59.3855 54.0967 59.3579 53.9645C59.3303 53.8322 59.3564 53.6943 59.4304 53.5813C59.5045 53.4682 59.6204 53.3892 59.7527 53.3616C59.8849 53.334 60.0228 53.3601 60.1358 53.4341C61.9527 54.6318 64.9571 56.8242 64.7338 58.0828C64.4699 59.5342 62.1862 59.8286 61.9324 59.859H61.8715Z" fill="#231F20"/>
<path d="M55.0507 45.04C55.3764 45.0794 55.6798 45.2258 55.9134 45.4562C56.7779 46.247 57.49 47.1896 58.0145 48.2373C59.1074 50.2594 60.0735 52.3476 60.9072 54.4897C62.0745 57.2911 63.1808 60.1229 64.2161 62.9649C64.886 64.7818 60.3185 66.7712 59.2832 66.5885L62.988 73.2773C62.988 73.2773 61.0493 74.8201 56.6138 74.6882C52.1782 74.5562 51.7824 73.6732 51.7824 73.6732L48.6359 65.472C48.6359 65.472 51.6809 64.2032 51.9245 59.8286C51.8538 59.0622 51.8538 58.2909 51.9245 57.5245C52.1376 56.7227 52.8177 56.2862 52.838 55.3524C52.8262 54.9227 52.7158 54.5015 52.5151 54.1213C52.3145 53.7411 52.029 53.4122 51.6809 53.16C51.5286 53.0382 51.3459 52.9063 51.3662 52.7134C51.3936 52.6063 51.454 52.5104 51.5388 52.4394C51.7375 52.1971 51.8861 51.9176 51.9759 51.6174C52.0657 51.3171 52.0949 51.002 52.0618 50.6903C52.0288 50.3787 51.9341 50.0767 51.7833 49.8019C51.6326 49.5272 51.4287 49.2851 51.1835 49.0899C52.3406 48.5925 52.6147 47.0599 52.7263 45.852C52.7263 46.2479 54.5736 45.1618 54.6041 45.1517C54.7452 45.0884 54.8964 45.0506 55.0507 45.04Z" fill="white"/>
<path d="M57.1518 75.2159H56.6037C52.3204 75.084 51.5287 74.272 51.3257 73.9269L48.169 65.6952C48.1442 65.6346 48.1316 65.5697 48.132 65.5042C48.1323 65.4386 48.1456 65.3739 48.1711 65.3135C48.1965 65.2531 48.2337 65.1984 48.2804 65.1524C48.327 65.1065 48.3823 65.0702 48.4431 65.0456C48.5547 65.0456 51.1937 63.8175 51.417 59.8488C51.4403 59.5651 51.4403 59.28 51.417 58.9962C51.3202 58.4797 51.3202 57.9497 51.417 57.4331C51.5246 57.0711 51.6891 56.7285 51.9042 56.4181C52.1327 56.1249 52.2734 55.773 52.3102 55.4031C52.3138 55.049 52.2339 54.6991 52.0769 54.3817C51.92 54.0642 51.6904 53.7883 51.4069 53.5761C51.2726 53.5178 51.1552 53.4265 51.0654 53.3109C50.9757 53.1952 50.9164 53.0588 50.8932 52.9143C50.8699 52.7697 50.8834 52.6216 50.9324 52.4837C50.9814 52.3457 51.0642 52.2222 51.1734 52.1247C51.3288 51.9371 51.4455 51.7206 51.5169 51.4877C51.5883 51.2548 51.6129 51.0101 51.5893 50.7676C51.5657 50.5252 51.4944 50.2898 51.3795 50.075C51.2646 49.8602 51.1083 49.6703 50.9197 49.5161C50.8459 49.4643 50.7872 49.3937 50.7497 49.3116C50.7123 49.2296 50.6974 49.139 50.7065 49.0492C50.7175 48.9596 50.7512 48.8743 50.8045 48.8015C50.8578 48.7286 50.9289 48.6706 51.011 48.6331C51.9245 48.2474 52.158 46.9279 52.2493 45.8215C52.2622 45.6859 52.3281 45.5608 52.4326 45.4734C52.5371 45.386 52.6718 45.3433 52.8076 45.3546H52.9801C53.4399 45.1777 53.8845 44.9638 54.3098 44.7152L54.4722 44.634C54.6683 44.5659 54.8737 44.5282 55.0812 44.5223C55.5224 44.5587 55.9379 44.7449 56.2586 45.0501C57.1761 45.8767 57.9302 46.8683 58.4814 47.9733C59.4889 49.8125 60.3772 51.7144 61.1407 53.6675L61.4046 54.2866C62.5719 57.0779 63.6884 59.9402 64.7237 62.7822C64.8332 63.1128 64.8465 63.4677 64.762 63.8055C64.6776 64.1434 64.4988 64.4502 64.2466 64.6904C63.1132 65.8278 61.6868 66.6288 60.1257 67.0046L63.4549 73.0134C63.5156 73.1184 63.5366 73.2416 63.5143 73.3607C63.4919 73.4799 63.4277 73.5871 63.3331 73.663C63.2215 73.7543 61.3234 75.2159 57.1518 75.2159ZM52.2189 73.46C52.3813 73.5716 53.2339 74.1096 56.6341 74.2111C58.5883 74.3589 60.5466 73.9841 62.308 73.125L58.8367 66.8625C58.7874 66.7814 58.7613 66.6884 58.7613 66.5935C58.7613 66.4986 58.7874 66.4056 58.8367 66.3245C58.8954 66.2484 58.9735 66.1895 59.0627 66.1538C59.152 66.1181 59.2492 66.1069 59.3442 66.1215C60.8778 65.8903 62.299 65.1797 63.4042 64.0915C63.5305 63.9815 63.6253 63.8399 63.6788 63.6811C63.7324 63.5224 63.7427 63.3522 63.7087 63.1882C62.6937 60.3563 61.5569 57.5143 60.3896 54.7231L60.1359 54.1141C59.3867 52.1994 58.5154 50.3347 57.5273 48.5316C57.041 47.537 56.3732 46.642 55.5582 45.8926C55.2639 45.6591 55.1319 45.5881 55 45.5881C54.9124 45.5772 54.8237 45.5772 54.7361 45.5881C54.2342 45.8925 53.7039 46.1474 53.1527 46.3493C53.1069 47.3926 52.6851 48.3841 51.9651 49.1406C52.2834 49.5635 52.4799 50.0655 52.5335 50.592C52.5805 50.9653 52.5507 51.3442 52.446 51.7055C52.3413 52.0668 52.1638 52.4028 51.9245 52.6931C52.3337 53.0024 52.6651 53.403 52.8924 53.8629C53.1197 54.3227 53.2366 54.8293 53.2339 55.3422C53.2091 55.9123 53.0108 56.4612 52.6655 56.9155C52.5076 57.143 52.3845 57.3927 52.3001 57.6564C52.2393 58.0466 52.2393 58.4437 52.3001 58.8338C52.3501 59.1697 52.3705 59.5094 52.361 59.8488C52.3627 61.009 52.075 62.1513 51.5237 63.1722C50.9725 64.1931 50.1753 65.0603 49.2043 65.6952L52.2189 73.46Z" fill="#231F20"/>
<path d="M63.2621 60.9349C62.5605 61.4173 61.7097 61.6333 60.863 61.5439C60.0163 61.4546 59.2293 61.0659 58.6438 60.4477" fill="white"/>
<path d="M61.2828 62.0717C60.1653 62.0511 59.0979 61.6045 58.2987 60.8233C58.2511 60.7761 58.2134 60.72 58.1876 60.6581C58.1618 60.5963 58.1486 60.53 58.1486 60.463C58.1486 60.396 58.1618 60.3296 58.1876 60.2678C58.2134 60.2059 58.2511 60.1498 58.2987 60.1026C58.3459 60.0551 58.402 60.0173 58.4638 59.9915C58.5257 59.9658 58.592 59.9525 58.659 59.9525C58.726 59.9525 58.7923 59.9658 58.8542 59.9915C58.916 60.0173 58.9722 60.0551 59.0193 60.1026C59.5147 60.6443 60.1891 60.9889 60.9183 61.0728C61.6475 61.1567 62.3825 60.9744 62.988 60.5594C63.0957 60.4773 63.2315 60.4413 63.3657 60.4594C63.4999 60.4775 63.6214 60.5481 63.7036 60.6558C63.7857 60.7635 63.8216 60.8994 63.8035 61.0336C63.7855 61.1678 63.7148 61.2893 63.6071 61.3714C62.9263 61.8457 62.1123 62.091 61.2828 62.0717Z" fill="#231F20"/>
<path d="M55.2741 57.9406C54.8902 57.2723 54.3279 56.7241 53.6501 56.3572C53.1808 55.9977 52.6563 55.7166 52.0971 55.5249C51.8182 55.4307 51.5222 55.3982 51.2295 55.4297C50.9368 55.4613 50.6545 55.5561 50.4021 55.7076C50.1945 55.8662 50.0222 56.0664 49.8964 56.2954C49.7706 56.5243 49.6939 56.777 49.6713 57.0373C49.6402 57.5598 49.7233 58.0828 49.9149 58.5699C50.3223 59.6443 51.0061 60.5921 51.8972 61.3175C52.7883 62.0428 53.8552 62.5201 54.9899 62.701L54.7666 62.5995" fill="white"/>
<path d="M54.9696 63.2085H54.8985C53.6819 63.0007 52.5404 62.4796 51.5864 61.6965C50.6325 60.9134 49.8989 59.8953 49.4581 58.7425C49.2359 58.1854 49.1455 57.5844 49.1942 56.9865C49.2176 56.6532 49.3133 56.3289 49.4745 56.0362C49.6358 55.7435 49.8588 55.4894 50.128 55.2915C50.4425 55.0898 50.7986 54.9621 51.1696 54.9181C51.5406 54.8742 51.9168 54.9151 52.2697 55.0377C52.8722 55.2508 53.44 55.5518 53.9546 55.9309C54.7042 56.3537 55.3225 56.9754 55.741 57.7275C55.7678 57.7888 55.7823 57.8548 55.7836 57.9217C55.7849 57.9886 55.7729 58.0551 55.7484 58.1173C55.7239 58.1796 55.6873 58.2364 55.6407 58.2845C55.5941 58.3325 55.5385 58.3709 55.4771 58.3974C55.4166 58.426 55.351 58.4421 55.2842 58.4448C55.2174 58.4474 55.1507 58.4366 55.0882 58.4129C55.0256 58.3892 54.9685 58.3532 54.9202 58.3069C54.872 58.2606 54.8335 58.2051 54.8072 58.1436C54.4661 57.5668 53.975 57.0932 53.3862 56.7734C52.9584 56.4476 52.4824 56.1908 51.9753 56.0121C51.7687 55.936 51.5478 55.9065 51.3284 55.9258C51.1091 55.9451 50.8967 56.0127 50.7066 56.1238C50.5534 56.246 50.4286 56.4001 50.341 56.5754C50.2533 56.7506 50.2049 56.9429 50.1991 57.1388C50.1699 57.5858 50.2428 58.0335 50.4122 58.4481C50.7582 59.3603 51.3205 60.1749 52.0506 60.8219C52.7808 61.469 53.657 61.9292 54.6042 62.163C54.7157 62.1227 54.8378 62.1227 54.9493 62.163L55.1726 62.2645C55.3072 62.2915 55.4256 62.3707 55.5017 62.485C55.5778 62.5992 55.6055 62.7389 55.5786 62.8735C55.5517 63.0081 55.4724 63.1265 55.3582 63.2027C55.2439 63.2788 55.1042 63.3065 54.9696 63.2795V63.2085Z" fill="#231F20"/>
<path d="M59.2833 66.6087C57.7318 66.7553 56.1709 66.4523 54.7869 65.7358C54.7869 65.7358 56.7661 69.9176 60.8769 69.5928L59.2833 66.6087Z" fill="#231F20"/>
<path d="M60.4606 70.1105C56.4006 70.1105 54.3706 66.1216 54.3706 65.949C54.3263 65.8489 54.3142 65.7375 54.336 65.6302C54.3579 65.5229 54.4125 65.425 54.4924 65.3502C54.5788 65.281 54.6862 65.2433 54.7969 65.2433C54.9076 65.2433 55.015 65.281 55.1014 65.3502C56.3887 66.0044 57.8356 66.279 59.2731 66.1419C59.3721 66.1368 59.4706 66.1586 59.5582 66.2051C59.6458 66.2515 59.7191 66.3209 59.7704 66.4058L61.4147 69.3797C61.4547 69.4547 61.4756 69.5383 61.4756 69.6233C61.4756 69.7083 61.4547 69.7919 61.4147 69.8669C61.3751 69.9418 61.3171 70.0054 61.246 70.0516C61.1749 70.0978 61.0933 70.1251 61.0087 70.1308C60.8258 70.1357 60.6427 70.1289 60.4606 70.1105ZM56.1266 66.8524C56.5966 67.4752 57.1896 67.9949 57.8688 68.379C58.548 68.7631 59.2989 69.0036 60.0749 69.0854L58.999 67.1366C58.0327 67.1874 57.0642 67.0916 56.1266 66.8524Z" fill="#231F20"/>
<path d="M57.2211 53.4177C57.4409 53.3333 57.4449 52.811 57.2301 52.251C57.0152 51.691 56.6629 51.3054 56.4431 51.3897C56.2232 51.4741 56.2192 51.9964 56.4341 52.5564C56.6489 53.1164 57.0013 53.502 57.2211 53.4177Z" fill="#231F20"/>
<path d="M66.4999 70.415C65.221 69.6132 50.9704 66.9234 47.4788 73.2976C43.9872 79.6718 41.9877 123.723 44.921 133.447L82.5978 125.936C82.5978 125.936 73.5846 74.8303 66.4999 70.415Z" fill="#795548"/>
<path d="M67.5352 89.0504C67.5352 89.0504 77.3502 97.3328 86.4649 94.6227C95.5796 91.9127 107.059 75.6828 107.059 75.6828L100.969 68.2632C100.969 68.2632 94.7169 79.55 87.145 79.621C79.5731 79.6921 66.4999 70.415 66.4999 70.415L67.5352 89.0504Z" fill="#795548"/>
<path d="M82.8211 95.6581C73.5846 95.6581 63.7899 88.8474 63.2519 88.4718C63.1838 88.387 63.1447 88.2824 63.1405 88.1736C63.1363 88.0648 63.1672 87.9576 63.2287 87.8677C63.2901 87.7778 63.3788 87.7101 63.4817 87.6745C63.5846 87.6389 63.6962 87.6373 63.8 87.67C63.9624 87.7918 80.4968 99.2816 90.3321 92.5014C100.34 85.6096 103.71 79.3064 103.74 79.1948C103.769 79.1346 103.81 79.0809 103.861 79.0369C103.911 78.993 103.969 78.9595 104.033 78.9387C104.096 78.9179 104.163 78.91 104.23 78.9156C104.297 78.9213 104.361 78.9403 104.42 78.9715C104.541 79.0343 104.631 79.1418 104.673 79.2709C104.715 79.4 104.704 79.5403 104.644 79.6617C104.502 79.9256 101.142 86.2795 90.9107 93.3337C88.5168 94.9207 85.6924 95.7322 82.8211 95.6581Z" fill="#231F20"/>
<path d="M83.2677 79.55H83.156C81.126 79.1136 70.2858 74.3634 67.322 71.8969C65.9752 70.6352 64.194 69.9409 62.3485 69.9583C62.2139 69.9744 62.0784 69.9364 61.9718 69.8527C61.8652 69.7689 61.7963 69.6462 61.7801 69.5117C61.764 69.3771 61.802 69.2416 61.8857 69.135C61.9695 69.0284 62.0921 68.9594 62.2267 68.9433C64.3522 68.8872 66.4149 69.6671 67.9716 71.1154C70.8339 73.4905 81.5625 78.2203 83.3692 78.5654C83.4351 78.5775 83.498 78.6027 83.554 78.6397C83.6099 78.6766 83.6578 78.7245 83.6948 78.7805C83.7318 78.8364 83.7571 78.8992 83.7691 78.9652C83.7812 79.0312 83.7798 79.0989 83.765 79.1643C83.7376 79.2752 83.6736 79.3736 83.5834 79.4436C83.4931 79.5136 83.3819 79.5511 83.2677 79.55Z" fill="#231F20"/>
<path d="M90.1088 51.2417C89.9467 51.9913 89.8348 52.7508 89.7738 53.5153C89.7385 53.7474 89.7385 53.9835 89.7738 54.2156C89.892 54.4995 90.0903 54.7427 90.3444 54.9158C90.5986 55.0888 90.8976 55.1841 91.205 55.19C92.1103 55.248 93.0146 55.0622 93.8237 54.6521C96.0262 53.769 100.188 50.8255 97.1428 48.3083C94.8286 46.4712 90.6467 48.7143 90.1088 51.2417Z" fill="white"/>
<path d="M91.5703 55.7584H91.0933C90.6941 55.729 90.3125 55.5823 89.9965 55.3367C89.6804 55.0911 89.444 54.7575 89.317 54.378C89.2622 54.0896 89.2622 53.7935 89.317 53.5051C89.3774 52.7204 89.4893 51.9406 89.652 51.1706C89.9235 50.3032 90.4016 49.5147 91.0451 48.8729C91.6887 48.2312 92.4785 47.7553 93.3466 47.4861C94.0156 47.203 94.747 47.1 95.4682 47.1872C96.1894 47.2745 96.8752 47.549 97.4573 47.9835C97.8943 48.2812 98.241 48.6934 98.4594 49.175C98.6778 49.6566 98.7595 50.1889 98.6956 50.7138C98.381 52.7438 95.7217 54.4998 94.0165 55.19C93.2445 55.5329 92.4144 55.7258 91.5703 55.7584ZM95.0416 48.156C94.5641 48.1648 94.0912 48.2505 93.6409 48.4098C92.9395 48.6269 92.2987 49.0053 91.7699 49.5147C91.2411 50.0241 90.839 50.6503 90.5959 51.3431C90.4423 52.0733 90.3339 52.8123 90.2711 53.5558C90.245 53.7308 90.245 53.9087 90.2711 54.0836C90.3539 54.2651 90.4846 54.4205 90.6491 54.5332C90.8137 54.6459 91.0058 54.7115 91.2049 54.7231C92.0237 54.7585 92.8378 54.5838 93.5699 54.2156C95.1127 53.5964 97.3863 52.0435 97.6299 50.5311C97.6646 50.1803 97.6014 49.8266 97.4473 49.5095C97.2932 49.1924 97.0543 48.9242 96.757 48.7346C96.27 48.3478 95.6634 48.1432 95.0416 48.156Z" fill="#231F20"/>
<path d="M85.6632 186.795C85.6632 186.795 80.2329 191.728 80.5171 192.367C80.8013 193.007 91.7329 206.73 93.093 205.298C94.4531 203.867 91.8851 193.311 91.8851 193.311L85.6632 186.795Z" fill="#5D4037"/>
<path d="M92.829 205.917H92.626C90.0073 205.471 80.375 193.311 80.0603 192.601C79.9081 192.256 79.6239 191.586 85.3282 186.44C85.4213 186.347 85.5472 186.295 85.6783 186.295C85.8095 186.295 85.9354 186.347 86.0285 186.44L92.2505 192.946C92.3105 193.012 92.3525 193.092 92.3723 193.179C92.9914 195.717 94.8996 204.131 93.4583 205.643C93.3781 205.73 93.2808 205.799 93.1725 205.847C93.0641 205.894 92.9472 205.918 92.829 205.917ZM81.055 192.276C82.07 193.93 91.0325 204.73 92.7681 204.902C93.4076 203.959 92.5854 198.376 91.4182 193.565L85.6428 187.475C83.9656 188.927 82.4294 190.534 81.055 192.276Z" fill="#231F20"/>
<path d="M15.5774 186.967C15.5774 186.967 8.52317 187.922 7.95477 189.343C7.38637 190.764 9.47727 206.872 10.9084 206.598C12.3396 206.324 16.3387 196.021 16.3387 196.021L15.5774 186.967Z" fill="#5D4037"/>
<path d="M10.8678 207.105C10.7396 207.099 10.6145 207.064 10.5019 207.003C10.3893 206.941 10.2923 206.855 10.2182 206.75C8.74645 204.994 6.83825 190.784 7.48785 189.16C8.13745 187.536 13.7809 186.693 15.5064 186.46C15.5752 186.451 15.645 186.457 15.7117 186.476C15.7784 186.495 15.8405 186.527 15.8945 186.571C15.9484 186.614 15.9931 186.668 16.0258 186.73C16.0585 186.791 16.0786 186.858 16.0849 186.927L16.8462 195.97C16.856 196.048 16.856 196.126 16.8462 196.204C15.6079 199.371 12.573 206.78 11.0403 207.085L10.8678 207.105ZM15.0801 187.505C11.9539 187.972 8.64495 188.845 8.38105 189.535C7.67055 191.454 10.0355 204.517 10.8881 206.009C11.7712 205.268 14.0549 200.365 15.7804 195.94L15.0801 187.505Z" fill="#231F20"/>
</svg>
