<svg width="406" height="306" viewBox="0 0 406 306" fill="none" xmlns="http://www.w3.org/2000/svg">
<path opacity="0.3" d="M302.084 53.6518C337.721 63.3755 371.46 90.6384 372.119 126.224C372.779 161.81 360.518 198.178 295.243 212.824C233.927 226.577 88.6602 232.667 50.4353 188.779C14.3927 147.397 26.7249 79.585 90.7613 57.3464C135.645 41.7661 232.496 34.651 302.084 53.6518Z" fill="#E6E6E6"/>
<path opacity="0.45" d="M204.644 263.777C299.027 263.777 375.54 255.438 375.54 245.152C375.54 234.865 299.027 226.527 204.644 226.527C110.261 226.527 33.7488 234.865 33.7488 245.152C33.7488 255.438 110.261 263.777 204.644 263.777Z" fill="#E6E6E6"/>
<path d="M210.673 156.553C216.952 156.553 222.041 151.463 222.041 145.185C222.041 138.906 216.952 133.817 210.673 133.817C204.395 133.817 199.305 138.906 199.305 145.185C199.305 151.463 204.395 156.553 210.673 156.553Z" fill="#E6E6E6"/>
<path d="M205.426 128.122H163.486V156.654H205.426V128.122Z" fill="#CCCCCC"/>
<path d="M177.31 133.817H147.49V156.654H177.31V133.817Z" fill="#E6E6E6"/>
<path d="M235.642 185.886C235.642 185.703 235.642 185.49 235.642 185.277C234.983 178.974 231.197 166.398 229.278 160.227L228.142 156.654H132.823C132.823 156.654 132.051 157.963 130.996 160.227C128.702 165.18 125.058 174.599 125.058 184.698V232.738H293.335V192.453L235.642 185.886Z" fill="#795548"/>
<path d="M125.068 191.58C125.068 187.46 121.728 184.12 117.608 184.12C113.488 184.12 110.148 187.46 110.148 191.58V216.64C110.148 220.761 113.488 224.101 117.608 224.101C121.728 224.101 125.068 220.761 125.068 216.64V191.58Z" fill="#231F20"/>
<path opacity="0.44" d="M138.385 160.227V185.277H125.058V184.698C125.058 174.599 128.702 165.18 130.996 160.227H138.385Z" fill="white"/>
<path opacity="0.44" d="M186.516 160.227H143.359V185.277H186.516V160.227Z" fill="white"/>
<path opacity="0.44" d="M235.602 185.277H190.495V160.227H229.238C231.156 166.398 234.942 178.974 235.602 185.277Z" fill="white"/>
<path opacity="0.08" d="M213.627 195.833H201.295V201.202H213.627V195.833Z" fill="black"/>
<path d="M164.937 255.586C176.194 255.586 185.319 246.461 185.319 235.205C185.319 223.949 176.194 214.824 164.937 214.824C153.681 214.824 144.556 223.949 144.556 235.205C144.556 246.461 153.681 255.586 164.937 255.586Z" fill="#231F20"/>
<path d="M164.937 246.025C170.913 246.025 175.757 241.181 175.757 235.205C175.757 229.229 170.913 224.385 164.937 224.385C158.962 224.385 154.118 229.229 154.118 235.205C154.118 241.181 158.962 246.025 164.937 246.025Z" fill="#E6E6E6"/>
<path d="M252.217 255.586C263.474 255.586 272.599 246.461 272.599 235.205C272.599 223.949 263.474 214.824 252.217 214.824C240.961 214.824 231.836 223.949 231.836 235.205C231.836 246.461 240.961 255.586 252.217 255.586Z" fill="#231F20"/>
<path d="M252.217 246.025C258.193 246.025 263.037 241.181 263.037 235.205C263.037 229.229 258.193 224.385 252.217 224.385C246.242 224.385 241.397 229.229 241.397 235.205C241.397 241.181 246.242 246.025 252.217 246.025Z" fill="#E6E6E6"/>
<path d="M299.141 212.367H293.325V232.728H299.141V212.367Z" fill="#231F20"/>
<path d="M140.578 147.214V150.909H143.724V156.654H147.723V150.909H210.734V156.654H214.733V150.909H217.88V147.214H140.578Z" fill="#231F20"/>
<path d="M95.41 119.089C104.322 106.574 99.7746 93.0845 99.7746 93.0845C83.8797 101.032 81.1087 115.638 80.9463 124.133C78.49 100.22 57.4084 96.2107 57.4084 96.2107C57.0569 101.448 57.973 106.692 60.0791 111.5C62.1852 116.308 65.4193 120.537 69.5073 123.829C53.5109 118.886 39.3313 128.64 39.3313 128.64C55.2363 141.449 69.02 137.45 76.125 133.715C65.6578 146.446 58.2418 161.403 54.4446 177.441C49.8467 196.472 52.5567 243.416 52.5567 243.416H68.2182C68.2182 243.416 58.87 173.006 82.6413 133.319C95.3288 155.294 116.928 149.356 116.928 149.356C113.93 142.016 108.338 136.033 101.216 132.548C105.266 131.77 109.12 130.192 112.553 127.908C115.987 125.623 118.93 122.677 121.211 119.241C117.153 117.441 112.766 116.499 108.327 116.473C103.887 116.447 99.4897 117.337 95.41 119.089V119.089Z" fill="#E6E6E6"/>
<path d="M333.164 133.715C340.269 137.481 354.042 141.48 369.947 128.64C369.947 128.64 355.737 118.937 339.781 123.88C343.868 120.587 347.101 116.358 349.205 111.55C351.309 106.742 352.224 101.498 351.87 96.2615C351.87 96.2615 330.799 100.322 328.322 124.184C328.17 115.689 325.389 101.083 309.494 93.1353C309.494 93.1353 304.957 106.625 313.868 119.14C309.79 117.389 305.395 116.5 300.957 116.526C296.519 116.552 292.135 117.494 288.077 119.292C290.358 122.726 293.299 125.672 296.731 127.957C300.162 130.241 304.014 131.819 308.063 132.599C300.94 136.068 295.338 142.031 292.32 149.356C292.32 149.356 313.929 155.294 326.607 133.319C350.449 173.006 341.04 243.335 341.04 243.335H356.701C356.701 243.335 359.411 196.422 354.803 177.36C351.006 161.354 343.605 146.427 333.164 133.715V133.715Z" fill="#E6E6E6"/>
<path d="M102.87 247.395C102.87 247.395 107.57 240.635 100.566 238.778C93.5627 236.92 102.251 227.806 95.7247 226.598C89.1982 225.39 90.335 235.063 90.335 235.063C90.335 235.063 85.8386 231.185 82.7225 234.444C79.6065 237.702 83.9202 241.305 83.9202 241.305C83.9202 241.305 77.6475 243.477 81.5553 247.395H102.87Z" fill="#E6E6E6"/>
<path d="M93.451 248.319C93.451 248.319 96.4351 243.244 100.83 243.843C105.225 244.441 104.758 248.319 104.758 248.319H93.451Z" fill="#C9C9C9"/>
<path d="M325.744 243.162C325.744 243.162 329.327 238.016 323.988 236.595C318.649 235.174 325.267 228.242 320.304 227.328C315.34 226.415 316.162 233.753 316.162 233.753C316.162 233.753 312.722 230.8 310.357 233.287C307.992 235.773 311.301 238.493 311.301 238.493C311.301 238.493 306.52 240.148 309.504 243.162H325.744Z" fill="#E6E6E6"/>
<path d="M326.921 251.81C326.921 251.81 329.195 247.913 332.544 248.4C332.969 248.415 333.387 248.516 333.771 248.698C334.155 248.88 334.498 249.139 334.778 249.458C335.059 249.778 335.271 250.151 335.402 250.556C335.533 250.96 335.579 251.387 335.539 251.81H326.921Z" fill="#C9C9C9"/>
<path d="M269.726 88.9027C281.52 88.9027 291.082 79.3415 291.082 67.5471C291.082 55.7528 281.52 46.1915 269.726 46.1915C257.932 46.1915 248.37 55.7528 248.37 67.5471C248.37 79.3415 257.932 88.9027 269.726 88.9027Z" fill="#FFC100"/>
<path opacity="0.49" d="M177.625 75.1698C177.625 72.7955 176.682 70.5185 175.003 68.8396C173.324 67.1607 171.047 66.2175 168.673 66.2175C168.19 66.2223 167.708 66.2631 167.231 66.3393C166.2 64.4184 164.667 62.8131 162.796 61.6942C160.924 60.5753 158.785 59.9848 156.604 59.9854H156.168C156.453 58.8501 156.599 57.6846 156.604 56.5141C156.655 54.6019 156.323 52.699 155.626 50.9175C154.929 49.136 153.883 47.5121 152.549 46.1416C151.214 44.7712 149.619 43.6819 147.856 42.9382C146.094 42.1944 144.201 41.8112 142.288 41.8112C140.375 41.8112 138.481 42.1944 136.719 42.9382C134.957 43.6819 133.361 44.7712 132.027 46.1416C130.692 47.5121 129.646 49.136 128.949 50.9175C128.253 52.699 127.92 54.6019 127.971 56.5141C127.976 57.6846 128.123 58.8501 128.408 59.9854C128.266 59.9854 128.123 59.9854 127.971 59.9854C126.358 59.9386 124.751 60.216 123.246 60.8012C121.742 61.3863 120.37 62.2674 119.212 63.3922C118.054 64.517 117.134 65.8627 116.505 67.3496C115.877 68.8365 115.553 70.4344 115.553 72.0487C115.553 73.663 115.877 75.2609 116.505 76.7478C117.134 78.2347 118.054 79.5803 119.212 80.7051C120.37 81.8299 121.742 82.711 123.246 83.2962C124.751 83.8814 126.358 84.1588 127.971 84.1119H169.84V84.0308C171.992 83.7499 173.968 82.6961 175.401 81.0658C176.833 79.4355 177.624 77.34 177.625 75.1698V75.1698Z" fill="#E6E6E6"/>
<path opacity="0.49" d="M257.556 112.4C257.556 110.709 256.885 109.088 255.689 107.893C254.494 106.697 252.873 106.026 251.182 106.026C250.842 106.031 250.503 106.061 250.167 106.117C249.437 104.739 248.346 103.586 247.01 102.781C245.674 101.976 244.144 101.551 242.585 101.55H242.27C242.474 100.743 242.579 99.915 242.585 99.0832C242.585 96.3805 241.511 93.7884 239.6 91.8773C237.689 89.9662 235.097 88.8926 232.394 88.8926C229.692 88.8926 227.1 89.9662 225.189 91.8773C223.277 93.7884 222.204 96.3805 222.204 99.0832C222.21 99.915 222.315 100.743 222.518 101.55H222.204C219.979 101.626 217.871 102.564 216.324 104.165C214.777 105.766 213.912 107.905 213.912 110.131C213.912 112.358 214.777 114.497 216.324 116.098C217.871 117.699 219.979 118.637 222.204 118.713H251.994V118.652C253.52 118.459 254.925 117.718 255.947 116.569C256.97 115.419 257.542 113.938 257.556 112.4V112.4Z" fill="#E6E6E6"/>
</svg>
