<svg xmlns="http://www.w3.org/2000/svg" viewBox="0 0 400 300" width="406" height="306" class="illustration styles_illustrationTablet__1DWOa"><g id="_513_smart_phone_data_flatline" data-name="#513_smart_phone_data_flatline"><path d="M304.87,66.22s-2.15-4-5.59-9.43c0,0-10.94,8.17-10.84,7.71S304.87,66.22,304.87,66.22Z" fill="#231f20"></path><path d="M304.87,66.72h-.07c-5.75-.76-15.14-1.9-16.16-1.76-.29.11-.37,0-.47,0a.51.51,0,0,1-.22-.53c0-.15.05-.29.37-.36h0c.65-.26,6.88-4.83,10.66-7.65a.49.49,0,0,1,.39-.09.48.48,0,0,1,.33.22c3.41,5.42,5.59,9.42,5.61,9.46a.49.49,0,0,1,0,.52A.5.5,0,0,1,304.87,66.72ZM290.21,64c2.06.12,6,.56,13.74,1.57-.78-1.4-2.49-4.38-4.81-8.07C294.31,61.12,291.68,63,290.21,64Z" fill="#231f20"></path><polygon points="160.01 231.18 154.55 222.08 162.1 215.25 160.01 231.18" fill="#231f20"></polygon><path d="M160,231.68a.48.48,0,0,1-.43-.25l-5.46-9.09a.51.51,0,0,1,.09-.63l7.56-6.83a.48.48,0,0,1,.56-.07.51.51,0,0,1,.27.51l-2.1,15.92a.51.51,0,0,1-.39.43Zm-4.82-9.51,4.51,7.52,1.73-13.16Z" fill="#231f20"></path><path d="M163.55,233.09l87.84,12.52a7.65,7.65,0,0,0,8.32-5.39l45.47-170.1a5.38,5.38,0,0,0-5.05-6.93L210.54,56a7.91,7.91,0,0,0-8,5.66L159,226.07A5.48,5.48,0,0,0,163.55,233.09Z" fill="#231f20"></path><path d="M252.39,246.18a7.69,7.69,0,0,1-1.07-.07l-87.84-12.53a6,6,0,0,1-4.25-2.61,6.12,6.12,0,0,1-.76-5L202.08,61.5a8.45,8.45,0,0,1,8.5-6l89.59,7.22a6.2,6.2,0,0,1,4.69,2.53,5.93,5.93,0,0,1,.8,5L260.2,240.34A8.19,8.19,0,0,1,252.39,246.18ZM210,56.45a7.43,7.43,0,0,0-7,5.31L159.44,226.2a5.13,5.13,0,0,0,.62,4.21,5,5,0,0,0,3.56,2.18h0l87.84,12.53a7.16,7.16,0,0,0,7.77-5L304.7,70A5,5,0,0,0,304,65.8a5.24,5.24,0,0,0-4-2.11L210.5,56.47A4.26,4.26,0,0,0,210,56.45Z" fill="#231f20"></path><path d="M157.83,223.7l87.84,12.52a7.65,7.65,0,0,0,8.32-5.39l45.47-170.1a5.38,5.38,0,0,0-5-6.93l-89.59-7.22a7.91,7.91,0,0,0-8,5.66l-43.6,164.44A5.47,5.47,0,0,0,157.83,223.7Z" fill="#fff"></path><path d="M246.67,236.79a7.69,7.69,0,0,1-1.07-.07l-87.84-12.53a6,6,0,0,1-4.25-2.61,6.15,6.15,0,0,1-.76-5L196.36,52.11a8.43,8.43,0,0,1,8.5-6l89.59,7.23a6.17,6.17,0,0,1,4.69,2.53,5.9,5.9,0,0,1,.8,5L254.48,231A8.19,8.19,0,0,1,246.67,236.79ZM204.28,47.06a7.44,7.44,0,0,0-7,5.31l-43.6,164.44a5.16,5.16,0,0,0,.62,4.22,5,5,0,0,0,3.56,2.17h0l87.84,12.53a7.17,7.17,0,0,0,7.77-5L299,60.61a5,5,0,0,0-.66-4.2,5.24,5.24,0,0,0-3.95-2.11l-89.59-7.22Z" fill="#231f20"></path><polygon points="290.78 71.93 199.06 63.98 163.86 196.66 254.24 208.69 290.78 71.93" fill="#e6e7e8"></polygon><path d="M254.24,208.84h0l-90.38-12a.16.16,0,0,1-.13-.2l35.2-132.68a.15.15,0,0,1,.16-.12l91.72,7.95a.15.15,0,0,1,.12.07.12.12,0,0,1,0,.13L254.39,208.73A.14.14,0,0,1,254.24,208.84Zm-90.18-12.31,90.06,12L290.58,72.07l-91.4-7.92Z" fill="#d1d3d4"></path><path d="M194.14,222.72l17.14,2.41a4.63,4.63,0,0,0,5-3.29l1.71-6.4a3.44,3.44,0,0,0-3-4.39l-17.17-2.33a4.61,4.61,0,0,0-4.94,3.29l-1.69,6.34A3.42,3.42,0,0,0,194.14,222.72Z" fill="#fff"></path><path d="M211.86,225.67a4.74,4.74,0,0,1-.65,0l-17.14-2.41a3.91,3.91,0,0,1-3.32-5l1.68-6.34a5.13,5.13,0,0,1,5.5-3.65l17.17,2.32a4.08,4.08,0,0,1,2.87,1.74,4,4,0,0,1,.5,3.28l-1.7,6.39A5.18,5.18,0,0,1,211.86,225.67ZM197.3,209.18a4.12,4.12,0,0,0-3.9,3l-1.69,6.34a3,3,0,0,0,.37,2.45,2.94,2.94,0,0,0,2.13,1.29h0l17.14,2.41a4.11,4.11,0,0,0,4.45-2.92l1.7-6.4a3,3,0,0,0-.36-2.46,3,3,0,0,0-2.18-1.3l-17.17-2.33A4,4,0,0,0,197.3,209.18Z" fill="#e6e7e8"></path><path d="M263.65,60.55h0l-26.2-2.19a.49.49,0,0,1-.45-.54.5.5,0,0,1,.54-.45l26.2,2.19a.5.5,0,0,1,0,1Z" fill="#e6e7e8"></path><path d="M233.81,58.06h-.05l-3.47-.29a.5.5,0,0,1-.46-.54.52.52,0,0,1,.54-.46l3.48.29a.5.5,0,0,1,.45.54A.49.49,0,0,1,233.81,58.06Z" fill="#e6e7e8"></path><path d="M224.27,187.2a.49.49,0,0,1-.41-.22l-25-35.88a.5.5,0,1,1,.82-.57l25,35.88a.51.51,0,0,1-.13.7A.47.47,0,0,1,224.27,187.2Z" fill="#fff"></path><line x1="178.4" y1="167.93" x2="210.56" y2="170.74" fill="#fff"></line><path d="M210.56,171.24h0l-32.16-2.81a.5.5,0,0,1-.46-.54.51.51,0,0,1,.54-.46l32.17,2.81a.51.51,0,0,1,.45.54A.5.5,0,0,1,210.56,171.24Z" fill="#231f20"></path><line x1="176.31" y1="173.7" x2="202.22" y2="176.04" fill="#fff"></line><path d="M202.22,176.54h-.05l-25.9-2.33a.5.5,0,0,1-.46-.54.5.5,0,0,1,.55-.45l25.9,2.33a.5.5,0,0,1,.46.54A.51.51,0,0,1,202.22,176.54Z" fill="#231f20"></path><line x1="240.6" y1="112.89" x2="272.76" y2="115.7" fill="#fff"></line><path d="M272.76,116.2h0l-32.17-2.81a.5.5,0,0,1,.09-1l32.16,2.81a.51.51,0,0,1,.46.54A.5.5,0,0,1,272.76,116.2Z" fill="#231f20"></path><line x1="238.51" y1="118.67" x2="264.42" y2="121" fill="#fff"></line><path d="M264.42,121.5h-.05l-25.91-2.33a.5.5,0,0,1-.45-.54.49.49,0,0,1,.54-.45l25.91,2.33a.49.49,0,0,1,.45.54A.5.5,0,0,1,264.42,121.5Z" fill="#231f20"></path><path d="M199.77,95.34l29.68,1.93a2.81,2.81,0,0,1,2.58,3.42l-4.74,18a3.74,3.74,0,0,1-3.91,2.93l-29.39-2a2.77,2.77,0,0,1-2.47-3.49l4.41-18A3.72,3.72,0,0,1,199.77,95.34Z" fill="#fff"></path><path d="M223.69,122.11l-.36,0-29.38-2a3.24,3.24,0,0,1-2.39-1.32A3.42,3.42,0,0,1,191,116l4.41-18a4.25,4.25,0,0,1,4.37-3.2l29.67,1.94a3.3,3.3,0,0,1,3,4l-4.75,18A4.24,4.24,0,0,1,223.69,122.11Zm-24.2-26.29a3.25,3.25,0,0,0-3.08,2.45l-4.4,18a2.38,2.38,0,0,0,.36,2,2.28,2.28,0,0,0,1.66.92l29.39,2a3.22,3.22,0,0,0,3.38-2.53l4.74-18a2.31,2.31,0,0,0-.4-1.86,2.36,2.36,0,0,0-1.73-.93l-29.67-1.94h-.25Z" fill="#231f20"></path><path d="M209.26,116.94c.46-.35.9-.7,1.35-1,1.26-.94,2.53-1.86,3.79-2.79.84-.61,1.67-1.23,2.45-1.92a8.63,8.63,0,0,0,1.78-2.09,7.66,7.66,0,0,0,.7-1.68,10.37,10.37,0,0,0,.31-1.55,3.68,3.68,0,0,0-2.34-4,4.89,4.89,0,0,0-5,1,6,6,0,0,0-1,1l-.06.07,0-.1a4.32,4.32,0,0,0-1.75-1.94,4.15,4.15,0,0,0-2.32-.54,5.08,5.08,0,0,0-4.55,3.42,6.42,6.42,0,0,0-.29,1.55,6.58,6.58,0,0,0,0,1.66,5.42,5.42,0,0,0,.87,2.28,14.11,14.11,0,0,0,1.59,1.95c.87.92,1.76,1.82,2.64,2.75.59.63,1.17,1.28,1.76,1.93Z" fill="#d1d3d4"></path><path d="M190.58,136.71l22.51,2.47a2.14,2.14,0,0,1,1.84,2.69l-4.21,13.51a2.83,2.83,0,0,1-3.06,2.09L185.37,155a2.11,2.11,0,0,1-1.76-2.74l3.95-13.52A2.85,2.85,0,0,1,190.58,136.71Z" fill="#fff"></path><path d="M208,158a2.83,2.83,0,0,1-.41,0l-22.28-2.49a2.59,2.59,0,0,1-1.86-1.14,2.65,2.65,0,0,1-.32-2.22l4-13.53a3.38,3.38,0,0,1,3.56-2.38l22.5,2.47a2.69,2.69,0,0,1,1.91,1.14,2.66,2.66,0,0,1,.37,2.17l-4.22,13.54A3.36,3.36,0,0,1,208,158Zm-17.75-20.81a2.35,2.35,0,0,0-2.21,1.67l-3.95,13.53a1.7,1.7,0,0,0,.19,1.4,1.64,1.64,0,0,0,1.15.7L207.71,157a2.34,2.34,0,0,0,2.53-1.72l4.21-13.54a1.6,1.6,0,0,0-.23-1.33,1.65,1.65,0,0,0-1.2-.71l-22.49-2.47h0A1.23,1.23,0,0,0,190.25,137.19Z" fill="#231f20"></path><path d="M236.37,128l31.18,3.16a2.08,2.08,0,0,1,2,2.54l-5.16,19.2a3,3,0,0,1-3.25,2l-31.16-4a2,2,0,0,1-1.83-2.52l5.12-18.42A2.92,2.92,0,0,1,236.37,128Z" fill="#fff"></path><path d="M261.56,155.37a3.4,3.4,0,0,1-.45,0l-31.15-4a2.69,2.69,0,0,1-2-1.15,2.36,2.36,0,0,1-.3-2l5.12-18.42a3.37,3.37,0,0,1,3.59-2.29l31.18,3.15a2.91,2.91,0,0,1,2.14,1.18,2.37,2.37,0,0,1,.33,2L264.91,153A3.44,3.44,0,0,1,261.56,155.37Zm-25.47-26.89a2.41,2.41,0,0,0-2.3,1.58l-5.12,18.42a1.45,1.45,0,0,0,.17,1.17,1.71,1.71,0,0,0,1.25.71l31.15,4a2.47,2.47,0,0,0,2.71-1.59l5.15-19.2a1.35,1.35,0,0,0-.19-1.16,1.88,1.88,0,0,0-1.41-.75l-31.18-3.16h-.23Z" fill="#231f20"></path><polygon points="252.48 149.19 256.18 149.65 258.79 140 255.09 139.59 252.48 149.19" fill="#d1d3d4"></polygon><path d="M256.18,149.81h0l-3.7-.45a.16.16,0,0,1-.13-.2l2.61-9.6a.15.15,0,0,1,.17-.12l3.7.42a.15.15,0,0,1,.11.07.16.16,0,0,1,0,.12l-2.61,9.65A.16.16,0,0,1,256.18,149.81Zm-3.5-.75,3.38.42,2.53-9.34-3.38-.38Z" fill="#d1d3d4"></path><path d="M253.48,140.23s-3-1.1-3.8-3-.27-4.93-.72-5.14a2.12,2.12,0,0,0-2.31.78c-.72.92-1.14,3.74-.54,5.67,0,0-4-.49-5.8-.69s-2.55,1.31-1.68,2.06c0,0-1.47,0-1.29,1.32s.68,1.42,1.47,1.52c0,0-1,.11-1,1.08s1.22,1.35,1.22,1.35a1.09,1.09,0,0,0-.73,1.54c.54,1.14,2.46,1.27,7,1.55s6.11-.54,6.11-.54Z" fill="#d1d3d4"></path><path d="M247.16,148.53c-.55,0-1.16,0-1.85-.06-4.51-.28-6.57-.41-7.16-1.64a1.21,1.21,0,0,1-.06-1,1.34,1.34,0,0,1,.56-.59,1.68,1.68,0,0,1-1-1.35,1.08,1.08,0,0,1,.54-1c-.54-.16-.88-.5-1-1.55a1.23,1.23,0,0,1,.26-1,1.44,1.44,0,0,1,.87-.45,1.14,1.14,0,0,1-.1-1.13,1.94,1.94,0,0,1,2.12-1c1.53.17,4.68.55,5.57.66-.52-2-.11-4.65.63-5.59A2.28,2.28,0,0,1,249,132c.27.13.28.61.3,1.66a9.62,9.62,0,0,0,.49,3.56c.8,1.78,3.69,2.87,3.72,2.88a.16.16,0,0,1,.09.19l-2,7.54a.16.16,0,0,1-.07.09C251.45,147.93,250.33,148.53,247.16,148.53ZM240,138a1.53,1.53,0,0,0-1.49.8.83.83,0,0,0,.23,1,.14.14,0,0,1,0,.17.15.15,0,0,1-.14.1,1.43,1.43,0,0,0-.95.38.93.93,0,0,0-.19.77c.16,1.24.61,1.29,1.34,1.38a.16.16,0,0,1,.14.16.15.15,0,0,1-.14.15s-.89.12-.86.93,1.1,1.2,1.11,1.2a.19.19,0,0,1,.11.15.16.16,0,0,1-.11.15,1.25,1.25,0,0,0-.7.58.86.86,0,0,0,.06.74c.51,1.07,2.51,1.19,6.89,1.47,4,.25,5.65-.37,6-.5l2-7.34c-.6-.24-3-1.3-3.76-3a9.77,9.77,0,0,1-.52-3.68,4.34,4.34,0,0,0-.12-1.39,2,2,0,0,0-2.11.74c-.71.9-1.09,3.69-.52,5.54a.14.14,0,0,1,0,.15.16.16,0,0,1-.14.05s-4-.49-5.79-.69Z" fill="#d1d3d4"></path><path d="M214.89,194.41l34,3.92a5.4,5.4,0,0,0,5.6-4l5.35-20.19a4,4,0,0,0-3.21-5.18l-34.09-4.34a5.43,5.43,0,0,0-5.75,4.07l-5.23,20.58A4,4,0,0,0,214.89,194.41Z" fill="#fff"></path><path d="M249.36,198.86l-.57,0-34-3.92h0a4.36,4.36,0,0,1-3.17-1.87,4.74,4.74,0,0,1-.63-3.89l5.23-20.58a6,6,0,0,1,6.3-4.44l34.09,4.33a4.33,4.33,0,0,1,3.06,1.87,4.88,4.88,0,0,1,.57,3.94l-5.35,20.19A6,6,0,0,1,249.36,198.86Zm-34.42-4.94,34,3.92A4.92,4.92,0,0,0,254,194.2L259.31,174a3.73,3.73,0,0,0-.44-3.12,3.29,3.29,0,0,0-2.35-1.43l-34.09-4.34a4.94,4.94,0,0,0-5.2,3.7L212,189.39a3.76,3.76,0,0,0,.48,3.08,3.42,3.42,0,0,0,2.46,1.45Z" fill="#231f20"></path><path d="M225.91,181.11l12,9.76a1.72,1.72,0,0,0,2.6-1.08l4.19-16a1.37,1.37,0,0,0-1.9-1.66l-16.22,6.27A1.66,1.66,0,0,0,225.91,181.11Z" fill="#d1d3d4"></path><path d="M238,102.63l35.92,3.74a2.76,2.76,0,0,0,2.78-2.16l5.84-24a1.93,1.93,0,0,0-1.63-2.54l-35.84-3a2.73,2.73,0,0,0-2.66,2.12l-5.9,23.31A1.89,1.89,0,0,0,238,102.63Z" fill="#fff"></path><path d="M244.87,74.66H245l35.84,3a1.93,1.93,0,0,1,1.63,2.54l-5.84,24a2.8,2.8,0,0,1-2.57,2.17h-.21L238,102.63a1.89,1.89,0,0,1-1.49-2.53l5.9-23.31a2.77,2.77,0,0,1,2.5-2.13m0-1a3.78,3.78,0,0,0-3.47,2.88l-5.9,23.31a3.22,3.22,0,0,0,.42,2.64,2.64,2.64,0,0,0,1.94,1.13l35.91,3.74a1.77,1.77,0,0,0,.32,0,3.8,3.8,0,0,0,3.54-2.94l5.84-24a3.2,3.2,0,0,0-.46-2.63A2.77,2.77,0,0,0,281,76.63l-35.84-3Z" fill="#231f20"></path><path d="M258,95.76a.51.51,0,0,1-.41-.2L243,75.47a.51.51,0,0,1,.11-.7.5.5,0,0,1,.7.12l14.23,19.68L281.93,78a.51.51,0,0,1,.7.13.5.5,0,0,1-.13.7L258.25,95.67A.51.51,0,0,1,258,95.76Z" fill="#d1d3d4"></path><path d="M236.71,102.37a.5.5,0,0,1-.42-.22.51.51,0,0,1,.14-.7L254.15,90a.5.5,0,0,1,.69.14.51.51,0,0,1-.14.7L237,102.29A.47.47,0,0,1,236.71,102.37Z" fill="#d1d3d4"></path><path d="M275.51,106.39a.49.49,0,0,1-.39-.19L263.36,91.55a.5.5,0,0,1,.08-.7.49.49,0,0,1,.7.08l11.76,14.65a.49.49,0,0,1-.07.7A.56.56,0,0,1,275.51,106.39Z" fill="#d1d3d4"></path><path d="M166.44,150.81a43,43,0,0,1,9.89-12.88c6.56-5.67,10.49-9.79,8.43-10.91s-8.88,3.72-8.88,3.72l5.16-18.9s-11.37,7.49-14.6,13.86-9.6,19.81-9.6,19.81Z" fill="#fff"></path><path d="M166.44,151.31a.5.5,0,0,1-.24-.06l-9.6-5.31a.5.5,0,0,1-.21-.65c.06-.13,6.41-13.51,9.61-19.81s14.29-13.75,14.76-14.06a.5.5,0,0,1,.76.55l-4.8,17.59c2.19-1.44,6.48-4,8.28-3a1.43,1.43,0,0,1,.8,1.15c.19,1.74-2.46,4.8-9.14,10.58A42.62,42.62,0,0,0,166.9,151a.5.5,0,0,1-.3.27A.44.44,0,0,1,166.44,151.31Zm-8.95-6,8.73,4.82A44.33,44.33,0,0,1,176,137.55c2.23-1.92,9-7.79,8.81-9.71a.47.47,0,0,0-.29-.38c-1.24-.68-5.63,1.75-8.35,3.69a.51.51,0,0,1-.78-.54l4.8-17.58c-2.92,2.06-10.76,7.89-13.3,12.9C164,131.59,158.6,143,157.49,145.3Z" fill="#231f20"></path><line x1="203.5" y1="73.66" x2="235.67" y2="76.47" fill="#fff"></line><path d="M235.67,77h0l-32.16-2.81a.51.51,0,0,1-.46-.54.5.5,0,0,1,.54-.46L235.71,76a.5.5,0,0,1,0,1Z" fill="#231f20"></path><line x1="201.41" y1="79.43" x2="227.32" y2="81.76" fill="#fff"></line><path d="M227.32,82.26h0l-25.91-2.33a.49.49,0,0,1-.45-.54.5.5,0,0,1,.54-.46l25.91,2.34a.5.5,0,0,1-.05,1Z" fill="#231f20"></path><path d="M157.07,81.35s6.77,11.16,5.2,13.36-6.47.51-6.47.51" fill="#fff"></path><path d="M159.34,96.34a12.94,12.94,0,0,1-3.7-.64.5.5,0,1,1,.33-1c1.26.43,4.78,1.22,5.89-.33,1-1.33-2.48-8.29-5.22-12.81a.5.5,0,0,1,.17-.69.51.51,0,0,1,.69.17c1.16,1.91,6.86,11.56,5.17,13.91A3.92,3.92,0,0,1,159.34,96.34Z" fill="#231f20"></path><path d="M118,101.88c-5,.09-9.35-1.68-14.78-5-1.54-.93-3.3-2.41-2.81-4.13a7.56,7.56,0,0,0,.62-1.72c0-1-1-1.68-1.81-2.28A8.9,8.9,0,0,1,102.38,73a10.74,10.74,0,0,1,6.43-18.29c-1.43.15,1.54-8,2-8.76a14.91,14.91,0,0,1,7.66-6,15.15,15.15,0,0,1,12.66,1.38c.87-2.2,3.34-3.43,5.7-3.53a17.58,17.58,0,0,1,6.87,1.55c2.63,1,5.48,2.28,6.62,4.84a5.18,5.18,0,0,0,.8,1.55,4.36,4.36,0,0,0,2,.92c7.92,2.47,9.5,14.39,4.06,19.46-1,.89-2,.45-2.8,1.55-.52.73-.59,2.75-.87,3.68a35.23,35.23,0,0,1-2.78,6.51,63.38,63.38,0,0,1-9,12,38.3,38.3,0,0,1-15.42,10.49A26.54,26.54,0,0,1,118,101.88Z" fill="#fff"></path><path d="M117.62,102.38c-4.49,0-8.77-1.48-14.64-5.06-3.08-1.87-3.35-3.59-3-4.7a4.69,4.69,0,0,1,.31-.75,2.2,2.2,0,0,0,.29-.85c0-.67-.7-1.2-1.4-1.71l-.2-.15a9.4,9.4,0,0,1,2.52-16.44A11.24,11.24,0,0,1,108,54.3c-.25-2.15,2.13-8.2,2.41-8.65a15.4,15.4,0,0,1,7.93-6.23,15.64,15.64,0,0,1,12.6,1.14,7.07,7.07,0,0,1,5.9-3.32,17.87,17.87,0,0,1,7.07,1.58c2.69,1,5.66,2.35,6.89,5.11l.18.41a3.17,3.17,0,0,0,.53,1,3.22,3.22,0,0,0,1.45.69l.32.09c3.58,1.12,6.29,4.29,7.25,8.49,1,4.52-.14,9.16-3,11.82a3.52,3.52,0,0,1-1.56.78,1.83,1.83,0,0,0-1.19.69,6.66,6.66,0,0,0-.52,2.12,11.47,11.47,0,0,1-.27,1.41A35.23,35.23,0,0,1,151.13,78a64.1,64.1,0,0,1-9.11,12,38.74,38.74,0,0,1-15.62,10.62,27,27,0,0,1-8.37,1.67h-.41Zm-8.76-47.21a10.25,10.25,0,0,0-6.13,17.44.5.5,0,0,1,.13.49.51.51,0,0,1-.36.35,8.41,8.41,0,0,0-3,14.91l.2.14c.82.61,1.85,1.36,1.81,2.56a3.07,3.07,0,0,1-.39,1.24,5,5,0,0,0-.25.59c-.4,1.41,1.19,2.72,2.59,3.58,5.87,3.57,10.08,5,14.51,4.91h0a25.9,25.9,0,0,0,8.06-1.62,37.53,37.53,0,0,0,15.21-10.35,63.7,63.7,0,0,0,9-11.85A34.47,34.47,0,0,0,153,71.14a11.71,11.71,0,0,0,.24-1.27,6.62,6.62,0,0,1,.7-2.55,2.8,2.8,0,0,1,1.73-1.08,2.43,2.43,0,0,0,1.14-.55c2.6-2.41,3.66-6.68,2.71-10.85-.89-3.91-3.29-6.74-6.58-7.76l-.3-.1a3.88,3.88,0,0,1-1.89-1,3.81,3.81,0,0,1-.74-1.31c0-.12-.1-.25-.16-.37-1.07-2.41-3.83-3.63-6.34-4.58a17,17,0,0,0-6.67-1.52c-2,.09-4.42,1.12-5.26,3.22a.52.52,0,0,1-.31.29.57.57,0,0,1-.42,0,14.53,14.53,0,0,0-12.23-1.33,14.34,14.34,0,0,0-7.4,5.81c-.45.73-2.56,6.86-2.29,8a.5.5,0,0,1,.37.43.5.5,0,0,1-.44.55Z" fill="#231f20"></path><path d="M156,66.38a3.27,3.27,0,0,1,.94.78,9.84,9.84,0,0,1,2,4.92c.58,3.67-.11,7.4-.28,11.08q-.5,10.85-1.5,21.65c-.42,4.57-12.29,4.21-14.33,2.76L144,125.74l-24.56-10.52,1.6-14.93s8.07.37,13.06-8.79a32.64,32.64,0,0,0,3-8.78c.57-2.6,1.8-6.31,1.73-8.94a12.07,12.07,0,0,0-.77-3.45,4.37,4.37,0,0,0,3.25.31,2.92,2.92,0,0,0,1.5-2,8.77,8.77,0,0,0,.08-2.61,4.41,4.41,0,0,0,6.22-1.75c.27,1.14,1.66,1.53,2.82,1.71C153.58,66.23,154.82,65.74,156,66.38Z" fill="#fff"></path><path d="M144,126.24a.45.45,0,0,1-.2,0l-24.56-10.52a.52.52,0,0,1-.3-.52l1.6-14.92a.51.51,0,0,1,.52-.45c.31,0,7.83.23,12.6-8.53a32.46,32.46,0,0,0,2.93-8.64c.16-.71.36-1.5.57-2.32a26.77,26.77,0,0,0,1.15-6.51,11.21,11.21,0,0,0-.75-3.3.5.5,0,0,1,.65-.63,4,4,0,0,0,2.87.33,2.41,2.41,0,0,0,1.22-1.7,8,8,0,0,0,.07-2.45.49.49,0,0,1,.25-.47.51.51,0,0,1,.53,0A3.92,3.92,0,0,0,148.62,64a.51.51,0,0,1,.5-.29.49.49,0,0,1,.44.38c.16.67.94,1.1,2.41,1.34a9.81,9.81,0,0,0,1.77.07,4.76,4.76,0,0,1,2.51.4h0a3.85,3.85,0,0,1,1.08.89A10.06,10.06,0,0,1,159.42,72a33,33,0,0,1,0,8c-.09,1.06-.18,2.12-.23,3.17-.33,7.21-.84,14.5-1.5,21.67-.08.89-.6,2.14-2.57,3-3.28,1.51-9.17,1.37-11.71.49l1.11,17.33a.51.51,0,0,1-.21.44A.52.52,0,0,1,144,126.24ZM120,114.9,143.43,125l-1.11-17.36a.52.52,0,0,1,.26-.47.51.51,0,0,1,.53,0c1.34,1,8.06,1.43,11.56-.17,1.23-.57,1.9-1.32,2-2.23.66-7.16,1.17-14.43,1.5-21.62,0-1.07.14-2.15.24-3.22a32,32,0,0,0,0-7.76,9.17,9.17,0,0,0-1.86-4.68,3.11,3.11,0,0,0-.79-.66,3.86,3.86,0,0,0-2-.28,10.28,10.28,0,0,1-1.95-.08,4.77,4.77,0,0,1-2.76-1.21,5,5,0,0,1-5.65,1.6,7.41,7.41,0,0,1-.14,1.87,3.44,3.44,0,0,1-1.78,2.38,3.8,3.8,0,0,1-2.68,0,9.71,9.71,0,0,1,.49,2.64,26.93,26.93,0,0,1-1.18,6.79c-.21.81-.41,1.59-.56,2.28a33.57,33.57,0,0,1-3,8.91c-4.38,8-11.21,9-13.05,9Z" fill="#231f20"></path><path d="M143,84.8c0-1.81-.91-3.48-1.84-5a13.88,13.88,0,0,0-2.49-3.38A4.77,4.77,0,0,0,134.85,75a4.45,4.45,0,0,0-2.92,2.13,8.49,8.49,0,0,0-1,3.55,15.51,15.51,0,0,0,6.62,14l-.38-.45" fill="#fff"></path><path d="M137.51,95.26a.51.51,0,0,1-.28-.09,16.1,16.1,0,0,1-6.84-14.49,8.87,8.87,0,0,1,1.11-3.77,4.84,4.84,0,0,1,3.27-2.36A5.19,5.19,0,0,1,139,76a14.21,14.21,0,0,1,2.58,3.49c.87,1.47,1.95,3.3,1.91,5.31a.51.51,0,0,1-.51.49.5.5,0,0,1-.49-.51c0-1.73-1-3.42-1.77-4.78a13.57,13.57,0,0,0-2.39-3.26,4.28,4.28,0,0,0-3.43-1.22,3.92,3.92,0,0,0-2.58,1.9,7.8,7.8,0,0,0-1,3.34,15.08,15.08,0,0,0,5.68,13,.5.5,0,0,1,.44.17l.38.45a.5.5,0,0,1,0,.66A.52.52,0,0,1,137.51,95.26Z" fill="#231f20"></path><path d="M114.21,119.49l2.44-7.9,31.8,3.07,1.83,7.26S133.66,129.82,114.21,119.49Z" fill="#fff"></path><path d="M135.06,125.27A44.62,44.62,0,0,1,114,119.93a.5.5,0,0,1-.24-.59l2.43-7.9a.5.5,0,0,1,.52-.35l31.81,3.08a.5.5,0,0,1,.44.37l1.82,7.26a.49.49,0,0,1-.27.57A39.61,39.61,0,0,1,135.06,125.27Zm-20.25-6a42.47,42.47,0,0,0,34.88,2.39l-1.64-6.5-31.05-3Z" fill="#231f20"></path><ellipse cx="155.16" cy="76.99" rx="1.02" ry="2.59" transform="translate(-1.19 2.45) rotate(-0.9)" fill="#231f20"></ellipse><path d="M102,250s-15.25-101.76-1.88-120.6c7.52-10.6,19.64-11,30.73-10.48,8.61.38,16.24-.27,22.89,5,15.19,12.15,37.38,120.19,37.38,120.19S158.33,267,102,250Z" fill="#795548"></path><path d="M205.94,110.72h3.95a0,0,0,0,1,0,0v14.75a1.86,1.86,0,0,1-1.86,1.86h-.23a1.86,1.86,0,0,1-1.86-1.86V110.72a0,0,0,0,1,0,0Z" transform="translate(-26.76 70.83) rotate(-18.18)" fill="#fff"></path><path d="M209.82,127.55a2.36,2.36,0,0,1-2.25-1.63l-4.6-14a.5.5,0,0,1,.32-.63L207,110a.5.5,0,0,1,.38,0,.51.51,0,0,1,.25.29l4.6,14a2.34,2.34,0,0,1-.13,1.8,2.38,2.38,0,0,1-1.37,1.18l-.22.07A2.33,2.33,0,0,1,209.82,127.55Zm-5.75-15.48,4.45,13.54a1.37,1.37,0,0,0,1.72.87l.22-.07h0a1.43,1.43,0,0,0,.79-.68,1.34,1.34,0,0,0,.07-1l-4.44-13.54Z" fill="#231f20"></path><rect x="200.27" y="98.25" width="6.38" height="14.43" transform="translate(-22.75 68.76) rotate(-18.18)" fill="#fff"></rect><path d="M202.68,113.81a.59.59,0,0,1-.23,0,.51.51,0,0,1-.25-.29l-4.5-13.71a.5.5,0,0,1,.32-.63l6.06-2a.46.46,0,0,1,.38,0,.48.48,0,0,1,.25.29l4.5,13.71a.5.5,0,0,1,0,.38.51.51,0,0,1-.29.25l-6.06,2Zm-3.87-13.89L203,112.68l5.11-1.68-4.2-12.76Z" fill="#231f20"></path><rect x="209.55" y="121.19" width="6.38" height="25.09" rx="2.25" transform="matrix(0.95, -0.31, 0.31, 0.95, -31.11, 73.07)" fill="#fff"></rect><path d="M215.06,146.56a2.76,2.76,0,0,1-2.61-1.89L206,125.11a2.76,2.76,0,0,1,1.75-3.48l1.78-.58A2.75,2.75,0,0,1,213,122.8l6.43,19.57a2.75,2.75,0,0,1-1.75,3.47l-1.79.58A2.54,2.54,0,0,1,215.06,146.56Zm-4.64-24.65a1.76,1.76,0,0,0-.55.09l-1.78.58a1.75,1.75,0,0,0-1.11,2.21l6.42,19.57a1.75,1.75,0,0,0,.88,1,1.71,1.71,0,0,0,1.33.1l1.78-.58h0a1.74,1.74,0,0,0,1-.88,1.71,1.71,0,0,0,.1-1.33l-6.43-19.56A1.75,1.75,0,0,0,210.42,121.91Z" fill="#231f20"></path><circle cx="200.05" cy="95.11" r="16.93" fill="#fff"></circle><path d="M200.07,112.54a17.43,17.43,0,1,1,5.42-.87A17.47,17.47,0,0,1,200.07,112.54Zm0-33.86a16.25,16.25,0,0,0-5.11.82,16.43,16.43,0,1,0,5.11-.82Z" fill="#231f20"></path><circle cx="200.05" cy="95.11" r="13.75" fill="#fff"></circle><path d="M200.06,109.36a14.25,14.25,0,1,1,13.53-18.7h0a14.25,14.25,0,0,1-13.53,18.7Zm0-27.51A13.26,13.26,0,1,0,212.64,91h0A13.27,13.27,0,0,0,200,81.85Z" fill="#231f20"></path><path d="M197.71,152.86s.67-5,.67-5c0-.21.34-15.64,1.67-16.83s18.59-13.71,19.8-12-1.21,4.93-1.21,4.93,4.05-.41,3.64,2-2.83,4.86-2.83,4.86,2.48-1.82,2.86.81a4.36,4.36,0,0,1-1.65,4.06s3.65-1.62,2.84,1.41-9.69,10.74-9.69,10.74l-1.07,6.6Z" fill="#fff"></path><path d="M212.74,155h-.05l-15-1.6-.09,0c-.41-.12-.41-.12.2-4.63l.12-.89c0-.09.26-15.72,1.84-17.15,1-.92,16.53-12.3,19.75-12.3h.13a.9.9,0,0,1,.66.36c1,1.41,0,3.52-.67,4.69a4.06,4.06,0,0,1,2.73.93,2,2,0,0,1,.46,1.7,9.19,9.19,0,0,1-1.74,3.67,1.78,1.78,0,0,1,.68.12,2,2,0,0,1,1.09,1.73,4.73,4.73,0,0,1-.66,3.21,2,2,0,0,1,1.47.35,2,2,0,0,1,.36,2.11c-.79,3-8.53,9.84-9.71,10.87l-1,6.42A.51.51,0,0,1,212.74,155Zm-14.47-2.54,14.06,1.49,1-6.13a.47.47,0,0,1,.16-.3c2.44-2.11,8.9-8.11,9.54-10.48.14-.55.13-.95,0-1.1-.35-.29-1.45,0-2.11.26a.49.49,0,0,1-.64-.21.48.48,0,0,1,.15-.65,3.84,3.84,0,0,0,1.44-3.57c-.06-.37-.18-.82-.49-.95-.49-.21-1.33.28-1.59.47a.5.5,0,0,1-.67-.08.51.51,0,0,1,0-.68s2.33-2.35,2.7-4.59a.92.92,0,0,0-.2-.85c-.62-.66-2.31-.65-2.9-.6a.51.51,0,0,1-.49-.25.48.48,0,0,1,0-.54c.61-.82,2-3.2,1.21-4.34-1.7-.51-17.32,10.53-19.06,12.1-1,1-1.51,13.93-1.51,16.46,0,0,0,.4-.13,1C198.62,149.81,198.38,151.57,198.27,152.42Z" fill="#231f20"></path><path d="M153.72,123.92s9.72,5.88,17,19.35,18.1,46.78,18.1,46.78l6.23-42.43,21.25,4.79s1.82,76-17,84.55-66.93-44.36-66.93-44.36Z" fill="#795548"></path><path d="M193.17,238.32l-.14,0c-.1,0-10.59-3.17-22.74-14.42-11.18-10.36-26.13-29.92-33.85-64.3a.5.5,0,0,1,1-.22c14.65,65.27,55.48,77.86,55.89,78a.5.5,0,0,1-.14,1Z" fill="#231f20"></path><path d="M198.68,101.5c.33-.25.65-.51,1-.75l2.75-2c.61-.45,1.21-.89,1.78-1.4a6.62,6.62,0,0,0,1.29-1.51,5.6,5.6,0,0,0,.5-1.22,6.29,6.29,0,0,0,.23-1.13,2.65,2.65,0,0,0-1.69-2.88,3.57,3.57,0,0,0-3.62.7,4.77,4.77,0,0,0-.7.72l0,0,0-.07a3.21,3.21,0,0,0-1.27-1.41,3,3,0,0,0-1.69-.39,3.65,3.65,0,0,0-3.3,2.48,4.91,4.91,0,0,0-.21,1.12,5.43,5.43,0,0,0,0,1.21,4,4,0,0,0,.64,1.65,10.35,10.35,0,0,0,1.15,1.42c.63.66,1.28,1.32,1.91,2,.44.46.86.93,1.28,1.4Z" fill="#795548"></path><path d="M155.73,100.16,150.28,97s-1.66,6.55,1.3,8.24S155.73,100.16,155.73,100.16Z" fill="#fff"></path><path d="M152.5,106a2.31,2.31,0,0,1-1.17-.34c-3.25-1.85-1.61-8.51-1.54-8.79a.52.52,0,0,1,.29-.34.51.51,0,0,1,.45,0L156,99.73a.51.51,0,0,1,.24.52c-.09.47-.88,4.62-2.88,5.56A2,2,0,0,1,152.5,106Zm-1.88-8.23c-.4,2-.71,5.93,1.21,7a1.13,1.13,0,0,0,1.1.1c1.19-.56,2-3.17,2.24-4.48Z" fill="#231f20"></path><path d="M142.82,107.57s-7.93-2.12-10.57-4.66A55.31,55.31,0,0,0,143,112.62Z" fill="#231f20"></path><path d="M143,113.12a.43.43,0,0,1-.27-.08,56.08,56.08,0,0,1-10.9-9.81.5.5,0,0,1,.73-.68c2.52,2.42,10.28,4.52,10.36,4.54a.49.49,0,0,1,.37.46l.21,5a.5.5,0,0,1-.25.46A.57.57,0,0,1,143,113.12Zm-7.9-7.8a51.26,51.26,0,0,0,7.36,6.34l-.16-3.71A48.78,48.78,0,0,1,135.13,105.32Z" fill="#231f20"></path></g></svg>