<svg width="406" height="306" viewBox="0 0 406 306" fill="none" xmlns="http://www.w3.org/2000/svg">
<path d="M309.443 67.9633C309.443 67.9633 307.261 63.9033 303.769 58.3918C303.769 58.3918 292.665 66.6844 292.767 66.2175C292.868 65.7506 309.443 67.9633 309.443 67.9633Z" fill="#231F20"/>
<path d="M309.443 68.4708H309.372C303.536 67.6994 294.005 66.5423 292.97 66.6844C292.675 66.796 292.594 66.6844 292.493 66.6844C292.406 66.6274 292.338 66.5457 292.298 66.4498C292.258 66.3538 292.248 66.2481 292.269 66.1464C292.269 65.9942 292.32 65.8521 292.645 65.781C293.305 65.5171 299.628 60.8786 303.465 58.0163C303.521 57.974 303.585 57.9441 303.653 57.9283C303.721 57.9126 303.792 57.9114 303.861 57.9249C303.929 57.9361 303.994 57.9618 304.052 58.0003C304.11 58.0389 304.159 58.0893 304.196 58.1482C307.657 63.6495 309.869 67.7095 309.89 67.7501C309.939 67.8292 309.965 67.9207 309.965 68.014C309.965 68.1073 309.939 68.1988 309.89 68.2779C309.837 68.3449 309.769 68.3976 309.691 68.4313C309.613 68.465 309.528 68.4786 309.443 68.4708V68.4708ZM294.563 65.71C296.654 65.8318 300.653 66.2784 308.509 67.3035C307.718 65.8825 305.982 62.8578 303.627 59.1125C298.725 62.7868 296.055 64.695 294.563 65.71Z" fill="#231F20"/>
<path d="M162.41 235.398L156.868 226.161L164.532 219.229L162.41 235.398Z" fill="#231F20"/>
<path d="M162.4 235.905C162.311 235.907 162.223 235.884 162.146 235.839C162.069 235.795 162.006 235.73 161.964 235.651L156.422 226.425C156.362 226.324 156.339 226.206 156.355 226.089C156.372 225.973 156.427 225.866 156.513 225.786L164.186 218.853C164.261 218.783 164.357 218.738 164.459 218.725C164.561 218.713 164.665 218.732 164.755 218.782C164.847 218.831 164.923 218.906 164.972 218.998C165.021 219.091 165.041 219.196 165.029 219.3L162.897 235.459C162.884 235.563 162.838 235.661 162.768 235.739C162.697 235.817 162.604 235.871 162.501 235.895L162.4 235.905ZM157.508 226.253L162.085 233.885L163.841 220.528L157.508 226.253Z" fill="#231F20"/>
<path d="M166.003 237.336L255.161 250.044C256.989 250.283 258.842 249.864 260.389 248.862C261.937 247.859 263.077 246.339 263.606 244.573L309.758 71.9218C310.001 71.1145 310.054 70.262 309.912 69.4309C309.771 68.5999 309.439 67.8129 308.942 67.1315C308.446 66.4502 307.798 65.8931 307.05 65.5039C306.303 65.1146 305.475 64.9037 304.632 64.8878L213.698 57.59C211.896 57.4956 210.114 58.0112 208.641 59.0535C207.168 60.0958 206.089 61.604 205.578 63.3349L161.385 230.211C161.151 230.985 161.089 231.8 161.203 232.6C161.316 233.4 161.603 234.166 162.042 234.844C162.482 235.523 163.064 236.097 163.748 236.527C164.432 236.958 165.202 237.234 166.003 237.336Z" fill="#231F20"/>
<path d="M256.176 250.623C255.813 250.624 255.45 250.601 255.09 250.552L165.932 237.834C165.065 237.727 164.231 237.436 163.487 236.979C162.743 236.521 162.106 235.91 161.619 235.185C161.136 234.442 160.817 233.606 160.684 232.73C160.551 231.855 160.607 230.962 160.847 230.11L205.111 63.1725C205.664 61.3404 206.813 59.7458 208.377 58.6422C209.94 57.5387 211.827 56.9897 213.739 57.0825L304.673 64.4108C305.607 64.458 306.519 64.713 307.343 65.1572C308.166 65.6015 308.88 66.2237 309.433 66.9787C309.935 67.7123 310.267 68.5478 310.408 69.4252C310.548 70.3027 310.493 71.2003 310.245 72.0537L264.103 244.695C263.592 246.402 262.545 247.9 261.118 248.967C259.691 250.035 257.958 250.615 256.176 250.623V250.623ZM213.15 58.0467C211.547 58.073 209.993 58.6096 208.716 59.5788C207.438 60.548 206.502 61.8993 206.045 63.4364L161.832 230.343C161.625 231.059 161.574 231.811 161.682 232.548C161.791 233.285 162.056 233.99 162.461 234.616C162.868 235.224 163.402 235.736 164.026 236.118C164.649 236.5 165.348 236.742 166.074 236.829V236.829L255.232 249.547C256.934 249.769 258.66 249.381 260.103 248.452C261.547 247.523 262.615 246.113 263.119 244.472L309.271 71.8C309.473 71.0809 309.515 70.326 309.392 69.5891C309.269 68.8522 308.985 68.1515 308.56 67.537C308.086 66.8995 307.476 66.3762 306.773 66.0056C306.07 65.635 305.294 65.4265 304.5 65.3953L213.658 58.067C213.489 58.0503 213.319 58.0436 213.15 58.0467V58.0467Z" fill="#231F20"/>
<path d="M160.197 227.805L249.355 240.513C251.183 240.752 253.036 240.333 254.584 239.331C256.131 238.328 257.271 236.808 257.8 235.042L303.952 62.3909C304.194 61.5877 304.248 60.7396 304.109 59.9123C303.97 59.0849 303.643 58.3007 303.152 57.6204C302.661 56.9401 302.02 56.3821 301.279 55.9896C300.537 55.597 299.715 55.3806 298.877 55.357L207.943 48.0287C206.141 47.9343 204.359 48.4499 202.886 49.4922C201.413 50.5345 200.334 52.0428 199.823 53.7736L155.569 220.68C155.334 221.455 155.27 222.271 155.384 223.073C155.497 223.874 155.784 224.641 156.225 225.32C156.666 225.999 157.25 226.573 157.936 227.002C158.622 227.432 159.394 227.706 160.197 227.805Z" fill="white"/>
<path d="M250.37 241.092C250.007 241.093 249.644 241.07 249.284 241.021L160.126 228.303C159.259 228.196 158.426 227.905 157.681 227.448C156.937 226.991 156.3 226.379 155.813 225.654C155.332 224.911 155.014 224.074 154.881 223.199C154.748 222.324 154.803 221.431 155.041 220.579L199.305 53.6416C199.855 51.8077 201.004 50.2109 202.568 49.1069C204.132 48.0028 206.021 47.4552 207.933 47.5516L298.867 54.8901C299.802 54.9352 300.715 55.1892 301.538 55.6336C302.362 56.078 303.076 56.7015 303.627 57.458C304.131 58.1906 304.465 59.0262 304.605 59.904C304.746 60.7818 304.689 61.6799 304.439 62.533L258.297 235.215C257.777 236.913 256.727 238.399 255.3 239.457C253.874 240.514 252.146 241.087 250.37 241.092V241.092ZM207.344 48.5159C205.741 48.5437 204.189 49.0809 202.911 50.0499C201.634 51.0189 200.698 52.3693 200.239 53.9055L155.985 220.812C155.779 221.53 155.728 222.283 155.837 223.022C155.945 223.761 156.21 224.468 156.615 225.095C157.023 225.701 157.557 226.211 158.181 226.591C158.804 226.971 159.503 227.212 160.228 227.298L249.386 240.016C251.087 240.236 252.812 239.847 254.255 238.918C255.698 237.99 256.767 236.581 257.272 234.941L303.485 62.2691C303.694 61.553 303.742 60.7997 303.626 60.0629C303.51 59.3261 303.233 58.6238 302.815 58.0061C302.347 57.3751 301.744 56.8558 301.051 56.4854C300.358 56.1151 299.591 55.9031 298.806 55.8645L207.872 48.5362L207.344 48.5159Z" fill="#231F20"/>
<path d="M295.142 73.7589L202.046 65.6897L166.318 200.36L258.054 212.57L295.142 73.7589Z" fill="#E6E7E8"/>
<path d="M258.054 212.723L166.318 200.543C166.295 200.539 166.274 200.531 166.255 200.518C166.235 200.506 166.219 200.49 166.207 200.471C166.194 200.451 166.186 200.43 166.182 200.407C166.179 200.385 166.18 200.362 166.186 200.34L201.914 65.6694C201.921 65.6326 201.942 65.5999 201.972 65.5774C202.002 65.555 202.039 65.5443 202.076 65.5476L295.172 73.6168C295.197 73.618 295.221 73.625 295.242 73.6374C295.263 73.6498 295.281 73.6671 295.294 73.6879C295.307 73.7075 295.313 73.7304 295.313 73.7538C295.313 73.7772 295.307 73.8001 295.294 73.8198L258.206 212.611C258.199 212.645 258.179 212.675 258.151 212.696C258.123 212.716 258.088 212.726 258.054 212.723V212.723ZM166.521 200.228L257.932 212.408L294.939 73.901L202.168 65.8622L166.521 200.228Z" fill="#D1D3D4"/>
<path d="M197.052 226.811L214.449 229.257C215.554 229.391 216.67 229.129 217.599 228.518C218.528 227.906 219.21 226.985 219.524 225.918L221.26 219.422C221.404 218.926 221.437 218.405 221.356 217.895C221.275 217.385 221.082 216.9 220.791 216.474C220.5 216.048 220.117 215.691 219.672 215.431C219.227 215.17 218.729 215.011 218.215 214.966L200.787 212.601C199.692 212.478 198.589 212.745 197.671 213.356C196.754 213.967 196.082 214.882 195.773 215.94L194.058 222.375C193.913 222.866 193.879 223.382 193.957 223.887C194.036 224.392 194.225 224.874 194.511 225.298C194.797 225.722 195.173 226.077 195.612 226.339C196.052 226.6 196.543 226.761 197.052 226.811V226.811Z" fill="white"/>
<path d="M215.038 229.805C214.818 229.82 214.598 229.82 214.378 229.805L196.981 227.359C196.404 227.295 195.847 227.106 195.351 226.803C194.855 226.501 194.431 226.093 194.109 225.609C193.788 225.125 193.577 224.577 193.491 224.002C193.405 223.427 193.446 222.841 193.611 222.284L195.317 215.849C195.662 214.673 196.412 213.657 197.433 212.979C198.454 212.302 199.681 212.006 200.899 212.144L218.327 214.499C218.91 214.57 219.471 214.764 219.973 215.068C220.475 215.373 220.907 215.781 221.24 216.265C221.558 216.751 221.767 217.3 221.855 217.874C221.942 218.449 221.906 219.035 221.747 219.594L220.022 226.08C219.695 227.15 219.036 228.089 218.14 228.759C217.244 229.429 216.157 229.795 215.038 229.805ZM200.26 213.068C199.36 213.082 198.489 213.386 197.776 213.934C197.063 214.483 196.546 215.247 196.301 216.113L194.586 222.548C194.468 222.965 194.44 223.403 194.505 223.832C194.57 224.261 194.725 224.671 194.961 225.035C195.204 225.398 195.523 225.703 195.897 225.929C196.27 226.156 196.689 226.297 197.123 226.344V226.344L214.52 228.79C215.502 228.912 216.496 228.681 217.323 228.138C218.151 227.595 218.758 226.776 219.037 225.826L220.763 219.33C220.884 218.912 220.914 218.473 220.851 218.042C220.788 217.611 220.633 217.199 220.397 216.833C220.147 216.465 219.82 216.156 219.437 215.928C219.055 215.7 218.627 215.559 218.185 215.514L200.757 213.149C200.593 213.112 200.427 213.084 200.26 213.068V213.068Z" fill="#E6E7E8"/>
<path d="M267.605 62.2082L241.012 59.9854C240.945 59.9803 240.881 59.962 240.822 59.9315C240.763 59.901 240.71 59.859 240.668 59.8079C240.625 59.7568 240.593 59.6976 240.574 59.634C240.554 59.5703 240.548 59.5034 240.555 59.4373C240.568 59.3043 240.633 59.1818 240.735 59.0963C240.838 59.0108 240.97 58.9692 241.103 58.9805L267.696 61.2034C267.831 61.2034 267.96 61.2568 268.055 61.352C268.15 61.4472 268.204 61.5763 268.204 61.7109C268.204 61.8455 268.15 61.9746 268.055 62.0697C267.96 62.1649 267.831 62.2184 267.696 62.2184L267.605 62.2082Z" fill="#E6E7E8"/>
<path d="M237.317 59.6809H237.266L233.744 59.3865C233.678 59.3814 233.613 59.3631 233.553 59.3328C233.493 59.3024 233.44 59.2605 233.397 59.2096C233.353 59.1586 233.321 59.0996 233.3 59.0359C233.28 58.9722 233.272 58.9051 233.277 58.8384C233.293 58.7057 233.358 58.5836 233.459 58.497C233.561 58.4103 233.692 58.3655 233.825 58.3715L237.358 58.6659C237.491 58.6787 237.613 58.7435 237.699 58.8461C237.784 58.9487 237.826 59.0809 237.814 59.214C237.807 59.3405 237.751 59.4593 237.658 59.5461C237.566 59.6329 237.444 59.6811 237.317 59.6809V59.6809Z" fill="#E6E7E8"/>
<path d="M227.634 190.758C227.552 190.758 227.47 190.738 227.398 190.699C227.325 190.66 227.263 190.604 227.218 190.535L201.843 154.117C201.801 154.062 201.77 154 201.753 153.933C201.736 153.866 201.732 153.797 201.742 153.729C201.753 153.661 201.777 153.595 201.813 153.537C201.85 153.479 201.898 153.428 201.954 153.389C202.011 153.35 202.075 153.322 202.142 153.308C202.21 153.295 202.279 153.295 202.347 153.309C202.414 153.323 202.478 153.35 202.535 153.39C202.591 153.429 202.639 153.479 202.675 153.538L228.05 189.956C228.125 190.068 228.153 190.206 228.129 190.338C228.104 190.471 228.029 190.589 227.918 190.667C227.836 190.727 227.736 190.759 227.634 190.758V190.758Z" fill="white"/>
<path d="M213.718 174.559L181.076 171.706C181.009 171.701 180.944 171.683 180.885 171.653C180.825 171.622 180.772 171.58 180.729 171.53C180.685 171.479 180.652 171.42 180.632 171.356C180.611 171.292 180.604 171.225 180.609 171.158C180.622 171.025 180.686 170.901 180.789 170.814C180.891 170.727 181.023 170.683 181.157 170.691L213.81 173.544C213.942 173.559 214.063 173.624 214.148 173.726C214.233 173.828 214.275 173.959 214.267 174.092C214.261 174.158 214.243 174.223 214.213 174.283C214.182 174.343 214.141 174.396 214.09 174.439C214.039 174.483 213.98 174.515 213.916 174.536C213.852 174.556 213.785 174.564 213.718 174.559Z" fill="#231F20"/>
<path d="M205.253 179.938H205.202L178.914 177.573C178.847 177.568 178.782 177.55 178.723 177.519C178.663 177.489 178.61 177.447 178.566 177.396C178.523 177.345 178.49 177.286 178.47 177.223C178.449 177.159 178.442 177.092 178.447 177.025C178.453 176.958 178.473 176.893 178.504 176.834C178.536 176.775 178.579 176.723 178.631 176.68C178.683 176.638 178.743 176.606 178.807 176.587C178.871 176.568 178.939 176.561 179.005 176.568L205.294 178.933C205.361 178.938 205.426 178.957 205.485 178.987C205.545 179.017 205.598 179.059 205.641 179.11C205.685 179.161 205.718 179.22 205.738 179.284C205.759 179.348 205.766 179.415 205.761 179.481C205.746 179.606 205.686 179.721 205.593 179.805C205.5 179.889 205.379 179.936 205.253 179.938V179.938Z" fill="#231F20"/>
<path d="M276.851 118.693L244.199 115.841C244.064 115.829 243.94 115.764 243.853 115.66C243.767 115.556 243.725 115.422 243.737 115.288C243.749 115.153 243.814 115.029 243.918 114.942C244.022 114.856 244.155 114.814 244.29 114.826L276.932 117.678C277.066 117.691 277.19 117.755 277.277 117.858C277.364 117.96 277.408 118.092 277.399 118.226C277.394 118.293 277.376 118.358 277.346 118.418C277.315 118.477 277.273 118.53 277.222 118.574C277.172 118.617 277.113 118.65 277.049 118.67C276.985 118.691 276.918 118.699 276.851 118.693Z" fill="#231F20"/>
<path d="M268.386 124.072H268.336L242.037 121.708C241.904 121.695 241.782 121.63 241.696 121.527C241.611 121.425 241.569 121.293 241.58 121.159C241.585 121.093 241.604 121.028 241.634 120.969C241.665 120.91 241.707 120.858 241.758 120.815C241.809 120.773 241.868 120.741 241.932 120.721C241.995 120.702 242.062 120.696 242.128 120.703L268.427 123.068C268.493 123.073 268.558 123.091 268.617 123.122C268.676 123.152 268.729 123.194 268.771 123.245C268.814 123.296 268.846 123.355 268.865 123.419C268.884 123.483 268.891 123.55 268.884 123.616C268.871 123.74 268.814 123.855 268.722 123.939C268.63 124.023 268.511 124.071 268.386 124.072V124.072Z" fill="#231F20"/>
<path d="M202.767 97.5201L232.892 99.479C233.305 99.5029 233.708 99.6163 234.072 99.8113C234.437 100.006 234.755 100.279 235.004 100.609C235.253 100.939 235.428 101.319 235.515 101.724C235.603 102.128 235.601 102.547 235.511 102.95L230.699 121.22C230.504 122.11 229.996 122.899 229.268 123.445C228.539 123.991 227.639 124.257 226.731 124.194L196.9 122.164C196.486 122.134 196.084 122.012 195.723 121.808C195.362 121.604 195.05 121.323 194.811 120.984C194.571 120.646 194.409 120.258 194.337 119.85C194.265 119.442 194.284 119.022 194.393 118.622L198.869 100.352C199.087 99.4998 199.596 98.7506 200.307 98.2336C201.019 97.7166 201.889 97.4642 202.767 97.5201V97.5201Z" fill="white"/>
<path d="M227.045 124.692H226.68L196.859 122.662C196.382 122.628 195.917 122.491 195.498 122.26C195.079 122.028 194.716 121.708 194.434 121.322C194.141 120.918 193.939 120.457 193.841 119.968C193.743 119.479 193.751 118.975 193.865 118.49L198.341 100.22C198.587 99.2472 199.165 98.3907 199.975 97.7979C200.784 97.2051 201.775 96.913 202.777 96.972L232.892 98.9411C233.373 98.9737 233.84 99.1096 234.264 99.3395C234.687 99.5694 235.056 99.8878 235.345 100.273C235.634 100.659 235.836 101.102 235.939 101.573C236.041 102.043 236.04 102.531 235.937 103.001L231.116 121.271C230.918 122.215 230.41 123.065 229.672 123.685C228.934 124.305 228.009 124.66 227.045 124.692V124.692ZM202.483 98.0073C201.761 98.0229 201.065 98.2745 200.5 98.7237C199.936 99.1728 199.534 99.7947 199.356 100.494L194.89 118.764C194.798 119.108 194.782 119.469 194.845 119.82C194.909 120.171 195.049 120.504 195.256 120.794C195.453 121.062 195.706 121.283 195.996 121.445C196.287 121.606 196.609 121.702 196.941 121.728L226.771 123.758C227.557 123.815 228.336 123.586 228.966 123.115C229.597 122.643 230.036 121.959 230.202 121.19L235.013 102.92C235.083 102.594 235.084 102.258 235.014 101.932C234.944 101.607 234.805 101.3 234.607 101.032C234.4 100.758 234.135 100.532 233.832 100.369C233.529 100.206 233.195 100.11 232.851 100.088L202.736 98.119H202.483V98.0073Z" fill="#231F20"/>
<path d="M212.399 119.444C212.866 119.089 213.313 118.734 213.769 118.429C215.048 117.475 216.337 116.541 217.616 115.597C218.469 114.978 219.311 114.349 220.103 113.648C220.814 113.042 221.424 112.326 221.91 111.527C222.213 110.989 222.452 110.416 222.62 109.822C222.765 109.306 222.87 108.78 222.935 108.249C223.064 107.402 222.899 106.537 222.467 105.798C222.034 105.059 221.361 104.491 220.56 104.189C219.702 103.875 218.775 103.803 217.879 103.982C216.984 104.161 216.155 104.584 215.485 105.204C215.108 105.501 214.767 105.841 214.47 106.219L214.409 106.29V106.188C214.034 105.364 213.414 104.676 212.633 104.219C211.918 103.81 211.099 103.62 210.278 103.671C209.249 103.722 208.26 104.08 207.437 104.699C206.614 105.318 205.995 106.169 205.659 107.142C205.497 107.653 205.398 108.181 205.365 108.716C205.294 109.275 205.294 109.841 205.365 110.4C205.48 111.229 205.782 112.02 206.248 112.715C206.726 113.421 207.266 114.084 207.862 114.694C208.745 115.628 209.648 116.541 210.542 117.485C211.14 118.125 211.729 118.784 212.328 119.444H212.399Z" fill="#D1D3D4"/>
<path d="M193.439 139.511L216.286 142.018C216.599 142.051 216.901 142.151 217.171 142.313C217.441 142.474 217.673 142.692 217.851 142.951C218.028 143.211 218.148 143.506 218.2 143.816C218.252 144.127 218.237 144.444 218.154 144.748L213.881 158.461C213.705 159.129 213.294 159.711 212.723 160.1C212.153 160.49 211.461 160.661 210.775 160.582L188.151 158.075C187.837 158.038 187.535 157.931 187.267 157.764C187 157.596 186.772 157.372 186.601 157.106C186.431 156.84 186.321 156.54 186.28 156.226C186.239 155.913 186.268 155.595 186.364 155.294L190.373 141.571C190.564 140.924 190.975 140.364 191.534 139.988C192.094 139.612 192.768 139.443 193.439 139.511Z" fill="white"/>
<path d="M211.12 161.12C210.981 161.13 210.842 161.13 210.704 161.12L188.09 158.593C187.71 158.549 187.344 158.422 187.018 158.223C186.692 158.023 186.413 157.754 186.202 157.436C185.986 157.107 185.845 156.734 185.789 156.345C185.733 155.956 185.763 155.559 185.877 155.182L189.937 141.449C190.168 140.691 190.654 140.037 191.312 139.596C191.971 139.156 192.762 138.957 193.55 139.034L216.388 141.541C216.775 141.584 217.148 141.71 217.482 141.909C217.817 142.109 218.105 142.378 218.327 142.698C218.543 143.017 218.688 143.378 218.753 143.758C218.818 144.138 218.8 144.528 218.702 144.9L214.419 158.643C214.215 159.36 213.782 159.99 213.186 160.437C212.591 160.884 211.865 161.124 211.12 161.12ZM193.104 139.998C192.599 140.006 192.109 140.175 191.706 140.48C191.303 140.784 191.007 141.209 190.861 141.693L186.851 155.426C186.78 155.663 186.76 155.912 186.793 156.157C186.826 156.403 186.912 156.638 187.044 156.847C187.177 157.041 187.35 157.205 187.552 157.327C187.753 157.45 187.978 157.528 188.211 157.557L210.826 160.105C211.392 160.171 211.963 160.03 212.434 159.71C212.906 159.389 213.246 158.91 213.394 158.359L217.667 144.616C217.729 144.388 217.74 144.149 217.699 143.915C217.659 143.682 217.568 143.461 217.433 143.266C217.295 143.064 217.115 142.895 216.904 142.771C216.694 142.646 216.459 142.569 216.215 142.546L193.388 140.038C193.295 140.014 193.2 140 193.104 139.998V139.998Z" fill="#231F20"/>
<path d="M239.916 130.67L271.563 133.877C271.878 133.882 272.187 133.956 272.469 134.095C272.751 134.235 272.999 134.435 273.193 134.682C273.388 134.929 273.524 135.217 273.594 135.524C273.663 135.83 273.663 136.149 273.593 136.455L268.356 155.943C268.127 156.612 267.673 157.18 267.071 157.551C266.469 157.921 265.757 158.07 265.057 157.973L233.43 153.913C233.127 153.898 232.831 153.815 232.565 153.671C232.298 153.527 232.067 153.324 231.889 153.079C231.711 152.834 231.59 152.551 231.535 152.253C231.48 151.955 231.493 151.648 231.572 151.356L236.769 132.659C236.987 132.018 237.418 131.471 237.991 131.109C238.563 130.747 239.243 130.592 239.916 130.67V130.67Z" fill="white"/>
<path d="M265.483 158.451C265.331 158.461 265.179 158.461 265.027 158.451L233.409 154.391C233.006 154.359 232.614 154.237 232.263 154.036C231.912 153.834 231.61 153.556 231.379 153.223C231.181 152.929 231.051 152.594 230.999 152.243C230.946 151.892 230.972 151.533 231.075 151.193L236.272 132.497C236.519 131.749 237.016 131.11 237.68 130.686C238.344 130.263 239.133 130.082 239.916 130.173L271.563 133.37C271.99 133.4 272.406 133.523 272.781 133.73C273.156 133.937 273.482 134.222 273.735 134.568C273.938 134.86 274.073 135.194 274.131 135.545C274.189 135.896 274.168 136.256 274.07 136.598L268.884 156.045C268.65 156.758 268.194 157.377 267.581 157.81C266.969 158.244 266.233 158.468 265.483 158.451V158.451ZM239.631 131.157C239.124 131.149 238.627 131.299 238.208 131.587C237.79 131.874 237.472 132.284 237.297 132.761L232.1 151.457C232.044 151.656 232.03 151.865 232.06 152.069C232.09 152.274 232.162 152.47 232.273 152.645C232.419 152.85 232.608 153.02 232.828 153.145C233.047 153.269 233.29 153.345 233.541 153.365L265.159 157.425C265.733 157.517 266.322 157.407 266.824 157.112C267.325 156.818 267.709 156.358 267.909 155.812L273.136 136.324C273.195 136.125 273.208 135.917 273.175 135.713C273.142 135.509 273.062 135.315 272.944 135.146C272.776 134.922 272.56 134.738 272.313 134.606C272.066 134.474 271.792 134.399 271.512 134.385L239.865 131.178H239.631V131.157Z" fill="#231F20"/>
<path d="M256.267 152.178L260.023 152.645L262.672 142.85L258.916 142.434L256.267 152.178Z" fill="#D1D3D4"/>
<path d="M260.023 152.807L256.267 152.35C256.245 152.347 256.223 152.339 256.204 152.326C256.185 152.314 256.168 152.298 256.156 152.278C256.143 152.259 256.135 152.238 256.132 152.215C256.128 152.193 256.129 152.169 256.135 152.147L258.784 142.403C258.792 142.365 258.814 142.33 258.846 142.308C258.878 142.285 258.918 142.276 258.957 142.282L262.712 142.708C262.735 142.711 262.757 142.718 262.776 142.731C262.796 142.743 262.812 142.759 262.824 142.779C262.84 142.818 262.84 142.862 262.824 142.901L260.175 152.695C260.164 152.728 260.144 152.756 260.117 152.776C260.089 152.796 260.057 152.807 260.023 152.807ZM256.47 152.046L259.901 152.472L262.469 142.992L259.038 142.606L256.47 152.046Z" fill="#D1D3D4"/>
<path d="M257.282 143.083C257.282 143.083 254.237 141.967 253.425 140.038C252.613 138.11 253.151 135.034 252.694 134.821C252.27 134.696 251.816 134.705 251.397 134.846C250.977 134.988 250.612 135.256 250.35 135.613C249.619 136.547 249.193 139.409 249.802 141.368C249.802 141.368 245.742 140.871 243.915 140.668C242.088 140.465 241.326 141.997 242.209 142.759C242.209 142.759 240.717 142.759 240.9 144.098C241.083 145.438 241.59 145.54 242.392 145.641C242.392 145.641 241.377 145.753 241.377 146.737C241.377 147.722 242.615 148.108 242.615 148.108C242.454 148.146 242.302 148.22 242.173 148.324C242.044 148.428 241.94 148.561 241.869 148.711C241.797 148.861 241.761 149.025 241.762 149.191C241.763 149.358 241.801 149.521 241.874 149.671C242.423 150.828 244.371 150.96 248.979 151.244C253.588 151.528 255.181 150.696 255.181 150.696L257.282 143.083Z" fill="#D1D3D4"/>
<path d="M250.868 151.508C250.309 151.508 249.69 151.508 248.99 151.447C244.412 151.163 242.321 151.031 241.722 149.782C241.64 149.627 241.592 149.457 241.582 149.282C241.571 149.106 241.599 148.931 241.661 148.767C241.784 148.514 241.983 148.304 242.23 148.169C241.955 148.049 241.717 147.86 241.539 147.619C241.361 147.379 241.249 147.096 241.215 146.798C241.203 146.595 241.248 146.392 241.345 146.213C241.441 146.034 241.586 145.885 241.763 145.783C241.215 145.621 240.87 145.276 240.748 144.21C240.716 144.032 240.723 143.849 240.768 143.674C240.814 143.498 240.897 143.335 241.012 143.195C241.244 142.944 241.556 142.783 241.895 142.738C241.779 142.573 241.709 142.38 241.691 142.178C241.674 141.977 241.709 141.775 241.793 141.591C241.992 141.211 242.31 140.905 242.699 140.722C243.087 140.539 243.525 140.488 243.945 140.576C245.498 140.749 248.695 141.135 249.599 141.246C249.071 139.216 249.487 136.527 250.238 135.572C250.519 135.195 250.909 134.912 251.355 134.761C251.801 134.611 252.283 134.6 252.735 134.73C253.009 134.862 253.019 135.349 253.04 136.415C252.977 137.64 253.146 138.866 253.537 140.028C254.349 141.835 257.282 142.941 257.313 142.951C257.349 142.967 257.378 142.995 257.395 143.031C257.411 143.066 257.415 143.107 257.404 143.144L255.374 150.797C255.362 150.836 255.337 150.868 255.303 150.889C255.222 150.899 254.085 151.508 250.868 151.508ZM243.6 140.82C243.296 140.792 242.991 140.854 242.722 140.998C242.453 141.142 242.232 141.363 242.088 141.632C242.007 141.803 241.987 141.996 242.029 142.18C242.071 142.364 242.174 142.528 242.321 142.647C242.34 142.672 242.35 142.702 242.35 142.733C242.35 142.764 242.34 142.795 242.321 142.82C242.311 142.849 242.292 142.875 242.266 142.893C242.241 142.911 242.21 142.921 242.179 142.921C241.821 142.926 241.478 143.064 241.215 143.307C241.127 143.415 241.064 143.541 241.031 143.676C240.998 143.811 240.995 143.952 241.022 144.088C241.184 145.347 241.641 145.398 242.382 145.489C242.422 145.494 242.458 145.513 242.484 145.543C242.51 145.573 242.525 145.612 242.524 145.651C242.524 145.69 242.51 145.727 242.483 145.756C242.457 145.784 242.421 145.801 242.382 145.804C242.382 145.804 241.479 145.925 241.509 146.748C241.54 147.57 242.626 147.966 242.636 147.966C242.666 147.979 242.692 148 242.712 148.027C242.731 148.054 242.744 148.085 242.748 148.118C242.747 148.152 242.736 148.185 242.716 148.212C242.696 148.239 242.668 148.259 242.636 148.27C242.334 148.37 242.08 148.58 241.925 148.859C241.879 148.981 241.86 149.111 241.871 149.241C241.881 149.371 241.921 149.497 241.986 149.61C242.504 150.696 244.534 150.818 248.98 151.102C253.04 151.356 254.714 150.726 255.07 150.594L257.1 143.144C256.491 142.901 254.055 141.825 253.283 140.099C252.87 138.899 252.691 137.631 252.755 136.364C252.791 135.89 252.75 135.414 252.634 134.953C252.242 134.851 251.83 134.868 251.448 135.002C251.066 135.135 250.734 135.38 250.492 135.704C249.771 136.618 249.386 139.45 249.964 141.327C249.979 141.35 249.986 141.377 249.986 141.404C249.986 141.431 249.979 141.457 249.964 141.48C249.946 141.499 249.924 141.514 249.899 141.523C249.875 141.531 249.848 141.534 249.822 141.53C249.822 141.53 245.762 141.033 243.945 140.83L243.6 140.82Z" fill="#D1D3D4"/>
<path d="M218.113 198.076L252.623 202.055C253.895 202.145 255.158 201.789 256.196 201.048C257.233 200.307 257.98 199.227 258.307 197.995L263.738 177.502C263.918 176.942 263.974 176.35 263.903 175.766C263.831 175.182 263.634 174.62 263.324 174.12C263.014 173.62 262.599 173.193 262.108 172.869C261.617 172.546 261.061 172.332 260.48 172.244L225.878 167.839C224.573 167.722 223.269 168.073 222.199 168.83C221.13 169.587 220.365 170.7 220.042 171.97L214.733 192.859C214.56 193.425 214.513 194.023 214.595 194.61C214.677 195.196 214.886 195.758 215.208 196.255C215.53 196.752 215.957 197.173 216.459 197.487C216.961 197.802 217.526 198.003 218.113 198.076Z" fill="white"/>
<path d="M253.1 202.593H252.522L218.012 198.614C217.37 198.551 216.749 198.349 216.193 198.021C215.637 197.693 215.16 197.248 214.794 196.716C214.411 196.142 214.155 195.493 214.045 194.811C213.934 194.13 213.972 193.433 214.155 192.768L219.463 171.879C219.83 170.496 220.672 169.287 221.841 168.463C223.01 167.639 224.432 167.253 225.858 167.372L260.459 171.767C261.082 171.843 261.682 172.052 262.218 172.38C262.754 172.707 263.213 173.146 263.565 173.665C263.937 174.254 264.181 174.914 264.281 175.603C264.38 176.292 264.334 176.995 264.144 177.664L258.713 198.157C258.365 199.394 257.635 200.489 256.627 201.286C255.619 202.083 254.384 202.54 253.1 202.593V202.593ZM218.164 197.579L252.674 201.558C253.825 201.63 254.966 201.301 255.902 200.627C256.838 199.954 257.512 198.977 257.81 197.863L263.2 177.36C263.361 176.832 263.404 176.274 263.327 175.727C263.25 175.18 263.054 174.656 262.753 174.193C262.484 173.793 262.131 173.457 261.719 173.206C261.308 172.956 260.847 172.797 260.368 172.742L225.766 168.337C224.585 168.237 223.406 168.56 222.44 169.248C221.473 169.935 220.782 170.943 220.488 172.092L215.18 192.981C215.033 193.506 215 194.058 215.084 194.597C215.168 195.136 215.367 195.651 215.667 196.107C215.953 196.518 216.324 196.862 216.755 197.116C217.186 197.37 217.666 197.528 218.164 197.579V197.579Z" fill="#231F20"/>
<path d="M229.299 184.577L241.479 194.483C241.715 194.633 241.985 194.724 242.264 194.748C242.543 194.772 242.824 194.728 243.083 194.621C243.342 194.513 243.571 194.345 243.751 194.13C243.931 193.915 244.057 193.66 244.118 193.387L248.37 177.147C248.456 176.887 248.463 176.608 248.39 176.345C248.318 176.082 248.17 175.845 247.964 175.666C247.759 175.486 247.505 175.371 247.234 175.335C246.963 175.298 246.688 175.343 246.442 175.462L229.979 181.826C229.712 181.917 229.472 182.074 229.282 182.282C229.091 182.49 228.956 182.742 228.888 183.016C228.821 183.29 228.823 183.576 228.894 183.849C228.966 184.121 229.105 184.372 229.299 184.577V184.577Z" fill="#D1D3D4"/>
<path d="M241.57 104.919L278.029 108.716C278.681 108.736 279.319 108.528 279.835 108.128C280.35 107.727 280.709 107.16 280.851 106.523L286.778 82.1631C286.873 81.8844 286.903 81.588 286.868 81.2959C286.832 81.0037 286.731 80.7234 286.572 80.4757C286.413 80.228 286.2 80.0193 285.949 79.8651C285.699 79.7109 285.416 79.6152 285.124 79.585L248.746 76.54C248.119 76.5403 247.51 76.7532 247.02 77.1441C246.53 77.5349 246.186 78.0806 246.046 78.6918L240.058 102.351C239.958 102.619 239.919 102.906 239.944 103.19C239.969 103.474 240.057 103.75 240.202 103.996C240.347 104.242 240.545 104.453 240.782 104.612C241.018 104.772 241.288 104.877 241.57 104.919V104.919Z" fill="white"/>
<path d="M248.543 76.5299H248.675L285.053 79.5749C285.346 79.605 285.628 79.7008 285.878 79.8549C286.129 80.0091 286.342 80.2178 286.501 80.4655C286.66 80.7132 286.761 80.9936 286.797 81.2857C286.832 81.5778 286.802 81.8743 286.707 82.153L280.78 106.513C280.642 107.113 280.313 107.652 279.843 108.05C279.372 108.447 278.786 108.681 278.171 108.716H277.958L241.57 104.919C241.288 104.877 241.018 104.772 240.782 104.612C240.545 104.453 240.347 104.242 240.202 103.996C240.057 103.75 239.969 103.474 239.944 103.19C239.919 102.905 239.958 102.619 240.058 102.351L246.046 78.6918C246.183 78.1079 246.504 77.5832 246.96 77.1942C247.417 76.8053 247.986 76.5725 248.584 76.5299H248.543ZM248.584 75.5149C247.761 75.5591 246.973 75.8673 246.339 76.3938C245.705 76.9203 245.257 77.6371 245.062 78.4381L239.073 102.098C238.948 102.549 238.922 103.022 238.995 103.484C239.069 103.946 239.241 104.387 239.5 104.777C239.723 105.101 240.016 105.372 240.356 105.571C240.696 105.769 241.076 105.89 241.469 105.924L277.917 109.72C278.025 109.73 278.134 109.73 278.242 109.72C279.085 109.684 279.893 109.373 280.542 108.834C281.191 108.295 281.645 107.558 281.835 106.736L287.763 82.3763C287.882 81.924 287.902 81.4513 287.821 80.9905C287.74 80.5298 287.561 80.0919 287.296 79.7068C287.057 79.3697 286.747 79.0895 286.387 78.886C286.027 78.6825 285.627 78.5607 285.215 78.5294L248.838 75.4844L248.584 75.5149Z" fill="#231F20"/>
<path d="M261.87 97.9464C261.79 97.9472 261.71 97.9292 261.638 97.894C261.566 97.8588 261.503 97.8072 261.454 97.7434L246.645 77.352C246.568 77.2422 246.536 77.1068 246.557 76.9742C246.578 76.8417 246.65 76.7224 246.757 76.6415C246.811 76.6026 246.873 76.5748 246.938 76.5599C247.004 76.5449 247.071 76.543 247.137 76.5544C247.203 76.5657 247.267 76.59 247.323 76.6258C247.38 76.6617 247.429 76.7084 247.467 76.7633L261.911 96.7385L286.159 79.92C286.271 79.845 286.408 79.8168 286.541 79.8414C286.674 79.8661 286.792 79.9416 286.869 80.0519C286.908 80.1071 286.935 80.1693 286.949 80.2351C286.963 80.3008 286.964 80.3687 286.952 80.4348C286.94 80.5009 286.915 80.5639 286.878 80.6201C286.841 80.6764 286.793 80.7247 286.738 80.7624L262.124 97.855C262.049 97.9074 261.961 97.9389 261.87 97.9464Z" fill="#D1D3D4"/>
<path d="M240.261 104.656C240.177 104.656 240.094 104.637 240.02 104.598C239.945 104.559 239.882 104.502 239.835 104.432C239.761 104.319 239.734 104.181 239.761 104.048C239.787 103.915 239.865 103.798 239.977 103.722L257.962 92.1C258.074 92.0265 258.211 92.0002 258.342 92.0269C258.473 92.0535 258.588 92.1308 258.663 92.2421C258.737 92.3555 258.763 92.4935 258.737 92.6263C258.71 92.7592 258.633 92.8763 258.521 92.9526L240.555 104.574C240.469 104.633 240.365 104.661 240.261 104.656V104.656Z" fill="#D1D3D4"/>
<path d="M279.643 108.736C279.566 108.736 279.491 108.719 279.422 108.686C279.354 108.652 279.294 108.603 279.247 108.543L267.31 93.6732C267.228 93.568 267.189 93.4343 267.205 93.3012C267.22 93.1681 267.287 93.0464 267.392 92.9627C267.443 92.9203 267.503 92.8887 267.567 92.8698C267.631 92.8509 267.698 92.8451 267.764 92.8526C267.83 92.8602 267.895 92.8811 267.953 92.9139C268.011 92.9468 268.062 92.991 268.102 93.0439L280.039 107.914C280.082 107.965 280.114 108.024 280.134 108.087C280.153 108.151 280.16 108.218 280.153 108.284C280.147 108.35 280.127 108.414 280.095 108.473C280.063 108.531 280.02 108.583 279.968 108.624C279.873 108.694 279.76 108.733 279.643 108.736V108.736Z" fill="#D1D3D4"/>
<path d="M168.937 153.822C171.422 148.866 174.829 144.43 178.975 140.749C185.633 134.994 189.622 130.812 187.531 129.675C185.441 128.538 178.518 133.451 178.518 133.451L183.756 114.268C183.756 114.268 172.215 121.87 168.937 128.335C165.658 134.801 159.193 148.443 159.193 148.443L168.937 153.822Z" fill="white"/>
<path d="M168.937 154.33C168.852 154.33 168.768 154.309 168.693 154.269L158.949 148.879C158.837 148.817 158.752 148.714 158.712 148.591C158.673 148.469 158.681 148.336 158.736 148.219C158.797 148.087 165.242 134.507 168.49 128.112C171.738 121.718 182.994 114.156 183.472 113.841C183.558 113.783 183.66 113.753 183.763 113.755C183.867 113.757 183.968 113.791 184.052 113.852C184.136 113.912 184.199 113.998 184.233 114.096C184.268 114.194 184.271 114.3 184.243 114.4L179.371 132.253C181.594 130.792 185.948 128.193 187.775 129.208C187.999 129.317 188.192 129.481 188.334 129.686C188.476 129.89 188.563 130.128 188.587 130.376C188.78 132.142 186.09 135.248 179.31 141.114C175.222 144.749 171.86 149.127 169.404 154.015C169.375 154.079 169.333 154.137 169.28 154.184C169.228 154.231 169.166 154.267 169.099 154.289C169.048 154.313 168.993 154.326 168.937 154.33V154.33ZM159.852 148.24L168.713 153.132C171.224 148.311 174.587 143.985 178.64 140.363C180.904 138.414 187.775 132.456 187.582 130.508C187.572 130.423 187.54 130.342 187.488 130.275C187.436 130.207 187.367 130.154 187.288 130.122C186.029 129.432 181.573 131.898 178.813 133.867C178.726 133.925 178.625 133.955 178.521 133.954C178.417 133.954 178.316 133.922 178.23 133.862C178.145 133.803 178.079 133.72 178.042 133.623C178.005 133.526 177.997 133.42 178.021 133.319L182.893 115.475C179.929 117.566 171.972 123.484 169.393 128.569C166.46 134.314 160.979 145.895 159.852 148.229V148.24Z" fill="#231F20"/>
<path d="M239.205 78.905L206.563 76.0528C206.429 76.0399 206.305 75.9755 206.218 75.8732C206.131 75.771 206.087 75.6388 206.096 75.5047C206.101 75.438 206.119 75.3729 206.15 75.3133C206.18 75.2537 206.222 75.2006 206.273 75.1572C206.324 75.1138 206.383 75.081 206.446 75.0605C206.51 75.04 206.577 75.0323 206.644 75.0378L239.246 77.89C239.38 77.89 239.509 77.9434 239.605 78.0386C239.7 78.1338 239.753 78.2629 239.753 78.3975C239.753 78.5321 239.7 78.6612 239.605 78.7563C239.509 78.8515 239.38 78.905 239.246 78.905H239.205Z" fill="#231F20"/>
<path d="M230.73 84.2439L204.431 81.8789C204.365 81.8739 204.3 81.8555 204.241 81.8251C204.182 81.7946 204.13 81.7525 204.087 81.7014C204.044 81.6503 204.012 81.5912 203.993 81.5275C203.974 81.4639 203.967 81.397 203.974 81.3308C203.98 81.2641 203.998 81.1991 204.028 81.1394C204.059 81.0798 204.1 81.0267 204.151 80.9833C204.202 80.94 204.261 80.9071 204.325 80.8866C204.389 80.8661 204.456 80.8584 204.523 80.8639L230.821 83.239C230.956 83.2458 231.082 83.3057 231.173 83.4056C231.263 83.5056 231.31 83.6373 231.303 83.7719C231.297 83.9065 231.237 84.0329 231.137 84.1233C231.037 84.2137 230.905 84.2608 230.77 84.254L230.73 84.2439Z" fill="#231F20"/>
<path d="M159.426 83.3203C159.426 83.3203 166.298 94.6477 164.704 96.8807C163.11 99.1137 158.137 97.3983 158.137 97.3983" fill="white"/>
<path d="M161.73 98.5351C160.453 98.5023 159.188 98.2834 157.975 97.8855C157.908 97.8635 157.846 97.8286 157.793 97.7828C157.74 97.7369 157.696 97.6811 157.665 97.6184C157.633 97.5557 157.614 97.4874 157.609 97.4175C157.604 97.3475 157.613 97.2771 157.635 97.2105C157.657 97.1439 157.691 97.0822 157.737 97.029C157.783 96.9759 157.839 96.9323 157.902 96.9007C157.964 96.8691 158.033 96.8502 158.103 96.845C158.173 96.8398 158.243 96.8485 158.31 96.8705C159.588 97.3069 163.161 98.1088 164.288 96.5355C165.303 95.1856 161.771 88.1212 158.99 83.5334C158.955 83.4761 158.931 83.4126 158.921 83.3463C158.911 83.28 158.914 83.2123 158.93 83.1472C158.946 83.0821 158.975 83.0208 159.015 82.9669C159.054 82.9129 159.105 82.8674 159.162 82.833C159.278 82.765 159.417 82.745 159.547 82.7772C159.678 82.8095 159.791 82.8914 159.863 83.0056C161.04 84.9442 166.825 94.739 165.11 97.1242C164.701 97.6129 164.18 97.9962 163.592 98.2417C163.004 98.4872 162.365 98.5878 161.73 98.5351V98.5351Z" fill="#231F20"/>
<path d="M119.77 104.158C114.695 104.25 110.28 102.453 104.768 99.0832C103.205 98.1393 101.419 96.6371 101.916 94.8913C102.196 94.3369 102.407 93.7507 102.545 93.1455C102.545 92.1305 101.53 91.4403 100.708 90.8313C99.3435 89.808 98.2964 88.4193 97.6879 86.8258C97.0795 85.2322 96.9347 83.499 97.2703 81.8266C97.6058 80.1542 98.408 78.6109 99.584 77.3754C100.76 76.1399 102.262 75.2626 103.916 74.845C102.457 73.3925 101.439 71.5564 100.98 69.5493C100.521 67.5423 100.64 65.4463 101.322 63.5039C102.005 61.5616 103.224 59.8524 104.838 58.574C106.452 57.2957 108.395 56.5006 110.442 56.2807C108.991 56.4329 112.005 48.1607 112.472 47.3893C114.31 44.5469 117.047 42.4027 120.247 41.2993C122.362 40.5861 124.607 40.342 126.826 40.5839C129.045 40.8257 131.185 41.5478 133.097 42.7C133.98 40.467 136.487 39.2185 138.882 39.117C141.289 39.1657 143.661 39.7009 145.855 40.6903C148.525 41.7053 151.418 43.0045 152.575 45.6029C152.755 46.1694 153.029 46.7014 153.387 47.1761C153.972 47.6559 154.671 47.9774 155.417 48.1099C163.456 50.617 165.059 62.7158 159.538 67.8618C158.523 68.7652 157.508 68.3186 156.696 69.4351C156.168 70.176 156.097 72.2263 155.813 73.1703C155.096 75.462 154.151 77.6757 152.991 79.7779C150.439 84.1852 147.372 88.2738 143.856 91.9579C139.596 96.7424 134.219 100.4 128.205 102.605C125.494 103.57 122.646 104.094 119.77 104.158V104.158Z" fill="white"/>
<path d="M119.384 104.666C114.827 104.666 110.483 103.163 104.525 99.5298C101.399 97.6317 101.125 95.8859 101.48 94.7593C101.563 94.4969 101.668 94.2422 101.795 93.998C101.951 93.7338 102.051 93.44 102.089 93.1353C102.089 92.4552 101.378 91.9173 100.668 91.3996L100.465 91.2474C99.0684 90.2139 97.9805 88.8188 97.3187 87.2125C96.6569 85.6062 96.4463 83.8497 96.7095 82.1324C96.9727 80.4152 97.6999 78.8024 98.8124 77.4681C99.925 76.1337 101.381 75.1285 103.023 74.5608C101.704 73.0385 100.812 71.1943 100.437 69.2157C100.062 67.237 100.218 65.1944 100.888 63.2953C101.558 61.3962 102.719 59.7083 104.253 58.4032C105.786 57.0981 107.638 56.2222 109.62 55.8645C109.366 53.6822 111.782 47.5415 112.066 47.0847C113.964 44.1333 116.799 41.906 120.115 40.7613C122.21 40.0528 124.43 39.7897 126.632 39.989C128.834 40.1882 130.971 40.8454 132.904 41.9184C133.541 40.9006 134.423 40.0588 135.469 39.4701C136.515 38.8814 137.692 38.5645 138.893 38.5486C141.369 38.5876 143.811 39.1334 146.069 40.1523C148.799 41.1673 151.814 42.5375 153.062 45.3389L153.245 45.7551C153.362 46.1229 153.544 46.4668 153.783 46.7701C154.206 47.1241 154.713 47.365 155.255 47.4704L155.579 47.5618C159.213 48.6986 161.964 51.9161 162.938 56.1791C163.953 60.7669 162.796 65.4765 159.893 68.1764C159.44 68.569 158.896 68.8412 158.31 68.9681C157.831 69.0356 157.398 69.2868 157.102 69.6685C156.809 70.3518 156.63 71.0789 156.574 71.8203C156.513 72.3026 156.421 72.7806 156.3 73.2514C155.562 75.5672 154.589 77.8016 153.397 79.92C150.804 84.3294 147.701 88.4176 144.15 92.1C139.836 96.9461 134.389 100.649 128.296 102.879C125.572 103.891 122.704 104.463 119.801 104.574H119.384V104.666ZM110.493 56.7475C108.543 56.9609 106.693 57.7212 105.157 58.9406C103.62 60.1601 102.46 61.7891 101.81 63.6396C101.159 65.4902 101.045 67.487 101.481 69.3996C101.916 71.3122 102.884 73.0627 104.271 74.4491C104.335 74.5127 104.382 74.5924 104.405 74.6798C104.428 74.7673 104.427 74.8593 104.403 74.9465C104.378 75.0322 104.331 75.1099 104.267 75.1722C104.203 75.2344 104.124 75.2791 104.038 75.3017C102.467 75.6905 101.04 76.5176 99.9215 77.6864C98.8031 78.8553 98.0399 80.3179 97.7208 81.9039C97.4017 83.4898 97.5398 85.1338 98.1191 86.6443C98.6983 88.1547 99.6949 89.4695 100.993 90.4354L101.196 90.5775C102.028 91.1966 103.073 91.9579 103.033 93.1759C102.992 93.6189 102.857 94.048 102.637 94.4345C102.54 94.6285 102.455 94.8285 102.383 95.0333C101.977 96.4645 103.591 97.7941 105.012 98.667C110.97 102.291 115.243 103.742 119.74 103.651C122.537 103.542 125.299 102.987 127.921 102.006C133.859 99.8397 139.164 96.2295 143.359 91.5011C146.863 87.8625 149.929 83.8257 152.494 79.4734C153.646 77.4018 154.585 75.2185 155.295 72.9571C155.4 72.5322 155.481 72.1019 155.539 71.668C155.599 70.7663 155.841 69.886 156.249 69.0798C156.676 68.5066 157.303 68.1152 158.005 67.9836C158.433 67.903 158.833 67.7104 159.162 67.4253C161.801 64.9792 162.877 60.6451 161.913 56.4126C161.01 52.4439 158.574 49.5715 155.234 48.5362L154.93 48.4347C154.208 48.2827 153.543 47.931 153.011 47.4197C152.675 47.0308 152.42 46.5788 152.26 46.09C152.26 45.9682 152.159 45.8363 152.098 45.7145C151.012 43.2683 148.21 42.03 145.663 41.0658C143.534 40.0981 141.231 39.5732 138.893 39.523C136.863 39.6143 134.406 40.6598 133.554 42.7913C133.525 42.8597 133.482 42.9213 133.428 42.972C133.374 43.0227 133.309 43.0615 133.239 43.0856C133.102 43.1399 132.95 43.1399 132.813 43.0856C130.968 41.9663 128.901 41.2653 126.756 41.0321C124.611 40.7988 122.441 41.039 120.399 41.7357C117.304 42.8008 114.658 44.8784 112.888 47.6328C112.432 48.3738 110.29 54.5957 110.564 55.7528C110.664 55.779 110.753 55.8347 110.82 55.9126C110.887 55.9906 110.929 56.0871 110.94 56.1893C110.954 56.3224 110.915 56.4558 110.831 56.5604C110.748 56.665 110.626 56.7322 110.493 56.7475V56.7475Z" fill="#231F20"/>
<path d="M158.34 68.1257C158.705 68.3273 159.029 68.5959 159.294 68.9174C160.416 70.3645 161.118 72.092 161.324 73.9112C161.913 77.6363 161.213 81.4222 161.04 85.1574C160.702 92.4992 160.194 99.8242 159.517 107.132C159.091 111.771 147.043 111.405 144.973 109.934L146.16 128.376L121.232 117.698L122.856 102.544C122.856 102.544 131.047 102.92 136.112 93.6225C137.546 90.8121 138.571 87.8112 139.157 84.7108C139.735 82.0718 140.984 78.3062 140.913 75.6367C140.825 74.4374 140.562 73.2575 140.131 72.135C141.149 72.6621 142.331 72.7748 143.43 72.4496C143.818 72.245 144.156 71.9568 144.419 71.6058C144.683 71.2547 144.865 70.8496 144.952 70.4196C145.111 69.5456 145.139 68.6526 145.033 67.7705C145.559 68.091 146.145 68.2998 146.754 68.3838C147.364 68.4677 147.985 68.425 148.577 68.2583C149.17 68.0916 149.721 67.8045 150.198 67.4149C150.675 67.0254 151.066 66.5417 151.347 65.9942C151.621 67.1513 153.032 67.5472 154.209 67.7299C155.884 67.9735 157.142 67.4761 158.34 68.1257Z" fill="white"/>
<path d="M146.16 128.884C146.093 128.899 146.024 128.899 145.957 128.884L121.029 118.206C120.93 118.16 120.847 118.085 120.793 117.99C120.738 117.896 120.714 117.787 120.724 117.678L122.348 102.534C122.363 102.406 122.426 102.288 122.523 102.203C122.621 102.119 122.747 102.074 122.876 102.077C123.191 102.077 130.823 102.311 135.665 93.4195C137.064 90.6509 138.065 87.6985 138.639 84.6499C138.801 83.9293 139.004 83.1274 139.217 82.2951C139.878 80.1492 140.27 77.9298 140.385 75.6875C140.302 74.5389 140.045 73.4095 139.623 72.338C139.592 72.2468 139.587 72.1486 139.61 72.0549C139.632 71.9612 139.681 71.8758 139.75 71.8087C139.819 71.7416 139.906 71.6956 140.001 71.6761C140.095 71.6566 140.193 71.6644 140.283 71.6985C141.179 72.1691 142.217 72.2886 143.196 72.0335C143.519 71.8574 143.798 71.6108 144.012 71.3121C144.227 71.0134 144.371 70.6701 144.435 70.308C144.586 69.4876 144.61 68.6489 144.506 67.8212C144.497 67.7257 144.517 67.6299 144.562 67.5452C144.607 67.4606 144.676 67.3908 144.759 67.3442C144.84 67.2949 144.933 67.2688 145.028 67.2688C145.123 67.2688 145.216 67.2949 145.297 67.3442C145.765 67.6172 146.284 67.7918 146.822 67.8572C147.36 67.9226 147.906 67.8774 148.426 67.7244C148.946 67.5713 149.429 67.3137 149.845 66.9674C150.262 66.621 150.604 66.1931 150.849 65.71C150.894 65.6154 150.967 65.5365 151.057 65.484C151.148 65.4314 151.252 65.4076 151.357 65.4157C151.463 65.4239 151.563 65.4657 151.644 65.5351C151.724 65.6045 151.78 65.6978 151.803 65.8014C151.966 66.4814 152.758 66.9179 154.25 67.1615C154.845 67.2393 155.446 67.263 156.046 67.2325C156.916 67.1344 157.797 67.2748 158.594 67.6385C159.011 67.8701 159.383 68.1763 159.69 68.5419C160.885 70.0676 161.62 71.9017 161.811 73.83C162.141 76.5267 162.141 79.2534 161.811 81.95C161.72 83.0259 161.629 84.1018 161.578 85.1676C161.243 92.4857 160.725 99.885 160.055 107.163C159.974 108.066 159.446 109.335 157.447 110.208C154.118 111.74 148.139 111.598 145.561 110.705L146.688 128.295C146.692 128.381 146.675 128.467 146.638 128.545C146.601 128.623 146.545 128.691 146.475 128.742C146.389 128.823 146.278 128.873 146.16 128.884V128.884ZM121.8 117.374L145.581 127.625L144.455 110.005C144.451 109.909 144.474 109.813 144.52 109.729C144.567 109.645 144.636 109.576 144.719 109.528C144.8 109.478 144.893 109.452 144.988 109.452C145.083 109.452 145.176 109.478 145.257 109.528C146.617 110.543 153.438 110.979 156.99 109.355C158.239 108.776 158.919 108.015 159.02 107.092C159.69 99.8242 160.208 92.4451 160.543 85.1473C160.543 84.0612 160.685 82.965 160.786 81.879C161.106 79.2632 161.106 76.6183 160.786 74.0026C160.613 72.274 159.959 70.6285 158.898 69.2524C158.67 68.9861 158.399 68.7597 158.096 68.5825C157.457 68.3093 156.756 68.2112 156.066 68.2983C155.406 68.334 154.743 68.3068 154.087 68.2171C153.045 68.1212 152.062 67.6903 151.286 66.9889C150.623 67.8298 149.712 68.4398 148.682 68.7315C147.652 69.0231 146.556 68.9816 145.551 68.6129C145.584 69.2491 145.537 69.8868 145.409 70.511C145.308 71.0231 145.093 71.5059 144.78 71.924C144.467 72.342 144.065 72.6847 143.602 72.9267C142.726 73.257 141.759 73.257 140.882 72.9267C141.171 73.7925 141.339 74.6943 141.379 75.6063C141.277 77.9454 140.874 80.2616 140.182 82.4981C139.969 83.3203 139.766 84.112 139.613 84.8123C139.028 87.9548 138.002 90.9992 136.568 93.856C132.123 101.976 125.19 102.991 123.323 102.991L121.8 117.374Z" fill="#231F20"/>
<path d="M145.145 86.822C145.145 84.9848 144.221 83.2898 143.277 81.747C142.614 80.4819 141.762 79.3251 140.75 78.3163C140.25 77.8046 139.643 77.4099 138.973 77.1607C138.303 76.9115 137.585 76.8139 136.873 76.875C136.255 77.008 135.672 77.2691 135.161 77.6415C134.651 78.0139 134.224 78.4893 133.909 79.0369C133.311 80.1491 132.964 81.3792 132.894 82.6402C132.671 85.3898 133.174 88.1499 134.353 90.6438C135.532 93.1377 137.346 95.278 139.613 96.8502L139.228 96.3934" fill="white"/>
<path d="M139.573 97.4389C139.471 97.437 139.372 97.4052 139.289 97.3475C136.948 95.7155 135.076 93.4991 133.858 90.9189C132.64 88.3386 132.118 85.4844 132.346 82.6402C132.431 81.2965 132.816 79.9889 133.473 78.8136C133.821 78.1992 134.298 77.6672 134.871 77.2538C135.444 76.8404 136.099 76.5554 136.792 76.4182C137.572 76.328 138.362 76.4134 139.105 76.668C139.848 76.9227 140.524 77.3402 141.085 77.89C142.134 78.9297 143.017 80.1244 143.704 81.4323C144.587 82.9244 145.683 84.7818 145.642 86.822C145.637 86.9557 145.58 87.0822 145.484 87.175C145.387 87.2677 145.259 87.3194 145.125 87.3193C145.058 87.318 144.992 87.3036 144.931 87.2768C144.87 87.2501 144.815 87.2116 144.769 87.1635C144.723 87.1155 144.686 87.0588 144.662 86.9967C144.638 86.9346 144.626 86.8683 144.627 86.8017C144.627 85.0457 143.612 83.3304 142.831 81.95C142.192 80.7321 141.374 79.6168 140.405 78.6411C139.951 78.1914 139.404 77.8474 138.803 77.6333C138.201 77.4193 137.559 77.3406 136.924 77.4028C136.376 77.5217 135.86 77.7549 135.408 78.0873C134.957 78.4196 134.581 78.8435 134.305 79.3313C133.715 80.3703 133.368 81.5292 133.29 82.7214C133.095 85.2249 133.519 87.7381 134.524 90.0392C135.529 92.3403 137.085 94.3587 139.055 95.9164C139.138 95.9062 139.222 95.9166 139.3 95.9467C139.378 95.9768 139.447 96.0256 139.502 96.0889L139.887 96.5457C139.969 96.6383 140.014 96.7574 140.014 96.8806C140.014 97.0039 139.969 97.123 139.887 97.2156C139.814 97.3271 139.702 97.4068 139.573 97.4389V97.4389Z" fill="#231F20"/>
<path d="M115.923 122.032L118.4 114.014L150.677 117.13L152.534 124.499C152.534 124.499 135.665 132.517 115.923 122.032Z" fill="white"/>
<path d="M137.086 127.899C129.623 127.881 122.28 126.019 115.71 122.479C115.606 122.423 115.525 122.333 115.481 122.223C115.436 122.114 115.431 121.993 115.466 121.88L117.933 113.862C117.967 113.751 118.038 113.656 118.134 113.591C118.23 113.526 118.345 113.497 118.461 113.506L150.748 116.633C150.852 116.642 150.951 116.683 151.03 116.75C151.11 116.817 151.168 116.907 151.194 117.008L153.042 124.377C153.071 124.49 153.06 124.61 153.01 124.716C152.96 124.822 152.874 124.907 152.768 124.956C147.79 126.975 142.457 127.975 137.086 127.899V127.899ZM116.532 121.809C121.923 124.703 127.868 126.416 133.973 126.834C140.077 127.252 146.2 126.366 151.935 124.235L150.271 117.637L118.755 114.592L116.532 121.809Z" fill="#231F20"/>
<path d="M157.529 81.5267C158.101 81.5178 158.546 80.3336 158.523 78.8819C158.5 77.4303 158.018 76.2607 157.446 76.2697C156.875 76.2787 156.43 77.4628 156.452 78.9145C156.475 80.3662 156.957 81.5357 157.529 81.5267Z" fill="#231F20"/>
<path d="M103.53 254.5C103.53 254.5 88.0513 151.214 101.622 132.091C109.255 121.332 121.556 120.926 132.813 121.454C141.552 121.839 149.296 121.18 156.046 126.529C171.464 138.861 193.987 248.522 193.987 248.522C193.987 248.522 160.705 271.755 103.53 254.5Z" fill="#795548"/>
<path d="M206.496 114.196L210.305 112.945L214.977 127.169C215.133 127.644 215.094 128.163 214.868 128.609C214.642 129.056 214.248 129.395 213.772 129.551L213.55 129.624C213.315 129.701 213.066 129.732 212.819 129.713C212.572 129.694 212.331 129.627 212.109 129.515C211.888 129.403 211.691 129.249 211.529 129.061C211.368 128.873 211.245 128.655 211.167 128.419L206.496 114.196V114.196Z" fill="#FFC100"/>
<path d="M212.967 130.213C212.461 130.214 211.967 130.055 211.556 129.758C211.146 129.46 210.84 129.041 210.684 128.559L206.015 114.349C205.973 114.221 205.984 114.082 206.045 113.962C206.106 113.842 206.212 113.751 206.339 113.709L210.105 112.4C210.229 112.349 210.367 112.349 210.491 112.4C210.61 112.461 210.701 112.567 210.745 112.694L215.414 126.904C215.514 127.202 215.553 127.517 215.531 127.831C215.508 128.145 215.423 128.451 215.282 128.731C214.994 129.298 214.494 129.728 213.891 129.929L213.668 130C213.447 130.107 213.211 130.179 212.967 130.213V130.213ZM207.131 114.501L211.648 128.244C211.764 128.592 212.012 128.879 212.339 129.045C212.666 129.21 213.045 129.24 213.394 129.127L213.617 129.056C213.962 128.935 214.248 128.689 214.419 128.366C214.573 128.05 214.598 127.686 214.49 127.351L209.983 113.608L207.131 114.501Z" fill="#231F20"/>
<path d="M207.302 99.8444L201.15 101.865L205.719 115.78L211.872 113.76L207.302 99.8444Z" fill="white"/>
<path d="M205.72 116.267C205.643 116.282 205.564 116.282 205.487 116.267C205.367 116.206 205.276 116.1 205.233 115.973L200.666 102.057C200.624 101.929 200.635 101.79 200.696 101.67C200.757 101.55 200.863 101.46 200.99 101.418L207.141 99.3877C207.202 99.3602 207.268 99.346 207.334 99.346C207.401 99.346 207.466 99.3602 207.527 99.3877C207.587 99.4167 207.641 99.4578 207.684 99.5085C207.728 99.5591 207.761 99.6182 207.781 99.6821L212.348 113.598C212.399 113.721 212.399 113.86 212.348 113.983C212.287 114.103 212.181 114.194 212.054 114.237L205.903 116.267H205.72ZM201.792 102.169L206.045 115.12L211.232 113.415L206.969 100.464L201.792 102.169Z" fill="#231F20"/>
<path d="M212.597 124.539L210.784 125.131C209.586 125.522 208.931 126.81 209.322 128.008L215.801 147.862C216.192 149.06 217.48 149.715 218.679 149.324L220.491 148.732C221.69 148.341 222.344 147.053 221.953 145.855L215.474 126.001C215.083 124.802 213.795 124.148 212.597 124.539Z" fill="white"/>
<path d="M218.286 149.508C217.699 149.506 217.128 149.32 216.652 148.976C216.177 148.632 215.822 148.147 215.637 147.59L209.09 127.737C208.859 127.033 208.916 126.266 209.249 125.604C209.582 124.942 210.163 124.439 210.866 124.204L212.673 123.616C213.376 123.385 214.141 123.442 214.802 123.775C215.462 124.108 215.963 124.69 216.195 125.392L222.722 145.256C222.953 145.958 222.895 146.724 222.562 147.384C222.229 148.044 221.648 148.546 220.945 148.778L219.128 149.366C218.858 149.46 218.573 149.508 218.286 149.508V149.508ZM213.576 124.489C213.387 124.489 213.198 124.52 213.018 124.58L211.211 125.169C210.765 125.317 210.395 125.637 210.184 126.057C209.973 126.478 209.937 126.965 210.085 127.412L216.601 147.275C216.753 147.718 217.074 148.083 217.494 148.29C217.701 148.397 217.927 148.461 218.159 148.478C218.391 148.496 218.624 148.466 218.844 148.392L220.651 147.803C220.871 147.728 221.073 147.611 221.247 147.458C221.421 147.304 221.564 147.118 221.666 146.91C221.772 146.703 221.836 146.477 221.854 146.245C221.871 146.013 221.842 145.78 221.767 145.56L215.241 125.707C215.125 125.356 214.902 125.05 214.604 124.831C214.305 124.613 213.946 124.493 213.576 124.489V124.489Z" fill="#231F20"/>
<path d="M203.051 114.471C212.541 114.471 220.235 106.777 220.235 97.2866C220.235 87.7962 212.541 80.1027 203.051 80.1027C193.56 80.1027 185.867 87.7962 185.867 97.2866C185.867 106.777 193.56 114.471 203.051 114.471Z" fill="#FFC100"/>
<path d="M203.071 114.978C198.621 114.983 194.332 113.31 191.061 110.293C187.789 107.277 185.774 103.138 185.418 98.7021C185.062 94.2662 186.391 89.8591 189.14 86.3593C191.888 82.8595 195.855 80.5241 200.249 79.8188C204.643 79.1135 209.141 80.0901 212.847 82.5538C216.553 85.0175 219.194 88.7874 220.245 93.1119C221.295 97.4364 220.677 101.998 218.513 105.887C216.35 109.776 212.8 112.707 208.572 114.095C206.797 114.677 204.94 114.975 203.071 114.978V114.978ZM203.071 80.6102C201.309 80.6088 199.558 80.8898 197.884 81.4425C193.899 82.7512 190.553 85.5138 188.514 89.1795C186.475 92.8453 185.892 97.145 186.881 101.221C187.871 105.298 190.361 108.851 193.854 111.174C197.347 113.496 201.587 114.417 205.729 113.752C209.871 113.088 213.61 110.887 216.202 107.588C218.793 104.289 220.045 100.135 219.71 95.9534C219.375 91.772 217.476 87.8706 214.392 85.0269C211.308 82.1832 207.266 80.6062 203.071 80.6102V80.6102Z" fill="#231F20"/>
<path d="M203.051 111.243C210.759 111.243 217.007 104.994 217.007 97.2866C217.007 89.5788 210.759 83.3304 203.051 83.3304C195.343 83.3304 189.094 89.5788 189.094 97.2866C189.094 104.994 195.343 111.243 203.051 111.243Z" fill="white"/>
<path d="M203.061 111.75C200.395 111.752 197.781 111.016 195.507 109.626C193.233 108.235 191.387 106.243 190.174 103.869C188.961 101.495 188.428 98.8328 188.632 96.175C188.837 93.5173 189.773 90.9678 191.335 88.8082C192.898 86.6485 195.027 84.9627 197.487 83.9369C199.947 82.911 202.643 82.585 205.277 82.9949C207.911 83.4048 210.381 84.5346 212.413 86.2595C214.445 87.9845 215.961 90.2375 216.794 92.7699V92.7699C217.508 94.9417 217.697 97.2517 217.345 99.5106C216.994 101.77 216.112 103.913 214.772 105.765C213.431 107.617 211.671 109.125 209.636 110.166C207.6 111.206 205.347 111.749 203.061 111.75V111.75ZM203.061 83.8277C200.217 83.8219 197.444 84.7172 195.141 86.385C192.837 88.0529 191.121 90.4075 190.239 93.1112C189.356 95.8149 189.353 98.7285 190.23 101.434C191.106 104.14 192.817 106.498 195.117 108.171C197.417 109.844 200.187 110.745 203.031 110.746C205.875 110.746 208.646 109.845 210.947 108.173C213.247 106.501 214.959 104.143 215.836 101.438C216.713 98.7325 216.711 95.8189 215.83 93.115V93.115C214.946 90.4103 213.229 88.0548 210.924 86.3863C208.619 84.7179 205.845 83.8222 203 83.8277H203.061Z" fill="#231F20"/>
<path d="M200.676 155.903L201.356 150.828C201.356 150.615 201.701 134.953 203.051 133.745C204.401 132.538 221.92 119.83 223.148 121.565C224.376 123.301 221.92 126.569 221.92 126.569C221.92 126.569 226.03 126.153 225.614 128.599C225.198 131.045 222.742 133.532 222.742 133.532C222.742 133.532 225.259 131.685 225.645 134.354C225.754 135.128 225.657 135.917 225.363 136.641C225.069 137.364 224.588 137.997 223.97 138.475C223.97 138.475 227.675 136.831 226.853 139.906C226.03 142.982 217.017 150.808 217.017 150.808L215.931 157.507L200.676 155.903Z" fill="white"/>
<path d="M215.931 158.075H215.88L200.655 156.451H200.564C200.148 156.329 200.148 156.329 200.767 151.752L200.889 150.848C200.889 150.757 201.153 134.892 202.756 133.441C203.771 132.507 219.534 120.956 222.803 120.956H222.935C223.066 120.965 223.194 121.003 223.309 121.066C223.425 121.129 223.526 121.216 223.604 121.322C224.619 122.753 223.604 124.895 222.924 126.082C223.932 126.047 224.918 126.383 225.695 127.026C225.9 127.259 226.048 127.536 226.129 127.835C226.21 128.134 226.221 128.447 226.162 128.752C225.859 130.109 225.255 131.382 224.396 132.477C224.632 132.472 224.866 132.513 225.086 132.598C225.412 132.765 225.686 133.015 225.881 133.324C226.076 133.633 226.183 133.989 226.193 134.354C226.365 135.486 226.127 136.641 225.523 137.613C226.047 137.531 226.583 137.659 227.015 137.968C227.272 138.254 227.443 138.606 227.508 138.986C227.573 139.365 227.528 139.755 227.38 140.109C226.578 143.154 218.722 150.097 217.525 151.143L216.51 157.659C216.485 157.789 216.411 157.905 216.303 157.982C216.196 158.06 216.062 158.093 215.931 158.075V158.075ZM201.244 155.497L215.515 157.009L216.53 150.787C216.544 150.669 216.602 150.56 216.692 150.483C219.169 148.341 225.726 142.251 226.375 139.846C226.517 139.287 226.507 138.881 226.375 138.729C226.02 138.435 224.904 138.729 224.234 138.993C224.119 139.047 223.987 139.055 223.866 139.016C223.746 138.976 223.645 138.892 223.584 138.78C223.519 138.672 223.499 138.542 223.527 138.419C223.555 138.296 223.63 138.189 223.736 138.12C224.277 137.698 224.697 137.141 224.954 136.505C225.211 135.868 225.295 135.176 225.198 134.497C225.137 134.121 225.015 133.664 224.701 133.532C224.203 133.319 223.351 133.816 223.087 134.009C222.984 134.083 222.857 134.116 222.731 134.101C222.605 134.086 222.489 134.024 222.407 133.928C222.322 133.833 222.275 133.71 222.275 133.583C222.275 133.456 222.322 133.333 222.407 133.238C222.407 133.238 224.772 130.853 225.147 128.579C225.188 128.43 225.19 128.273 225.155 128.122C225.119 127.971 225.047 127.832 224.944 127.716C224.315 127.046 222.6 127.057 222.001 127.107C221.902 127.117 221.803 127.098 221.715 127.053C221.627 127.008 221.553 126.939 221.503 126.854C221.448 126.773 221.419 126.677 221.419 126.58C221.419 126.482 221.448 126.386 221.503 126.305C222.123 125.473 223.533 123.057 222.732 121.9C221.006 121.383 205.152 132.588 203.386 134.182C202.371 135.197 201.853 148.321 201.853 150.889C201.853 150.889 201.853 151.295 201.721 151.904C201.599 152.807 201.356 154.594 201.244 155.456V155.497Z" fill="#231F20"/>
<path d="M156.026 126.529C156.026 126.529 165.892 132.497 173.281 146.169C180.67 159.841 191.652 193.651 191.652 193.651L197.976 150.584L219.544 155.446C219.544 155.446 221.392 232.586 202.289 241.264C183.187 249.943 134.355 196.239 134.355 196.239L156.026 126.529Z" fill="#795548"/>
<path d="M196.068 242.645H195.926C195.824 242.645 185.177 239.427 172.844 228.008C161.497 217.493 146.323 197.64 138.487 162.744C138.472 162.677 138.471 162.608 138.483 162.541C138.495 162.474 138.52 162.41 138.556 162.352C138.593 162.295 138.641 162.245 138.697 162.206C138.753 162.167 138.816 162.139 138.883 162.125C138.949 162.11 139.018 162.109 139.085 162.121C139.152 162.133 139.217 162.158 139.274 162.195C139.332 162.231 139.381 162.279 139.42 162.335C139.459 162.391 139.487 162.454 139.502 162.521C154.372 228.77 195.814 241.549 196.23 241.691C196.365 241.71 196.486 241.781 196.568 241.89C196.65 241.998 196.685 242.135 196.667 242.269C196.648 242.404 196.576 242.525 196.468 242.607C196.359 242.689 196.223 242.725 196.088 242.706L196.068 242.645Z" fill="#231F20"/>
<path d="M158.066 102.412L152.534 99.205C152.534 99.205 150.849 105.853 153.854 107.569C156.858 109.284 158.066 102.412 158.066 102.412Z" fill="white"/>
<path d="M154.788 108.34C154.368 108.333 153.958 108.214 153.6 107.995C150.301 106.117 151.966 99.3572 152.037 99.073C152.057 98.9972 152.094 98.9269 152.145 98.8672C152.196 98.8075 152.26 98.7599 152.331 98.7279C152.402 98.693 152.48 98.6748 152.56 98.6748C152.639 98.6748 152.717 98.693 152.788 98.7279L158.34 101.976C158.429 102.029 158.499 102.108 158.543 102.202C158.586 102.296 158.601 102.401 158.584 102.504C158.492 102.981 157.69 107.193 155.66 108.147C155.387 108.275 155.089 108.341 154.788 108.34ZM152.879 99.9865C152.473 102.017 152.159 106.005 154.107 107.092C154.269 107.203 154.457 107.27 154.652 107.288C154.848 107.306 155.045 107.273 155.224 107.193C156.432 106.625 157.254 103.975 157.498 102.646L152.879 99.9865Z" fill="#231F20"/>
<path d="M144.962 109.934C144.962 109.934 136.913 107.782 134.234 105.204C137.423 108.953 141.092 112.267 145.145 115.059L144.962 109.934Z" fill="#231F20"/>
<path d="M145.145 115.567C145.047 115.571 144.951 115.543 144.871 115.486C140.763 112.665 137.044 109.317 133.807 105.528C133.726 105.429 133.686 105.302 133.695 105.173C133.704 105.045 133.762 104.925 133.856 104.837C133.95 104.75 134.074 104.701 134.202 104.701C134.331 104.701 134.454 104.75 134.548 104.838C137.106 107.295 144.983 109.426 145.064 109.446C145.169 109.473 145.262 109.533 145.33 109.617C145.398 109.701 145.436 109.805 145.439 109.913L145.652 114.988C145.657 115.082 145.636 115.175 145.592 115.258C145.547 115.34 145.48 115.408 145.399 115.455C145.324 115.512 145.237 115.551 145.145 115.567V115.567ZM137.126 107.65C139.407 110.026 141.909 112.181 144.597 114.085L144.434 110.319C141.943 109.621 139.509 108.728 137.157 107.65H137.126Z" fill="#231F20"/>
</svg>
